{
.appVersion = "1361";
DisplayStrings = (

glyphs = (
{
color = 4;
glyphname = A;
lastChange = "2022-07-29 17:10:13 +0000";
layers = (
{
anchors = (
{
name = bottom;
position = "{617, 0}";
},
{
name = ogonek;
position = "{1248, 10}";
},
{
name = top;
position = "{870, 1517}";
}
);
background = {
paths = (
{
closed = 1;
nodes = (
"1112 -19 OFFCURVE",
"1185 -3 OFFCURVE",
"1245 34 CURVE",
"1251 136 OFFCURVE",
"1253 230 OFFCURVE",
"1025 1366 CURVE",
"692 1158 LINE {name = hr00;}",
"873 333 LINE",
"792 61 LINE",
"840 10 OFFCURVE",
"938 -21 OFFCURVE",
"1041 -20 CURVE SMOOTH"
);
},
{
closed = 1;
nodes = (
"515 -24 OFFCURVE",
"524 272 OFFCURVE",
"555 517 CURVE SMOOTH",
"589 783 OFFCURVE",
"611 1095 OFFCURVE",
"613 1167 CURVE",
"361 1187 LINE",
"183 292 LINE",
"51 303 LINE",
"6 140 LINE",
"44 41 OFFCURVE",
"154 -18 OFFCURVE",
"266 -20 CURVE SMOOTH"
);
},
{
closed = 1;
nodes = (
"1027 420 LINE",
"1012 674 LINE",
"918 664 OFFCURVE",
"524 633 OFFCURVE",
"437 617 CURVE",
"419 453 LINE",
"492 440 OFFCURVE",
"690 427 OFFCURVE",
"800 420 CURVE"
);
},
{
closed = 1;
nodes = (
"1025 1366 LINE",
"775 1442 OFFCURVE",
"521 1505 OFFCURVE",
"255 1549 CURVE",
"172 1474 OFFCURVE",
"130 1319 OFFCURVE",
"127 1216 CURVE",
"248 1170 OFFCURVE",
"536 1145 OFFCURVE",
"715 1129 CURVE"
);
}
);
};
layerId = "ED69ACE7-BE83-49AD-8DAF-057B7A1FF3CB";
paths = (
{
closed = 1;
nodes = (
"955 1440 OFFCURVE",
"709 1505 OFFCURVE",
"458 1549 CURVE",
"368 1474 OFFCURVE",
"307 1319 OFFCURVE",
"289 1216 CURVE",
"334 1197 OFFCURVE",
"416 1180 OFFCURVE",
"505 1167 CURVE",
"217 292 LINE",
"91 303 LINE",
"25 140 LINE",
"49 42 OFFCURVE",
"146 -18 OFFCURVE",
"255 -20 CURVE SMOOTH",
"497 -24 OFFCURVE",
"545 272 OFFCURVE",
"609 516 CURVE SMOOTH",
"671 756 OFFCURVE",
"732 1055 OFFCURVE",
"749 1138 CURVE",
"778 1136 OFFCURVE",
"805 1133 OFFCURVE",
"831 1131 CURVE",
"870 656 LINE",
"765 646 OFFCURVE",
"547 624 OFFCURVE",
"507 617 CURVE",
"468 453 LINE",
"518 444 OFFCURVE",
"607 435 OFFCURVE",
"833 420 CURVE",
"886 420 LINE",
"892 333 LINE",
"777 61 LINE",
"817 10 OFFCURVE",
"908 -21 OFFCURVE",
"1007 -20 CURVE SMOOTH",
"1076 -19 OFFCURVE",
"1149 -3 OFFCURVE",
"1213 34 CURVE",
"1233 136 OFFCURVE",
"1245 244 OFFCURVE",
"1180 1366 CURVE"
);
}
);
userData = {
com.typemytype.robofont.guides = (
{
angle = 90;
isGlobal = 0;
x = 617;
y = 0;
}
);
};
width = 1234;
}
);
leftKerningGroup = KO_A;
rightKerningGroup = KO_A;
unicode = 0041;
userData = {
KernOnName = A;
};
},
{
color = 4;
glyphname = AE;
lastChange = "2022-07-29 03:42:50 +0000";
layers = (
{
anchors = (
{
name = bottom;
position = "{846, 0}";
},
{
name = top;
position = "{1091, 1529}";
}
);
layerId = "ED69ACE7-BE83-49AD-8DAF-057B7A1FF3CB";
paths = (
{
closed = 1;
nodes = (
"1554 -20 OFFCURVE",
"1667 93 OFFCURVE",
"1667 347 CURVE SMOOTH",
"1667 399 OFFCURVE",
"1663 444 OFFCURVE",
"1656 474 CURVE",
"1483 489 LINE",
"1378 299 LINE",
"1102 319 LINE",
"1162 664 LINE",
"1258 604 OFFCURVE",
"1388 581 OFFCURVE",
"1513 581 CURVE SMOOTH",
"1535 581 OFFCURVE",
"1552 582 OFFCURVE",
"1573 584 CURVE",
"1606 616 OFFCURVE",
"1652 734 OFFCURVE",
"1652 828 CURVE SMOOTH",
"1652 866 OFFCURVE",
"1645 900 OFFCURVE",
"1631 930 CURVE",
"1480 899 OFFCURVE",
"1387 874 OFFCURVE",
"1180 851 CURVE",
"1208 1174 LINE",
"1374 1123 OFFCURVE",
"1515 1089 OFFCURVE",
"1626 1075 CURVE",
"1711 1136 OFFCURVE",
"1768 1265 OFFCURVE",
"1768 1387 CURVE SMOOTH",
"1768 1457 OFFCURVE",
"1748 1519 OFFCURVE",
"1701 1549 CURVE",
"1331 1455 LINE",
"1008 1529 LINE",
"919 1471 OFFCURVE",
"825 1354 OFFCURVE",
"813 1265 CURVE",
"839 1155 LINE",
"886 541 LINE",
"765 191 LINE",
"776 144 OFFCURVE",
"789 107 OFFCURVE",
"820 68 CURVE",
"948 22 OFFCURVE",
"1240 -20 OFFCURVE",
"1381 -20 CURVE SMOOTH"
);
},
{
closed = 1;
nodes = (
"497 -24 OFFCURVE",
"545 271 OFFCURVE",
"609 517 CURVE SMOOTH",
"680 790 OFFCURVE",
"745 1115 OFFCURVE",
"754 1167 CURVE",
"512 1187 LINE",
"217 292 LINE",
"91 303 LINE",
"25 140 LINE",
"49 42 OFFCURVE",
"146 -18 OFFCURVE",
"255 -20 CURVE SMOOTH"
);
},
{
closed = 1;
nodes = (
"1053 420 LINE",
"1074 674 LINE",
"981 664 OFFCURVE",
"595 633 OFFCURVE",
"508 617 CURVE",
"469 453 LINE",
"530 441 OFFCURVE",
"711 428 OFFCURVE",
"833 420 CURVE"
);
},
{
closed = 1;
nodes = (
"1180 1366 LINE",
"927 1409 LINE",
"458 1549 LINE",
"367 1473 OFFCURVE",
"305 1308 OFFCURVE",
"287 1206 CURVE",
"399 1160 OFFCURVE",
"718 1131 OFFCURVE",
"886 1119 CURVE"
);
}
);
width = 1692;
}
);
leftKerningGroup = KO_A;
rightKerningGroup = KO_E;
unicode = 00C6;
},
{
color = 4;
glyphname = B;
lastChange = "2022-07-29 03:42:50 +0000";
layers = (
{
anchors = (
{
name = bottom;
position = "{631, 0}";
},
{
name = top;
position = "{838, 1529}";
}
);
background = {
paths = (
{
closed = 1;
nodes = (
"856 -23 OFFCURVE",
"892 -21 OFFCURVE",
"928 -17 CURVE",
"1137 59 OFFCURVE",
"1281 276 OFFCURVE",
"1281 497 CURVE SMOOTH",
"1281 535 OFFCURVE",
"1277 573 OFFCURVE",
"1268 611 CURVE",
"1221 670 OFFCURVE",
"963 695 OFFCURVE",
"893 697 CURVE",
"726 640 LINE",
"734 612 LINE",
"881 538 LINE",
"887 492 OFFCURVE",
"890 457 OFFCURVE",
"890 427 CURVE SMOOTH",
"890 363 OFFCURVE",
"877 317 OFFCURVE",
"858 222 CURVE",
"731 230 OFFCURVE",
"574 277 OFFCURVE",
"457 344 CURVE",
"478 594 OFFCURVE",
"535 836 OFFCURVE",
"606 1075 CURVE",
"456 969 LINE {name = hr00;}",
"427 983 LINE",
"522 1480 LINE",
"472 1514 OFFCURVE",
"414 1529 OFFCURVE",
"357 1529 CURVE SMOOTH",
"248 1529 OFFCURVE",
"140 1474 OFFCURVE",
"80 1393 CURVE SMOOTH",
"79 1391 OFFCURVE",
"79 1387 OFFCURVE",
"79 1381 CURVE SMOOTH",
"79 1268 OFFCURVE",
"158 476 OFFCURVE",
"211 370 CURVE",
"183 278 OFFCURVE",
"171 237 OFFCURVE",
"151 163 CURVE SMOOTH",
"146 146 OFFCURVE",
"144 133 OFFCURVE",
"144 123 CURVE SMOOTH",
"144 34 OFFCURVE",
"593 -23 OFFCURVE",
"819 -23 CURVE SMOOTH"
);
},
{
closed = 1;
nodes = (
"892 489 OFFCURVE",
"851 700 OFFCURVE",
"851 728 CURVE SMOOTH",
"851 730 OFFCURVE",
"852 731 OFFCURVE",
"852 731 CURVE",
"858 734 OFFCURVE",
"450 750 OFFCURVE",
"453 750 CURVE",
"453 750 OFFCURVE",
"453 750 OFFCURVE",
"453 749 CURVE SMOOTH",
"453 737 OFFCURVE",
"419 587 OFFCURVE",
"419 587 CURVE",
"419 587 OFFCURVE",
"892 489 OFFCURVE",
"892 489 CURVE"
);
},
{
closed = 1;
nodes = (
"1079 737 LINE SMOOTH",
"1126 954 OFFCURVE",
"1167 1215 OFFCURVE",
"1171 1404 CURVE",
"1050 1506 OFFCURVE",
"889 1548 OFFCURVE",
"813 1548 CURVE SMOOTH",
"755 1548 OFFCURVE",
"704 1536 OFFCURVE",
"683 1531 CURVE",
"347 699 LINE",
"507 673 LINE",
"544 758 OFFCURVE",
"676 1036 OFFCURVE",
"732 1151 CURVE",
"779 1143 LINE",
"778 1056 OFFCURVE",
"766 832 OFFCURVE",
"754 689 CURVE SMOOTH",
"754 685 OFFCURVE",
"753 682 OFFCURVE",
"753 678 CURVE",
"1062 659 LINE"
);
}
);
};
layerId = "ED69ACE7-BE83-49AD-8DAF-057B7A1FF3CB";
paths = (
{
closed = 1;
nodes = (
"1301 630 OFFCURVE",
"1226 658 OFFCURVE",
"1129 685 CURVE",
"1147 737 LINE SMOOTH",
"1223 962 OFFCURVE",
"1297 1215 OFFCURVE",
"1327 1404 CURVE",
"1219 1509 OFFCURVE",
"1069 1548 OFFCURVE",
"999 1548 CURVE SMOOTH",
"958 1548 OFFCURVE",
"917 1542 OFFCURVE",
"870 1531 CURVE",
"574 969 LINE {name = hr00;}",
"548 983 LINE",
"708 1480 LINE",
"663 1514 OFFCURVE",
"608 1529 OFFCURVE",
"554 1529 CURVE SMOOTH",
"449 1529 OFFCURVE",
"336 1474 OFFCURVE",
"267 1393 CURVE",
"248 1260 OFFCURVE",
"219 477 OFFCURVE",
"255 370 CURVE",
"185 210 OFFCURVE",
"156 136 OFFCURVE",
"156 119 CURVE SMOOTH",
"156 33 OFFCURVE",
"573 -23 OFFCURVE",
"792 -23 CURVE SMOOTH",
"827 -23 OFFCURVE",
"862 -21 OFFCURVE",
"897 -17 CURVE",
"1123 63 OFFCURVE",
"1314 313 OFFCURVE",
"1314 570 CURVE SMOOTH",
"1314 584 OFFCURVE",
"1314 597 OFFCURVE",
"1312 611 CURVE"
);
},
{
closed = 1;
nodes = (
"899 1065 OFFCURVE",
"866 890 OFFCURVE",
"836 737 CURVE",
"772 740 OFFCURVE",
"686 744 OFFCURVE",
"626 746 CURVE",
"692 860 OFFCURVE",
"863 1146 OFFCURVE",
"866 1151 CURVE",
"911 1143 LINE"
);
},
{
closed = 1;
nodes = (
"740 230 OFFCURVE",
"595 278 OFFCURVE",
"490 344 CURVE",
"507 424 OFFCURVE",
"524 487 OFFCURVE",
"548 573 CURVE",
"927 490 LINE",
"925 464 OFFCURVE",
"922 430 OFFCURVE",
"922 426 CURVE SMOOTH",
"914 369 OFFCURVE",
"897 328 OFFCURVE",
"863 222 CURVE"
);
}
);
width = 1269;
}
);
leftKerningGroup = KO_B;
rightKerningGroup = KO_B;
unicode = 0042;
userData = {
KernOnName = B;
};
},
{
color = 4;
glyphname = C;
lastChange = "2022-07-29 03:42:50 +0000";
layers = (
{
anchors = (
{
name = bottom;
position = "{491, 0}";
},
{
name = top;
position = "{738, 1535}";
}
);
layerId = "ED69ACE7-BE83-49AD-8DAF-057B7A1FF3CB";
paths = (
{
closed = 1;
nodes = (
"681 6 OFFCURVE",
"903 188 OFFCURVE",
"986 305 CURVE",
"935 472 LINE",
"743 402 OFFCURVE",
"579 332 OFFCURVE",
"499 320 CURVE",
"548 516 OFFCURVE",
"644 974 OFFCURVE",
"654 1170 CURVE",
"680 1192 LINE {name = hr00;}",
"764 1104 OFFCURVE",
"842 1050 OFFCURVE",
"928 1010 CURVE",
"985 1037 OFFCURVE",
"1134 1227 OFFCURVE",
"1116 1481 CURVE",
"807 1459 LINE",
"752 1491 OFFCURVE",
"626 1537 OFFCURVE",
"568 1549 CURVE",
"447 1505 OFFCURVE",
"293 1380 OFFCURVE",
"255 1286 CURVE",
"248 1235 OFFCURVE",
"244 1190 OFFCURVE",
"245 1171 CURVE SMOOTH",
"251 1054 OFFCURVE",
"240 874 OFFCURVE",
"221 615 CURVE SMOOTH",
"207 413 OFFCURVE",
"205 394 OFFCURVE",
"187 192 CURVE",
"187 157 OFFCURVE",
"204 126 OFFCURVE",
"240 94 CURVE SMOOTH",
"290 49 OFFCURVE",
"380 -20 OFFCURVE",
"449 -20 CURVE"
);
}
);
width = 981;
}
);
leftKerningGroup = KO_C;
rightKerningGroup = KO_C;
unicode = 0043;
userData = {
KernOnName = C;
};
},
{
color = 4;
glyphname = D;
lastChange = "2022-07-29 03:42:50 +0000";
layers = (
{
anchors = (
{
name = bottom;
position = "{647, 0}";
},
{
name = center;
position = "{750, 765}";
},
{
name = top;
position = "{854, 1529}";
}
);
layerId = "ED69ACE7-BE83-49AD-8DAF-057B7A1FF3CB";
paths = (
{
closed = 1;
nodes = (
"858 -6 OFFCURVE",
"1124 114 OFFCURVE",
"1156 191 CURVE SMOOTH",
"1213 324 OFFCURVE",
"1362 940 OFFCURVE",
"1370 1182 CURVE SMOOTH",
"1371 1198 OFFCURVE",
"1370 1224 OFFCURVE",
"1370 1226 CURVE",
"1293 1333 OFFCURVE",
"1155 1434 OFFCURVE",
"1052 1489 CURVE",
"370 1549 LINE",
"260 1478 OFFCURVE",
"219 1347 OFFCURVE",
"194 1226 CURVE",
"442 1204 LINE",
"729 1182 LINE",
"965 1129 LINE",
"960 1013 OFFCURVE",
"938 808 OFFCURVE",
"908 584 CURVE SMOOTH",
"892 466 OFFCURVE",
"858 276 OFFCURVE",
"849 228 CURVE",
"545 200 LINE",
"564 137 OFFCURVE",
"633 37 OFFCURVE",
"728 -21 CURVE {name = hr02;}"
);
},
{
closed = 1;
nodes = (
"386 -13 OFFCURVE",
"475 102 OFFCURVE",
"545 200 CURVE",
"737 55 LINE",
"980 55 OFFCURVE",
"1106 217 OFFCURVE",
"1106 528 CURVE SMOOTH",
"1106 565 OFFCURVE",
"1104 602 OFFCURVE",
"1098 625 CURVE",
"986 639 LINE",
"903 299 LINE",
"612 394 LINE",
"368 437 LINE",
"322 437 LINE SMOOTH",
"289 437 OFFCURVE",
"253 433 OFFCURVE",
"225 423 CURVE",
"122 299 LINE {name = hr01;}",
"115 186 OFFCURVE",
"201 20 OFFCURVE",
"275 -20 CURVE"
);
},
{
closed = 1;
nodes = (
"787 1449 LINE",
"744 1478 OFFCURVE",
"756 1489 OFFCURVE",
"695 1489 CURVE SMOOTH",
"550 1489 OFFCURVE",
"417 1456 OFFCURVE",
"373 1399 CURVE",
"380 1189 OFFCURVE",
"335 871 OFFCURVE",
"356 373 CURVE",
"584 332 LINE"
);
}
);
width = 1294;
}
);
leftKerningGroup = KO_D;
rightKerningGroup = KO_D;
unicode = 0044;
userData = {
KernOnName = D;
};
},
{
glyphname = Eth;
lastChange = "2022-05-20 00:37:12 +0000";
layers = (
{
layerId = "ED69ACE7-BE83-49AD-8DAF-057B7A1FF3CB";
paths = (
{
closed = 1;
nodes = (
"884 -7 OFFCURVE",
"1144 115 OFFCURVE",
"1166 190 CURVE SMOOTH",
"1205 324 OFFCURVE",
"1254 841 OFFCURVE",
"1254 996 CURVE SMOOTH",
"1254 1133 OFFCURVE",
"1249 1165 OFFCURVE",
"1242 1226 CURVE",
"1146 1334 OFFCURVE",
"991 1435 OFFCURVE",
"877 1489 CURVE",
"165 1549 LINE",
"62 1478 OFFCURVE",
"39 1346 OFFCURVE",
"30 1226 CURVE",
"288 1204 LINE",
"587 1182 LINE",
"838 1129 LINE",
"850 1002 OFFCURVE",
"855 782 OFFCURVE",
"855 586 CURVE SMOOTH",
"855 466 OFFCURVE",
"849 302 OFFCURVE",
"843 228 CURVE",
"534 200 LINE",
"564 134 OFFCURVE",
"652 35 OFFCURVE",
"755 -21 CURVE {name = hr02;}"
);
},
{
closed = 1;
nodes = (
"404 -13 OFFCURVE",
"482 111 OFFCURVE",
"534 200 CURVE",
"754 55 LINE",
"956 55 OFFCURVE",
"1078 181 OFFCURVE",
"1078 369 CURVE SMOOTH",
"1078 476 OFFCURVE",
"1063 579 OFFCURVE",
"1046 625 CURVE",
"928 639 LINE",
"890 299 LINE",
"577 394 LINE",
"318 437 LINE",
"271 437 LINE SMOOTH",
"237 437 OFFCURVE",
"201 433 OFFCURVE",
"174 423 CURVE",
"85 299 LINE {name = hr01;}",
"94 186 OFFCURVE",
"204 20 OFFCURVE",
"288 -20 CURVE"
);
},
{
closed = 1;
nodes = (
"403 637 OFFCURVE",
"647 649 OFFCURVE",
"717 655 CURVE",
"762 719 OFFCURVE",
"774 845 OFFCURVE",
"733 922 CURVE",
"334 884 LINE",
"75 834 LINE",
"60 766 OFFCURVE",
"65 714 OFFCURVE",
"89 649 CURVE"
);
},
{
closed = 1;
nodes = (
"609 1449 LINE",
"561 1478 OFFCURVE",
"571 1489 OFFCURVE",
"508 1489 CURVE SMOOTH",
"359 1489 OFFCURVE",
"227 1456 OFFCURVE",
"190 1399 CURVE",
"226 1189 OFFCURVE",
"224 871 OFFCURVE",
"315 373 CURVE",
"557 332 LINE"
);
}
);
width = 1334;
}
);
leftKerningGroup = KO_Eth;
rightKerningGroup = KO_D;
unicode = 00D0;
},
{
color = 4;
glyphname = E;
lastChange = "2022-07-29 03:42:50 +0000";
layers = (
{
anchors = (
{
name = bottom;
position = "{543, 0}";
},
{
name = ogonek;
position = "{975, 10}";
},
{
name = top;
position = "{751, 1529}";
},
{
name = topleft;
position = "{232, 1529}";
}
);
layerId = "ED69ACE7-BE83-49AD-8DAF-057B7A1FF3CB";
paths = (
{
closed = 1;
nodes = (
"884 8 OFFCURVE",
"979 88 OFFCURVE",
"1045 193 CURVE",
"1056 285 OFFCURVE",
"1057 419 OFFCURVE",
"1045 474 CURVE",
"873 489 LINE",
"767 299 LINE",
"491 309 LINE",
"552 664 LINE",
"648 604 OFFCURVE",
"778 581 OFFCURVE",
"903 581 CURVE SMOOTH",
"923 581 OFFCURVE",
"942 582 OFFCURVE",
"962 584 CURVE",
"995 616 OFFCURVE",
"1041 732 OFFCURVE",
"1041 827 CURVE SMOOTH",
"1041 862 OFFCURVE",
"1035 901 OFFCURVE",
"1019 930 CURVE",
"870 899 OFFCURVE",
"776 874 OFFCURVE",
"569 851 CURVE",
"575 1171 LINE",
"772 1113 OFFCURVE",
"902 1073 OFFCURVE",
"1016 1062 CURVE",
"1097 1120 OFFCURVE",
"1157 1265 OFFCURVE",
"1157 1387 CURVE SMOOTH",
"1157 1457 OFFCURVE",
"1138 1519 OFFCURVE",
"1091 1549 CURVE",
"679 1455 LINE {name = hr00;}",
"366 1528 LINE",
"277 1470 OFFCURVE",
"184 1354 OFFCURVE",
"172 1265 CURVE",
"329 681 LINE",
"118 264 LINE",
"118 192 OFFCURVE",
"142 128 OFFCURVE",
"181 68 CURVE",
"315 30 OFFCURVE",
"600 -15 OFFCURVE",
"771 -20 CURVE"
);
}
);
width = 1071;
}
);
leftKerningGroup = KO_E;
rightKerningGroup = KO_E;
unicode = 0045;
userData = {
KernOnName = E;
};
},
{
color = 4;
glyphname = Eopen;
lastChange = "2022-07-29 03:43:44 +0000";
layers = (
{
layerId = "ED69ACE7-BE83-49AD-8DAF-057B7A1FF3CB";
paths = (
{
closed = 1;
nodes = (
"593 -16 OFFCURVE",
"746 76 OFFCURVE",
"843 196 CURVE",
"845 201 OFFCURVE",
"857 243 OFFCURVE",
"857 277 CURVE SMOOTH",
"857 321 OFFCURVE",
"840 351 OFFCURVE",
"809 382 CURVE",
"682 321 OFFCURVE",
"540 262 OFFCURVE",
"402 260 CURVE SMOOTH",
"368 260 OFFCURVE",
"328 265 OFFCURVE",
"298 272 CURVE",
"280 320 OFFCURVE",
"275 412 OFFCURVE",
"275 466 CURVE",
"340 555 OFFCURVE",
"457 602 OFFCURVE",
"544 640 CURVE SMOOTH",
"601 665 OFFCURVE",
"610 640 OFFCURVE",
"588 740 CURVE",
"521 758 OFFCURVE",
"464 782 OFFCURVE",
"391 783 CURVE",
"187 758 OFFCURVE",
"-49 634 OFFCURVE",
"-61 533 CURVE",
"-93 294 OFFCURVE",
"-29 139 OFFCURVE",
"98 57 CURVE SMOOTH {name = hr02;}",
"170 11 OFFCURVE",
"300 -16 OFFCURVE",
"393 -16 CURVE SMOOTH"
);
},
{
closed = 1;
nodes = (
"753 485 OFFCURVE",
"870 668 OFFCURVE",
"806 805 CURVE",
"722 841 LINE",
"569 795 LINE {name = hr01;}",
"450 666 LINE",
"480 625 OFFCURVE",
"448 654 OFFCURVE",
"478 622 CURVE",
"508 547 OFFCURVE",
"594 478 OFFCURVE",
"661 464 CURVE"
);
},
{
closed = 1;
nodes = (
"620 799 OFFCURVE",
"480 1028 OFFCURVE",
"438 1108 CURVE",
"444 1131 LINE",
"664 1211 LINE",
"694 1195 LINE",
"695 1012 LINE",
"768 985 OFFCURVE",
"840 979 OFFCURVE",
"922 1013 CURVE",
"968 1117 OFFCURVE",
"1040 1239 OFFCURVE",
"993 1349 CURVE",
"950 1412 OFFCURVE",
"839 1462 OFFCURVE",
"745 1493 CURVE",
"686 1515 OFFCURVE",
"631 1529 OFFCURVE",
"609 1529 CURVE SMOOTH",
"523 1529 OFFCURVE",
"245 1425 OFFCURVE",
"146 1333 CURVE",
"113 1254 OFFCURVE",
"95 1168 OFFCURVE",
"101 1061 CURVE",
"244 854 OFFCURVE",
"526 755 OFFCURVE",
"536 750 CURVE",
"696 713 LINE"
);
}
);
width = 885;
}
);
leftMetricsKey = "=|B";
rightKerningGroup = KO_Eopen;
rightMetricsKey = E;
unicode = 0190;
},
{
color = 4;
glyphname = F;
lastChange = "2022-07-29 03:42:50 +0000";
layers = (
{
anchors = (
{
name = bottom;
position = "{522, 0}";
},
{
name = top;
position = "{936, 1529}";
}
);
layerId = "ED69ACE7-BE83-49AD-8DAF-057B7A1FF3CB";
paths = (
{
closed = 1;
nodes = (
"905 1135 OFFCURVE",
"1044 1098 OFFCURVE",
"1185 1075 CURVE",
"1283 1133 OFFCURVE",
"1370 1301 OFFCURVE",
"1370 1435 CURVE SMOOTH",
"1370 1486 OFFCURVE",
"1356 1528 OFFCURVE",
"1323 1549 CURVE",
"952 1447 LINE",
"542 1541 LINE",
"464 1478 OFFCURVE",
"389 1356 OFFCURVE",
"367 1275 CURVE",
"358 1228 OFFCURVE",
"365 1227 OFFCURVE",
"404 311 CURVE",
"178 311 LINE",
"78 174 LINE",
"94 98 OFFCURVE",
"170 -20 OFFCURVE",
"290 -20 CURVE SMOOTH",
"407 -20 OFFCURVE",
"611 65 OFFCURVE",
"658 195 CURVE SMOOTH",
"713 349 OFFCURVE",
"708 491 OFFCURVE",
"699 627 CURVE",
"704 632 LINE",
"779 580 OFFCURVE",
"877 547 OFFCURVE",
"980 547 CURVE SMOOTH",
"1003 547 OFFCURVE",
"1029 548 OFFCURVE",
"1053 552 CURVE",
"1087 581 OFFCURVE",
"1170 718 OFFCURVE",
"1170 838 CURVE SMOOTH",
"1170 861 OFFCURVE",
"1166 886 OFFCURVE",
"1159 904 CURVE",
"951 863 OFFCURVE",
"925 855 OFFCURVE",
"741 828 CURVE",
"760 1181 LINE"
);
}
);
width = 1043;
}
);
leftKerningGroup = KO_F;
rightKerningGroup = KO_F;
unicode = 0046;
userData = {
KernOnName = F;
};
},
{
color = 4;
glyphname = G;
lastChange = "2022-07-29 03:42:50 +0000";
layers = (
{
anchors = (
{
name = bottom;
position = "{568, 0}";
},
{
name = top;
position = "{777, 1529}";
}
);
layerId = "ED69ACE7-BE83-49AD-8DAF-057B7A1FF3CB";
paths = (
{
closed = 1;
nodes = (
"425 -18 OFFCURVE",
"437 -20 OFFCURVE",
"451 1 CURVE",
"499 320 LINE",
"548 516 OFFCURVE",
"644 974 OFFCURVE",
"654 1170 CURVE",
"680 1192 LINE {name = hr01;}",
"763 1104 OFFCURVE",
"928 1029 OFFCURVE",
"1016 1010 CURVE",
"1072 1037 OFFCURVE",
"1221 1227 OFFCURVE",
"1204 1481 CURVE",
"867 1450 LINE",
"812 1482 OFFCURVE",
"625 1540 OFFCURVE",
"568 1549 CURVE",
"447 1505 OFFCURVE",
"293 1380 OFFCURVE",
"255 1286 CURVE",
"253 1271 OFFCURVE",
"250 1199 OFFCURVE",
"249 1171 CURVE SMOOTH",
"242 935 OFFCURVE",
"236 827 OFFCURVE",
"221 617 CURVE SMOOTH",
"208 425 OFFCURVE",
"208 426 OFFCURVE",
"187 192 CURVE",
"188 154 OFFCURVE",
"201 130 OFFCURVE",
"242 93 CURVE SMOOTH",
"280 58 OFFCURVE",
"350 2 OFFCURVE",
"412 -15 CURVE"
);
},
{
closed = 1;
nodes = (
"554 -20 OFFCURVE",
"712 223 OFFCURVE",
"781 347 CURVE",
"803 336 LINE",
"774 217 OFFCURVE",
"747 135 OFFCURVE",
"729 48 CURVE {name = hr02;}",
"771 -2 OFFCURVE",
"854 -20 OFFCURVE",
"934 -20 CURVE SMOOTH",
"988 -20 OFFCURVE",
"1051 2 OFFCURVE",
"1083 23 CURVE",
"1086 499 LINE",
"1211 720 LINE",
"1155 804 OFFCURVE",
"1079 842 OFFCURVE",
"959 842 CURVE SMOOTH",
"885 842 OFFCURVE",
"817 827 OFFCURVE",
"792 815 CURVE",
"782 723 OFFCURVE",
"787 610 OFFCURVE",
"809 497 CURVE",
"726 432 OFFCURVE",
"543 280 OFFCURVE",
"496 282 CURVE",
"248 346 LINE",
"230 210 OFFCURVE",
"185 173 OFFCURVE",
"267 95 CURVE SMOOTH",
"314 49 OFFCURVE",
"360 -20 OFFCURVE",
"431 -20 CURVE SMOOTH"
);
}
);
width = 1126;
}
);
leftKerningGroup = KO_C;
rightKerningGroup = KO_G;
unicode = 0047;
userData = {
KernOnName = G;
};
},
{
color = 4;
glyphname = H;
lastChange = "2022-07-29 03:42:50 +0000";
layers = (
{
anchors = (
{
name = bottom;
position = "{665, 0}";
},
{
name = center;
position = "{776, 765}";
},
{
name = top;
position = "{906, 1529}";
},
{
name = topleft;
position = "{277, 1529}";
}
);
layerId = "ED69ACE7-BE83-49AD-8DAF-057B7A1FF3CB";
paths = (
{
closed = 1;
nodes = (
"1134 -20 OFFCURVE",
"1253 98 OFFCURVE",
"1298 177 CURVE",
"1288 319 LINE",
"1156 316 LINE",
"1432 1490 LINE",
"1391 1519 OFFCURVE",
"1334 1530 OFFCURVE",
"1274 1530 CURVE SMOOTH",
"1124 1530 OFFCURVE",
"989 1454 OFFCURVE",
"944 1400 CURVE",
"938 1244 OFFCURVE",
"944 1027 OFFCURVE",
"954 844 CURVE",
"870 835 OFFCURVE",
"725 815 OFFCURVE",
"627 800 CURVE",
"432 801 LINE",
"383 652 LINE",
"576 609 LINE {name = hr00;}",
"641 600 OFFCURVE",
"718 593 OFFCURVE",
"911 581 CURVE",
"881 487 OFFCURVE",
"809 281 OFFCURVE",
"809 175 CURVE SMOOTH",
"809 52 OFFCURVE",
"887 -20 OFFCURVE",
"1006 -20 CURVE SMOOTH"
);
},
{
closed = 1;
nodes = (
"442 -20 OFFCURVE",
"496 -9 OFFCURVE",
"542 19 CURVE",
"564 207 OFFCURVE",
"582 440 OFFCURVE",
"578 607 CURVE",
"801 1489 LINE",
"760 1518 OFFCURVE",
"705 1529 OFFCURVE",
"646 1529 CURVE SMOOTH",
"505 1529 OFFCURVE",
"364 1459 OFFCURVE",
"315 1399 CURVE",
"315 1307 OFFCURVE",
"301 868 OFFCURVE",
"333 656 CURVE",
"262 515 OFFCURVE",
"182 261 OFFCURVE",
"138 62 CURVE",
"180 12 OFFCURVE",
"259 -20 OFFCURVE",
"373 -20 CURVE SMOOTH"
);
}
);
userData = {
com.typemytype.robofont.guides = (
{
angle = 0;
isGlobal = 0;
x = 0;
y = 1696;
},
{
angle = 90;
isGlobal = 0;
x = 653;
y = 0;
}
);
};
width = 1293;
}
);
leftKerningGroup = KO_H;
rightKerningGroup = KO_H;
unicode = 0048;
userData = {
KernOnName = H;
};
},
{
glyphname = Hbar;
layers = (
{
components = (
{
name = H;
}
);
layerId = "ED69ACE7-BE83-49AD-8DAF-057B7A1FF3CB";
paths = (
{
closed = 1;
nodes = (
"345 981 OFFCURVE",
"1239 1003 OFFCURVE",
"1309 1009 CURVE",
"1354 1097 OFFCURVE",
"1376 1204 OFFCURVE",
"1328 1280 CURVE",
"296 1198 LINE",
"17 1148 LINE",
"-2 1083 OFFCURVE",
"7 1058 OFFCURVE",
"31 993 CURVE {name = hr00;}"
);
}
);
width = 1348;
}
);
rightKerningGroup = KO_Hbar;
unicode = 0126;
},
{
color = 4;
glyphname = I;
lastChange = "2022-07-29 03:42:50 +0000";
layers = (
{
anchors = (
{
name = bottom;
position = "{323, 0}";
},
{
name = ogonek;
position = "{583, 10}";
},
{
name = top;
position = "{539, 1529}";
},
{
name = topleft;
position = "{227, 1529}";
}
);
layerId = "ED69ACE7-BE83-49AD-8DAF-057B7A1FF3CB";
paths = (
{
closed = 1;
nodes = (
"442 -20 OFFCURVE",
"498 -10 OFFCURVE",
"543 19 CURVE",
"559 205 OFFCURVE",
"564 415 OFFCURVE",
"553 583 CURVE",
"752 1489 LINE",
"709 1518 OFFCURVE",
"657 1529 OFFCURVE",
"596 1529 CURVE SMOOTH",
"452 1529 OFFCURVE",
"315 1457 OFFCURVE",
"271 1399 CURVE",
"276 1184 OFFCURVE",
"274 868 OFFCURVE",
"312 656 CURVE {name = hr00;}",
"245 513 OFFCURVE",
"175 255 OFFCURVE",
"138 62 CURVE",
"182 12 OFFCURVE",
"261 -20 OFFCURVE",
"376 -20 CURVE SMOOTH"
);
}
);
width = 646;
}
);
leftKerningGroup = KO_H;
rightKerningGroup = KO_I;
unicode = 0049;
userData = {
KernOnName = I;
};
},
{
color = 4;
glyphname = Istroke;
lastChange = "2022-07-29 03:42:50 +0000";
layers = (
{
anchors = (
{
name = bottom;
position = "{323, 0}";
},
{
name = ogonek;
position = "{583, 10}";
},
{
name = top;
position = "{531, 1529}";
},
{
name = topleft;
position = "{227, 1529}";
}
);
layerId = "ED69ACE7-BE83-49AD-8DAF-057B7A1FF3CB";
paths = (
{
closed = 1;
nodes = (
"439 637 OFFCURVE",
"677 649 OFFCURVE",
"746 655 CURVE",
"797 718 OFFCURVE",
"827 845 OFFCURVE",
"798 922 CURVE",
"405 884 LINE",
"146 834 LINE",
"122 763 OFFCURVE",
"122 709 OFFCURVE",
"136 649 CURVE"
);
},
{
closed = 1;
nodes = (
"445 -20 OFFCURVE",
"499 -9 OFFCURVE",
"544 19 CURVE",
"560 208 OFFCURVE",
"557 420 OFFCURVE",
"575 752 CURVE",
"751 1489 LINE",
"708 1518 OFFCURVE",
"658 1529 OFFCURVE",
"596 1529 CURVE SMOOTH",
"451 1529 OFFCURVE",
"313 1456 OFFCURVE",
"270 1399 CURVE",
"276 1189 OFFCURVE",
"287 917 OFFCURVE",
"327 700 CURVE {name = hr00;}",
"260 557 OFFCURVE",
"174 257 OFFCURVE",
"138 62 CURVE",
"182 12 OFFCURVE",
"262 -20 OFFCURVE",
"377 -20 CURVE SMOOTH"
);
}
);
width = 646;
}
);
rightKerningGroup = KO_Istroke;
unicode = 0197;
},
{
color = 4;
glyphname = J;
lastChange = "2022-07-29 03:42:50 +0000";
layers = (
{
anchors = (
{
name = bottom;
position = "{485, 0}";
},
{
name = top;
position = "{693, 1529}";
}
);
layerId = "ED69ACE7-BE83-49AD-8DAF-057B7A1FF3CB";
paths = (
{
closed = 1;
nodes = (
"465 -160 OFFCURVE",
"481 -159 OFFCURVE",
"494 -157 CURVE",
"672 -97 OFFCURVE",
"815 50 OFFCURVE",
"879 216 CURVE",
"805 818 LINE",
"922 1191 LINE",
"589 1164 LINE {name = hr01;}",
"527 726 LINE",
"501 79 LINE",
"459 95 OFFCURVE",
"285 216 OFFCURVE",
"186 276 CURVE",
"125 232 OFFCURVE",
"45 54 OFFCURVE",
"42 -26 CURVE SMOOTH",
"42 -26 OFFCURVE",
"42 -35 OFFCURVE",
"42 -40 CURVE",
"81 -98 OFFCURVE",
"289 -160 OFFCURVE",
"450 -160 CURVE SMOOTH"
);
},
{
closed = 1;
nodes = (
"433 960 LINE",
"462 1176 LINE",
"639 1153 LINE",
"916 1153 LINE",
"931 1139 OFFCURVE",
"966 1133 OFFCURVE",
"999 1133 CURVE SMOOTH",
"1031 1133 OFFCURVE",
"1064 1139 OFFCURVE",
"1084 1150 CURVE",
"1101 1183 OFFCURVE",
"1117 1244 OFFCURVE",
"1117 1311 CURVE SMOOTH",
"1117 1409 OFFCURVE",
"1086 1504 OFFCURVE",
"1032 1549 CURVE",
"934 1545 OFFCURVE",
"844 1451 OFFCURVE",
"798 1395 CURVE",
"719 1454 OFFCURVE",
"535 1529 OFFCURVE",
"428 1529 CURVE SMOOTH",
"282 1529 OFFCURVE",
"178 1402 OFFCURVE",
"178 1228 CURVE SMOOTH {name = hr02;}",
"178 1107 OFFCURVE",
"224 979 OFFCURVE",
"268 924 CURVE"
);
}
);
width = 969;
}
);
leftKerningGroup = KO_J;
rightKerningGroup = KO_J;
unicode = 004A;
userData = {
KernOnName = J;
};
},
{
color = 4;
glyphname = K;
lastChange = "2022-07-29 03:42:50 +0000";
layers = (
{
anchors = (
{
name = bottom;
position = "{642, 0}";
},
{
name = top;
position = "{850, 1529}";
}
);
layerId = "ED69ACE7-BE83-49AD-8DAF-057B7A1FF3CB";
paths = (
{
closed = 1;
nodes = (
"438 -20 OFFCURVE",
"505 -11 OFFCURVE",
"553 19 CURVE",
"568 204 OFFCURVE",
"565 413 OFFCURVE",
"553 583 CURVE",
"752 1489 LINE",
"709 1518 OFFCURVE",
"657 1529 OFFCURVE",
"596 1529 CURVE SMOOTH",
"452 1529 OFFCURVE",
"315 1457 OFFCURVE",
"271 1399 CURVE",
"276 1184 OFFCURVE",
"274 868 OFFCURVE",
"312 656 CURVE",
"245 513 OFFCURVE",
"165 256 OFFCURVE",
"128 62 CURVE {name = hr02;}",
"173 12 OFFCURVE",
"261 -20 OFFCURVE",
"376 -20 CURVE SMOOTH"
);
},
{
closed = 1;
nodes = (
"910 691 LINE",
"818 681 OFFCURVE",
"606 663 OFFCURVE",
"518 647 CURVE",
"486 489 LINE",
"545 477 OFFCURVE",
"724 463 OFFCURVE",
"831 456 CURVE",
"966 454 LINE"
);
},
{
closed = 1;
nodes = (
"1090 -19 OFFCURVE",
"1154 9 OFFCURVE",
"1202 68 CURVE SMOOTH",
"1255 134 OFFCURVE",
"1317 245 OFFCURVE",
"1332 350 CURVE",
"1232 452 LINE",
"1185 416 OFFCURVE",
"1135 382 OFFCURVE",
"1089 366 CURVE",
"1026 439 OFFCURVE",
"968 596 OFFCURVE",
"937 680 CURVE",
"744 532 LINE",
"744 484 OFFCURVE",
"744 313 OFFCURVE",
"770 199 CURVE SMOOTH",
"790 113 OFFCURVE",
"827 27 OFFCURVE",
"901 2 CURVE SMOOTH",
"941 -12 OFFCURVE",
"983 -19 OFFCURVE",
"1017 -19 CURVE SMOOTH"
);
},
{
closed = 1;
nodes = (
"875 571 OFFCURVE",
"1307 1079 OFFCURVE",
"1378 1372 CURVE",
"1295 1504 OFFCURVE",
"1109 1549 OFFCURVE",
"1027 1549 CURVE {name = hr01;}",
"928 1505 OFFCURVE",
"855 1375 OFFCURVE",
"820 1233 CURVE",
"950 1183 LINE",
"899 1038 OFFCURVE",
"708 712 OFFCURVE",
"624 594 CURVE",
"746 544 LINE",
"767 472 LINE"
);
}
);
width = 1284;
}
);
leftKerningGroup = KO_K;
rightKerningGroup = KO_K;
unicode = 004B;
userData = {
KernOnName = K;
};
},
{
color = 4;
glyphname = L;
lastChange = "2022-07-29 03:42:50 +0000";
layers = (
{
anchors = (
{
name = bottom;
position = "{530, 0}";
},
{
name = center;
position = "{632, 765}";
},
{
name = top;
position = "{736, 1529}";
},
{
name = topright;
position = "{889, 1182}";
}
);
layerId = "ED69ACE7-BE83-49AD-8DAF-057B7A1FF3CB";
paths = (
{
closed = 1;
nodes = (
"336 -13 OFFCURVE",
"421 60 OFFCURVE",
"484 150 CURVE",
"568 72 OFFCURVE",
"690 -20 OFFCURVE",
"808 -20 CURVE SMOOTH",
"996 -20 OFFCURVE",
"1114 191 OFFCURVE",
"1114 528 CURVE SMOOTH",
"1114 565 OFFCURVE",
"1112 602 OFFCURVE",
"1106 625 CURVE",
"931 649 LINE",
"799 360 LINE",
"561 408 LINE",
"314 437 LINE",
"306 437 OFFCURVE",
"277 437 OFFCURVE",
"269 437 CURVE SMOOTH",
"236 437 OFFCURVE",
"200 433 OFFCURVE",
"172 423 CURVE",
"69 299 LINE {name = hr00;}",
"62 186 OFFCURVE",
"146 20 OFFCURVE",
"222 -20 CURVE"
);
},
{
closed = 1;
nodes = (
"797 1489 LINE",
"755 1518 OFFCURVE",
"706 1529 OFFCURVE",
"646 1529 CURVE SMOOTH",
"502 1529 OFFCURVE",
"364 1456 OFFCURVE",
"320 1399 CURVE",
"327 1189 OFFCURVE",
"281 871 OFFCURVE",
"303 373 CURVE",
"531 332 LINE"
);
}
);
userData = {
com.typemytype.robofont.guides = (
{
angle = 90;
isGlobal = 0;
x = 406;
y = 0;
}
);
};
width = 1083;
}
);
leftKerningGroup = KO_L;
rightKerningGroup = KO_L;
unicode = 004C;
userData = {
KernOnName = L;
};
},
{
glyphname = Lslash;
lastChange = "2022-05-20 05:00:42 +0000";
layers = (
{
anchors = (
{
name = bottom;
position = "{571, 0}";
},
{
name = center;
position = "{571, 765}";
},
{
name = top;
position = "{571, 1529}";
},
{
name = topright;
position = "{780, 1529}";
}
);
layerId = "ED69ACE7-BE83-49AD-8DAF-057B7A1FF3CB";
paths = (
{
closed = 1;
nodes = (
"374 -13 OFFCURVE",
"452 61 OFFCURVE",
"504 150 CURVE",
"602 72 OFFCURVE",
"739 -20 OFFCURVE",
"862 -20 CURVE SMOOTH",
"1064 -20 OFFCURVE",
"1111 181 OFFCURVE",
"1111 369 CURVE SMOOTH",
"1111 476 OFFCURVE",
"1096 579 OFFCURVE",
"1079 625 CURVE",
"895 649 LINE",
"800 360 LINE",
"547 408 LINE",
"288 437 LINE",
"279 437 OFFCURVE",
"250 437 OFFCURVE",
"241 437 CURVE SMOOTH",
"207 437 OFFCURVE",
"171 433 OFFCURVE",
"144 423 CURVE",
"55 299 LINE {name = hr00;}",
"64 186 OFFCURVE",
"174 20 OFFCURVE",
"258 -20 CURVE"
);
},
{
closed = 1;
nodes = (
"891 866 LINE",
"906 958 OFFCURVE",
"899 1083 OFFCURVE",
"851 1112 CURVE",
"61 713 LINE {name = hr00;}",
"67 651 OFFCURVE",
"92 566 OFFCURVE",
"135 542 CURVE"
);
},
{
closed = 1;
nodes = (
"639 1489 LINE",
"591 1518 OFFCURVE",
"541 1529 OFFCURVE",
"478 1529 CURVE SMOOTH",
"329 1529 OFFCURVE",
"197 1456 OFFCURVE",
"160 1399 CURVE",
"196 1189 OFFCURVE",
"194 871 OFFCURVE",
"285 373 CURVE",
"527 332 LINE"
);
}
);
width = 1142;
}
);
leftKerningGroup = KO_Lslash;
rightKerningGroup = KO_Lslash;
unicode = 0141;
},
{
color = 4;
glyphname = M;
lastChange = "2022-07-29 03:42:50 +0000";
layers = (
{
anchors = (
{
name = bottom;
position = "{899, -20}";
},
{
name = top;
position = "{1110, 1529}";
}
);
layerId = "ED69ACE7-BE83-49AD-8DAF-057B7A1FF3CB";
paths = (
{
closed = 1;
nodes = (
"469 -20 OFFCURVE",
"545 103 OFFCURVE",
"563 248 CURVE",
"593 507 OFFCURVE",
"593 1068 OFFCURVE",
"586 1168 CURVE",
"605 1175 LINE",
"764 286 LINE",
"725 235 OFFCURVE",
"700 104 OFFCURVE",
"695 62 CURVE {name = hr02;}",
"748 10 OFFCURVE",
"846 -19 OFFCURVE",
"938 -19 CURVE SMOOTH",
"1009 -19 OFFCURVE",
"1083 -3 OFFCURVE",
"1138 35 CURVE",
"1134 143 OFFCURVE",
"1134 231 OFFCURVE",
"1105 323 CURVE",
"1408 1174 LINE",
"1427 1171 LINE",
"1384 916 OFFCURVE",
"1327 396 OFFCURVE",
"1320 193 CURVE SMOOTH",
"1320 187 OFFCURVE",
"1319 175 OFFCURVE",
"1319 175 CURVE SMOOTH",
"1318 45 OFFCURVE",
"1411 -20 OFFCURVE",
"1525 -20 CURVE SMOOTH {name = hr03;}",
"1691 -20 OFFCURVE",
"1772 136 OFFCURVE",
"1797 168 CURVE",
"1789 334 LINE",
"1604 307 LINE",
"1714 645 OFFCURVE",
"1796 1121 OFFCURVE",
"1827 1299 CURVE",
"1757 1391 OFFCURVE",
"1483 1534 OFFCURVE",
"1381 1549 CURVE",
"1243 1496 OFFCURVE",
"1159 1365 OFFCURVE",
"1132 1247 CURVE",
"1153 1233 OFFCURVE",
"1174 1222 OFFCURVE",
"1220 1200 CURVE",
"1191 1110 OFFCURVE",
"1142 955 OFFCURVE",
"1087 777 CURVE",
"1032 557 LINE",
"1024 556 LINE",
"965 1346 LINE",
"845 1452 OFFCURVE",
"570 1537 OFFCURVE",
"482 1549 CURVE",
"341 1480 OFFCURVE",
"284 1354 OFFCURVE",
"257 1226 CURVE",
"414 1175 LINE",
"229 305 LINE",
"175 9 LINE {name = hr01;}",
"210 -9 OFFCURVE",
"251 -20 OFFCURVE",
"302 -20 CURVE SMOOTH"
);
},
{
closed = 1;
nodes = (
"395 -22 OFFCURVE",
"465 40 OFFCURVE",
"515 133 CURVE SMOOTH",
"574 242 OFFCURVE",
"491 294 OFFCURVE",
"526 426 CURVE",
"255 294 LINE",
"121 305 LINE",
"55 142 LINE",
"79 44 OFFCURVE",
"175 -18 OFFCURVE",
"283 -20 CURVE SMOOTH"
);
}
);
width = 1803;
}
);
leftKerningGroup = KO_M;
rightKerningGroup = KO_M;
unicode = 004D;
userData = {
KernOnName = M;
};
},
{
color = 4;
glyphname = N;
lastChange = "2022-07-29 03:42:50 +0000";
layers = (
{
anchors = (
{
name = bottom;
position = "{665, 0}";
},
{
name = top;
position = "{873, 1529}";
}
);
layerId = "ED69ACE7-BE83-49AD-8DAF-057B7A1FF3CB";
paths = (
{
closed = 1;
nodes = (
"1129 -21 OFFCURVE",
"1238 24 OFFCURVE",
"1295 131 CURVE",
"1291 228 OFFCURVE",
"1262 282 OFFCURVE",
"1219 348 CURVE",
"1457 1486 LINE",
"1421 1514 OFFCURVE",
"1351 1529 OFFCURVE",
"1300 1529 CURVE SMOOTH",
"1198 1529 OFFCURVE",
"1082 1483 OFFCURVE",
"1050 1430 CURVE",
"1030 1280 OFFCURVE",
"1049 674 OFFCURVE",
"1057 395 CURVE",
"1052 391 LINE",
"811 1385 LINE {name = hr01;}",
"681 1491 OFFCURVE",
"482 1537 OFFCURVE",
"392 1549 CURVE",
"251 1477 OFFCURVE",
"210 1346 OFFCURVE",
"194 1226 CURVE",
"239 1194 OFFCURVE",
"299 1179 OFFCURVE",
"355 1175 CURVE",
"243 296 LINE",
"137 305 LINE",
"84 142 LINE",
"115 47 OFFCURVE",
"213 -20 OFFCURVE",
"333 -20 CURVE SMOOTH",
"480 -20 OFFCURVE",
"552 78 OFFCURVE",
"568 199 CURVE SMOOTH",
"572 226 OFFCURVE",
"574 258 OFFCURVE",
"574 300 CURVE SMOOTH",
"574 582 OFFCURVE",
"513 1075 OFFCURVE",
"500 1168 CURVE",
"504 1170 LINE",
"803 245 LINE",
"779 205 OFFCURVE",
"756 116 OFFCURVE",
"754 60 CURVE SMOOTH",
"754 60 OFFCURVE",
"754 52 OFFCURVE",
"754 49 CURVE {name = hr02;}",
"804 2 OFFCURVE",
"928 -21 OFFCURVE",
"1015 -21 CURVE SMOOTH"
);
}
);
userData = {
com.typemytype.robofont.guides = (
{
angle = 0;
isGlobal = 0;
x = 0;
y = -21;
},
{
angle = 0;
isGlobal = 0;
x = 0;
y = 1204;
},
{
angle = 90;
isGlobal = 0;
x = 1322;
y = 0;
},
{
angle = 90;
isGlobal = 0;
x = 698;
y = 0;
}
);
};
width = 1330;
}
);
leftKerningGroup = KO_N;
rightKerningGroup = KO_N;
unicode = 004E;
userData = {
KernOnName = N;
};
},
{
color = 4;
glyphname = Eng;
lastChange = "2022-07-29 03:42:50 +0000";
layers = (
{
layerId = "ED69ACE7-BE83-49AD-8DAF-057B7A1FF3CB";
paths = (
{
closed = 1;
nodes = (
"1098 -21 OFFCURVE",
"1176 2 OFFCURVE",
"1235 55 CURVE",
"1223 348 LINE",
"1455 1486 LINE",
"1419 1514 OFFCURVE",
"1351 1529 OFFCURVE",
"1300 1529 CURVE SMOOTH",
"1198 1529 OFFCURVE",
"1082 1483 OFFCURVE",
"1050 1430 CURVE",
"1030 1280 OFFCURVE",
"1034 563 OFFCURVE",
"1041 305 CURVE",
"1037 301 LINE",
"811 1385 LINE {name = hr01;}",
"681 1491 OFFCURVE",
"482 1537 OFFCURVE",
"392 1549 CURVE",
"251 1477 OFFCURVE",
"210 1346 OFFCURVE",
"194 1226 CURVE",
"239 1194 OFFCURVE",
"299 1179 OFFCURVE",
"355 1175 CURVE",
"243 296 LINE",
"137 305 LINE",
"84 142 LINE",
"115 47 OFFCURVE",
"213 -20 OFFCURVE",
"333 -20 CURVE SMOOTH",
"480 -20 OFFCURVE",
"552 78 OFFCURVE",
"568 199 CURVE SMOOTH",
"572 226 OFFCURVE",
"574 258 OFFCURVE",
"574 300 CURVE SMOOTH",
"574 582 OFFCURVE",
"513 1075 OFFCURVE",
"500 1168 CURVE",
"504 1170 LINE",
"803 245 LINE",
"879 -5 LINE {name = hr02;}",
"923 -15 OFFCURVE",
"975 -21 OFFCURVE",
"1015 -21 CURVE SMOOTH"
);
},
{
closed = 1;
nodes = (
"831 -436 OFFCURVE",
"845 -435 OFFCURVE",
"859 -433 CURVE",
"1039 -372 OFFCURVE",
"1180 -226 OFFCURVE",
"1245 -60 CURVE",
"1195 542 LINE",
"1080 507 LINE",
"1053 214 LINE",
"981 477 LINE",
"888 450 LINE",
"875 -132 LINE",
"786 -132 OFFCURVE",
"597 -106 OFFCURVE",
"504 -84 CURVE",
"476 -152 OFFCURVE",
"466 -184 OFFCURVE",
"458 -238 CURVE SMOOTH",
"455 -256 OFFCURVE",
"454 -271 OFFCURVE",
"454 -276 CURVE",
"489 -334 OFFCURVE",
"673 -436 OFFCURVE",
"817 -436 CURVE SMOOTH"
);
}
);
width = 1330;
}
);
leftKerningGroup = KO_N;
unicode = 014A;
},
{
color = 4;
glyphname = Nhookleft;
lastChange = "2022-07-29 03:42:50 +0000";
layers = (
{
anchors = (
{
name = bottom;
position = "{665, 0}";
},
{
name = top;
position = "{872, 1529}";
}
);
layerId = "ED69ACE7-BE83-49AD-8DAF-057B7A1FF3CB";
paths = (
{
closed = 1;
nodes = (
"1421 1514 OFFCURVE",
"1349 1529 OFFCURVE",
"1299 1529 CURVE SMOOTH",
"1197 1529 OFFCURVE",
"1081 1483 OFFCURVE",
"1050 1430 CURVE",
"1029 1282 OFFCURVE",
"1048 658 OFFCURVE",
"1056 395 CURVE",
"1051 391 LINE",
"810 1385 LINE",
"680 1491 OFFCURVE",
"481 1537 OFFCURVE",
"391 1549 CURVE",
"250 1477 OFFCURVE",
"210 1344 OFFCURVE",
"193 1226 CURVE",
"227 1202 OFFCURVE",
"270 1187 OFFCURVE",
"313 1180 CURVE",
"258 471 LINE",
"97 -134 LINE",
"44 -126 OFFCURVE",
"-15 -116 OFFCURVE",
"-50 -113 CURVE",
"-77 -173 OFFCURVE",
"-82 -206 OFFCURVE",
"-87 -281 CURVE",
"-60 -327 OFFCURVE",
"44 -416 OFFCURVE",
"156 -438 CURVE",
"274 -438 OFFCURVE",
"422 -310 OFFCURVE",
"437 -254 CURVE",
"481 -56 OFFCURVE",
"451 293 OFFCURVE",
"444 373 CURVE",
"440 371 LINE",
"447 393 LINE",
"460 428 LINE SMOOTH",
"507 559 OFFCURVE",
"563 775 OFFCURVE",
"595 903 CURVE",
"801 245 LINE",
"778 205 OFFCURVE",
"755 116 OFFCURVE",
"753 61 CURVE SMOOTH",
"753 57 OFFCURVE",
"752 53 OFFCURVE",
"754 49 CURVE",
"804 2 OFFCURVE",
"926 -21 OFFCURVE",
"1014 -21 CURVE SMOOTH",
"1128 -21 OFFCURVE",
"1237 24 OFFCURVE",
"1293 131 CURVE",
"1290 228 OFFCURVE",
"1261 281 OFFCURVE",
"1218 348 CURVE",
"1457 1486 LINE"
);
}
);
width = 1330;
}
);
leftKerningGroup = KO_N;
rightKerningGroup = KO_N;
unicode = 019D;
},
{
color = 4;
glyphname = O;
lastChange = "2022-07-29 03:42:50 +0000";
layers = (
{
anchors = (
{
name = bottom;
position = "{623, 0}";
},
{
name = center;
position = "{728, 765}";
},
{
name = ogonek;
position = "{962, 10}";
},
{
name = top;
position = "{831, 1529}";
},
{
name = topleft;
position = "{224, 1529}";
},
{
name = topright;
position = "{1342, 1529}";
}
);
layerId = "ED69ACE7-BE83-49AD-8DAF-057B7A1FF3CB";
paths = (
{
closed = 1;
nodes = (
"743 -14 OFFCURVE",
"805 9 OFFCURVE",
"905 58 CURVE SMOOTH",
"974 92 OFFCURVE",
"1067 131 OFFCURVE",
"1091 191 CURVE SMOOTH",
"1143 319 OFFCURVE",
"1302 957 OFFCURVE",
"1312 1268 CURVE SMOOTH",
"1313 1286 OFFCURVE",
"1313 1319 OFFCURVE",
"1313 1321 CURVE",
"1237 1436 OFFCURVE",
"912 1549 OFFCURVE",
"816 1549 CURVE SMOOTH {name = hr00;}",
"749 1549 OFFCURVE",
"396 1434 OFFCURVE",
"312 1337 CURVE SMOOTH",
"253 1268 OFFCURVE",
"196 711 OFFCURVE",
"196 205 CURVE SMOOTH",
"196 185 OFFCURVE",
"196 166 OFFCURVE",
"196 147 CURVE",
"272 67 OFFCURVE",
"530 -12 OFFCURVE",
"672 -21 CURVE"
);
},
{
closed = 1;
nodes = (
"674 251 OFFCURVE",
"584 294 OFFCURVE",
"527 331 CURVE",
"533 444 OFFCURVE",
"550 599 OFFCURVE",
"575 787 CURVE SMOOTH",
"596 935 OFFCURVE",
"615 1063 OFFCURVE",
"638 1174 CURVE",
"709 1209 LINE",
"902 1118 LINE",
"897 993 OFFCURVE",
"874 763 OFFCURVE",
"850 589 CURVE SMOOTH",
"831 456 OFFCURVE",
"817 359 OFFCURVE",
"797 280 CURVE",
"732 238 LINE"
);
}
);
userData = {
com.typemytype.robofont.guides = (
{
angle = 90;
isGlobal = 0;
x = 643;
y = 0;
}
);
};
width = 1245;
}
);
leftKerningGroup = KO_O;
rightKerningGroup = KO_O;
unicode = 004F;
userData = {
KernOnName = O;
};
},
{
color = 4;
glyphname = Oopen;
lastChange = "2022-07-29 03:43:44 +0000";
layers = (
{
anchors = (
{
name = bottom;
position = "{326, 0}";
},
{
name = top;
position = "{534, 1529}";
}
);
layerId = "ED69ACE7-BE83-49AD-8DAF-057B7A1FF3CB";
paths = (
{
closed = 1;
nodes = (
"432 -20 OFFCURVE",
"540 49 OFFCURVE",
"604 95 CURVE SMOOTH",
"654 131 OFFCURVE",
"674 162 OFFCURVE",
"682 192 CURVE",
"713 359 OFFCURVE",
"730 452 OFFCURVE",
"762 613 CURVE SMOOTH",
"808 841 OFFCURVE",
"853 1055 OFFCURVE",
"889 1171 CURVE SMOOTH",
"900 1205 OFFCURVE",
"908 1262 OFFCURVE",
"911 1286 CURVE",
"900 1378 OFFCURVE",
"781 1504 OFFCURVE",
"669 1549 CURVE",
"611 1538 OFFCURVE",
"469 1490 OFFCURVE",
"405 1459 CURVE",
"103 1481 LINE",
"15 1224 OFFCURVE",
"114 1037 OFFCURVE",
"164 1010 CURVE",
"257 1048 OFFCURVE",
"351 1103 OFFCURVE",
"461 1192 CURVE {name = hr00;}",
"481 1170 LINE",
"439 986 OFFCURVE",
"409 534 OFFCURVE",
"405 320 CURVE",
"329 332 OFFCURVE",
"172 407 OFFCURVE",
"11 472 CURVE",
"-85 305 LINE",
"-35 188 OFFCURVE",
"138 6 OFFCURVE",
"364 -20 CURVE"
);
}
);
width = 970;
}
);
leftMetricsKey = "=|C";
rightMetricsKey = "=|C";
unicode = 0186;
},
{
glyphname = Oslash;
lastChange = "2022-05-20 02:41:27 +0000";
layers = (
{
anchors = (
{
name = bottom;
position = "{646, 0}";
},
{
name = center;
position = "{646, 765}";
},
{
name = ogonek;
position = "{1162, 10}";
},
{
name = top;
position = "{646, 1529}";
},
{
name = topleft;
position = "{20, 1529}";
},
{
name = topright;
position = "{1173, 1529}";
}
);
layerId = "ED69ACE7-BE83-49AD-8DAF-057B7A1FF3CB";
paths = (
{
closed = 1;
nodes = (
"771 -14 OFFCURVE",
"837 11 OFFCURVE",
"929 58 CURVE SMOOTH",
"991 90 OFFCURVE",
"1086 132 OFFCURVE",
"1101 190 CURVE SMOOTH",
"1139 325 OFFCURVE",
"1189 841 OFFCURVE",
"1189 1060 CURVE SMOOTH",
"1189 1183 OFFCURVE",
"1182 1240 OFFCURVE",
"1173 1321 CURVE",
"1078 1436 OFFCURVE",
"726 1549 OFFCURVE",
"628 1549 CURVE SMOOTH {name = hr00;}",
"559 1549 OFFCURVE",
"213 1435 OFFCURVE",
"138 1337 CURVE SMOOTH",
"101 1288 OFFCURVE",
"102 1154 OFFCURVE",
"102 1081 CURVE SMOOTH",
"102 879 OFFCURVE",
"148 386 OFFCURVE",
"185 147 CURVE",
"274 67 OFFCURVE",
"551 -12 OFFCURVE",
"699 -21 CURVE"
);
},
{
closed = 1;
nodes = (
"556 150 LINE",
"375 346 LINE",
"178 -190 LINE",
"227 -271 OFFCURVE",
"304 -253 OFFCURVE",
"383 -257 CURVE"
);
},
{
closed = 1;
nodes = (
"655 253 OFFCURVE",
"555 299 OFFCURVE",
"500 331 CURVE",
"490 444 OFFCURVE",
"486 612 OFFCURVE",
"486 786 CURVE SMOOTH",
"486 935 OFFCURVE",
"490 1085 OFFCURVE",
"497 1174 CURVE",
"566 1209 LINE",
"777 1118 LINE",
"789 991 OFFCURVE",
"797 782 OFFCURVE",
"797 586 CURVE SMOOTH",
"797 466 OFFCURVE",
"794 354 OFFCURVE",
"786 280 CURVE",
"725 238 LINE"
);
},
{
closed = 1;
nodes = (
"1187 1655 LINE",
"1137 1757 OFFCURVE",
"1079 1789 OFFCURVE",
"980 1817 CURVE",
"766 1358 LINE",
"931 1159 LINE {name = hr00;}"
);
}
);
width = 1297;
}
);
leftKerningGroup = KO_Q;
rightKerningGroup = KO_Oslash;
unicode = 00D8;
},
{
color = 4;
glyphname = OE;
lastChange = "2022-07-29 03:42:50 +0000";
layers = (
{
layerId = "ED69ACE7-BE83-49AD-8DAF-057B7A1FF3CB";
paths = (
{
closed = 1;
nodes = (
"751 -14 OFFCURVE",
"813 9 OFFCURVE",
"914 58 CURVE SMOOTH",
"978 89 OFFCURVE",
"1068 132 OFFCURVE",
"1091 189 CURVE SMOOTH",
"1147 325 OFFCURVE",
"1303 962 OFFCURVE",
"1313 1268 CURVE SMOOTH",
"1314 1286 OFFCURVE",
"1314 1319 OFFCURVE",
"1314 1321 CURVE",
"1237 1436 OFFCURVE",
"920 1549 OFFCURVE",
"823 1549 CURVE SMOOTH",
"756 1549 OFFCURVE",
"395 1436 OFFCURVE",
"310 1335 CURVE SMOOTH",
"252 1266 OFFCURVE",
"188 661 OFFCURVE",
"188 194 CURVE SMOOTH",
"188 177 OFFCURVE",
"188 161 OFFCURVE",
"188 147 CURVE",
"264 67 OFFCURVE",
"537 -12 OFFCURVE",
"680 -21 CURVE {name = hr02;}"
);
},
{
closed = 1;
nodes = (
"740 238 LINE",
"669 254 OFFCURVE",
"576 302 OFFCURVE",
"532 331 CURVE",
"536 444 OFFCURVE",
"553 592 OFFCURVE",
"579 788 CURVE SMOOTH",
"598 931 OFFCURVE",
"622 1078 OFFCURVE",
"643 1174 CURVE",
"717 1209 LINE",
"912 1118 LINE",
"907 994 OFFCURVE",
"884 765 OFFCURVE",
"859 588 CURVE SMOOTH",
"843 465 OFFCURVE",
"815 294 OFFCURVE",
"798 228 CURVE"
);
},
{
closed = 1;
nodes = (
"1618 -19 OFFCURVE",
"1720 111 OFFCURVE",
"1720 345 CURVE SMOOTH",
"1720 395 OFFCURVE",
"1715 442 OFFCURVE",
"1707 475 CURVE",
"1535 490 LINE",
"1430 300 LINE",
"1100 322 LINE",
"836 272 LINE",
"835 197 OFFCURVE",
"813 163 OFFCURVE",
"853 104 CURVE",
"1036 25 OFFCURVE",
"1230 -19 OFFCURVE",
"1434 -19 CURVE SMOOTH"
);
},
{
closed = 1;
nodes = (
"1586 581 OFFCURVE",
"1605 582 OFFCURVE",
"1626 584 CURVE",
"1659 616 OFFCURVE",
"1704 733 OFFCURVE",
"1704 828 CURVE SMOOTH",
"1704 857 OFFCURVE",
"1700 895 OFFCURVE",
"1683 930 CURVE",
"1539 900 OFFCURVE",
"1427 876 OFFCURVE",
"1238 854 CURVE",
"1213 654 LINE {name = hr01;}",
"1306 601 OFFCURVE",
"1450 581 OFFCURVE",
"1567 581 CURVE SMOOTH"
);
},
{
closed = 1;
nodes = (
"1762 1135 OFFCURVE",
"1821 1264 OFFCURVE",
"1821 1388 CURVE SMOOTH",
"1821 1459 OFFCURVE",
"1800 1519 OFFCURVE",
"1754 1549 CURVE",
"1383 1455 LINE",
"921 1366 LINE",
"1280 1168 LINE",
"1441 1119 OFFCURVE",
"1572 1088 OFFCURVE",
"1678 1075 CURVE"
);
}
);
width = 1743;
}
);
rightKerningGroup = KO_OE;
unicode = 0152;
},
{
color = 4;
glyphname = P;
lastChange = "2022-07-29 03:42:50 +0000";
layers = (
{
anchors = (
{
name = bottom;
position = "{613, 0}";
},
{
name = top;
position = "{821, 1529}";
}
);
layerId = "ED69ACE7-BE83-49AD-8DAF-057B7A1FF3CB";
paths = (
{
closed = 1;
nodes = (
"960 392 OFFCURVE",
"1111 520 OFFCURVE",
"1159 570 CURVE",
"1274 803 OFFCURVE",
"1360 1187 OFFCURVE",
"1373 1404 CURVE",
"1271 1506 OFFCURVE",
"1118 1549 OFFCURVE",
"1046 1548 CURVE SMOOTH",
"989 1547 OFFCURVE",
"938 1537 OFFCURVE",
"917 1531 CURVE",
"420 699 LINE",
"498 663 LINE",
"492 642 OFFCURVE",
"480 487 OFFCURVE",
"480 487 CURVE",
"489 486 LINE",
"481 479 LINE",
"574 438 OFFCURVE",
"805 390 OFFCURVE",
"883 391 CURVE"
);
},
{
closed = 1;
nodes = (
"544 -21 OFFCURVE",
"700 68 OFFCURVE",
"748 145 CURVE",
"737 269 LINE",
"538 282 LINE",
"525 522 LINE",
"282 496 LINE",
"255 431 OFFCURVE",
"205 155 OFFCURVE",
"205 128 CURVE SMOOTH",
"205 56 OFFCURVE",
"275 -21 OFFCURVE",
"391 -21 CURVE SMOOTH"
);
},
{
closed = 1;
nodes = (
"552 594 OFFCURVE",
"528 749 OFFCURVE",
"629 988 CURVE",
"581 969 LINE",
"556 983 LINE",
"715 1480 LINE",
"669 1515 OFFCURVE",
"614 1530 OFFCURVE",
"557 1529 CURVE SMOOTH",
"453 1527 OFFCURVE",
"342 1473 OFFCURVE",
"275 1393 CURVE",
"261 1354 OFFCURVE",
"240 602 OFFCURVE",
"278 488 CURVE",
"498 344 LINE {name = hr00;}"
);
},
{
closed = 1;
nodes = (
"828 543 OFFCURVE",
"637 674 OFFCURVE",
"584 695 CURVE",
"640 791 OFFCURVE",
"823 1034 OFFCURVE",
"914 1151 CURVE",
"957 1143 LINE",
"953 980 OFFCURVE",
"905 791 OFFCURVE",
"858 640 CURVE SMOOTH"
);
}
);
width = 1226;
}
);
leftKerningGroup = KO_P;
rightKerningGroup = KO_P;
unicode = 0050;
userData = {
KernOnName = P;
};
},
{
color = 4;
glyphname = Thorn;
lastChange = "2022-07-29 03:42:50 +0000";
layers = (
{
layerId = "ED69ACE7-BE83-49AD-8DAF-057B7A1FF3CB";
paths = (
{
closed = 1;
nodes = (
"1247 1337 OFFCURVE",
"1096 1380 OFFCURVE",
"1022 1379 CURVE SMOOTH",
"967 1378 OFFCURVE",
"915 1368 OFFCURVE",
"894 1362 CURVE",
"629 991 LINE",
"592 1003 LINE",
"716 1480 LINE",
"665 1516 OFFCURVE",
"611 1529 OFFCURVE",
"557 1529 CURVE SMOOTH",
"456 1529 OFFCURVE",
"342 1473 OFFCURVE",
"275 1393 CURVE",
"261 1356 OFFCURVE",
"243 670 OFFCURVE",
"275 508 CURVE",
"227 371 OFFCURVE",
"185 212 OFFCURVE",
"157 62 CURVE",
"202 12 OFFCURVE",
"280 -20 OFFCURVE",
"396 -20 CURVE SMOOTH",
"462 -20 OFFCURVE",
"517 -10 OFFCURVE",
"563 19 CURVE",
"571 122 OFFCURVE",
"566 236 OFFCURVE",
"559 365 CURVE",
"666 304 OFFCURVE",
"801 221 OFFCURVE",
"860 222 CURVE SMOOTH",
"938 223 OFFCURVE",
"1091 352 OFFCURVE",
"1138 401 CURVE",
"1249 630 OFFCURVE",
"1337 1015 OFFCURVE",
"1350 1235 CURVE"
);
},
{
closed = 1;
nodes = (
"757 540 OFFCURVE",
"629 660 OFFCURVE",
"587 714 CURVE",
"668 814 OFFCURVE",
"828 943 OFFCURVE",
"893 1000 CURVE",
"937 992 LINE",
"932 828 OFFCURVE",
"885 642 OFFCURVE",
"838 487 CURVE"
);
}
);
width = 1226;
}
);
leftKerningGroup = KO_R;
rightKerningGroup = KO_Thorn;
unicode = 00DE;
},
{
color = 4;
glyphname = Q;
lastChange = "2022-07-29 03:42:50 +0000";
layers = (
{
layerId = "ED69ACE7-BE83-49AD-8DAF-057B7A1FF3CB";
paths = (
{
closed = 1;
nodes = (
"756 23 OFFCURVE",
"814 11 OFFCURVE",
"909 58 CURVE SMOOTH",
"968 87 OFFCURVE",
"1071 132 OFFCURVE",
"1094 190 CURVE SMOOTH",
"1150 331 OFFCURVE",
"1306 967 OFFCURVE",
"1316 1269 CURVE SMOOTH",
"1317 1286 OFFCURVE",
"1316 1319 OFFCURVE",
"1316 1321 CURVE",
"1241 1436 OFFCURVE",
"913 1549 OFFCURVE",
"819 1549 CURVE SMOOTH",
"753 1549 OFFCURVE",
"399 1434 OFFCURVE",
"315 1337 CURVE SMOOTH",
"256 1269 OFFCURVE",
"199 714 OFFCURVE",
"199 197 CURVE SMOOTH",
"199 179 OFFCURVE",
"199 163 OFFCURVE",
"199 147 CURVE",
"275 67 OFFCURVE",
"545 25 OFFCURVE",
"688 16 CURVE"
);
},
{
closed = 1;
nodes = (
"960 -442 OFFCURVE",
"970 -436 OFFCURVE",
"978 -424 CURVE",
"1065 -367 OFFCURVE",
"1156 -176 OFFCURVE",
"1132 -76 CURVE",
"1024 -90 OFFCURVE",
"760 -111 OFFCURVE",
"592 -123 CURVE",
"592 -94 LINE",
"596 -82 OFFCURVE",
"872 23 OFFCURVE",
"991 99 CURVE",
"934 273 LINE {name = hr00;}",
"399 -69 LINE",
"352 -20 LINE",
"306 -27 OFFCURVE",
"265 -45 OFFCURVE",
"205 -77 CURVE",
"179 -213 OFFCURVE",
"209 -357 OFFCURVE",
"287 -410 CURVE",
"357 -405 OFFCURVE",
"410 -367 OFFCURVE",
"454 -318 CURVE",
"619 -386 OFFCURVE",
"852 -434 OFFCURVE",
"949 -446 CURVE"
);
},
{
closed = 1;
nodes = (
"677 251 OFFCURVE",
"587 294 OFFCURVE",
"530 331 CURVE",
"535 444 OFFCURVE",
"554 612 OFFCURVE",
"578 787 CURVE SMOOTH",
"598 935 OFFCURVE",
"622 1079 OFFCURVE",
"641 1174 CURVE",
"713 1209 LINE",
"905 1118 LINE",
"900 994 OFFCURVE",
"879 777 OFFCURVE",
"853 587 CURVE SMOOTH",
"835 462 OFFCURVE",
"820 360 OFFCURVE",
"800 280 CURVE",
"736 238 LINE"
);
}
);
width = 1252;
}
);
leftKerningGroup = KO_Q;
rightKerningGroup = KO_Q;
unicode = 0051;
},
{
color = 4;
glyphname = R;
lastChange = "2022-07-29 03:42:50 +0000";
layers = (
{
anchors = (
{
name = bottom;
position = "{662, 0}";
},
{
name = top;
position = "{868, 1529}";
}
);
layerId = "ED69ACE7-BE83-49AD-8DAF-057B7A1FF3CB";
paths = (
{
closed = 1;
nodes = (
"441 -19 OFFCURVE",
"501 -4 OFFCURVE",
"550 27 CURVE",
"556 158 OFFCURVE",
"552 403 OFFCURVE",
"526 501 CURVE",
"782 465 LINE",
"777 344 OFFCURVE",
"771 53 OFFCURVE",
"920 2 CURVE SMOOTH",
"962 -13 OFFCURVE",
"998 -20 OFFCURVE",
"1035 -20 CURVE SMOOTH",
"1108 -20 OFFCURVE",
"1173 9 OFFCURVE",
"1222 69 CURVE SMOOTH",
"1277 134 OFFCURVE",
"1343 245 OFFCURVE",
"1362 350 CURVE",
"1264 452 LINE",
"1213 414 OFFCURVE",
"1166 382 OFFCURVE",
"1119 366 CURVE",
"1074 422 OFFCURVE",
"1045 486 OFFCURVE",
"1017 558 CURVE",
"1083 610 OFFCURVE",
"1139 663 OFFCURVE",
"1187 723 CURVE",
"1286 954 OFFCURVE",
"1350 1219 OFFCURVE",
"1373 1404 CURVE",
"1272 1505 OFFCURVE",
"1118 1549 OFFCURVE",
"1046 1548 CURVE SMOOTH",
"988 1547 OFFCURVE",
"938 1537 OFFCURVE",
"917 1531 CURVE",
"581 969 LINE",
"555 983 LINE",
"714 1480 LINE",
"586 1579 OFFCURVE",
"380 1517 OFFCURVE",
"274 1393 CURVE",
"260 1355 OFFCURVE",
"224 484 OFFCURVE",
"263 370 CURVE",
"223 291 OFFCURVE",
"195 228 OFFCURVE",
"142 69 CURVE",
"182 11 OFFCURVE",
"280 -22 OFFCURVE",
"381 -20 CURVE SMOOTH"
);
},
{
closed = 1;
nodes = (
"630 775 OFFCURVE",
"826 1038 OFFCURVE",
"913 1151 CURVE",
"957 1143 LINE",
"954 1046 OFFCURVE",
"920 850 OFFCURVE",
"876 694 CURVE",
"566 672 LINE"
);
}
);
width = 1323;
}
);
leftKerningGroup = KO_R;
rightKerningGroup = KO_R;
unicode = 0052;
userData = {
KernOnName = R;
};
},
{
color = 4;
glyphname = S;
lastChange = "2022-07-29 03:42:50 +0000";
layers = (
{
anchors = (
{
name = bottom;
position = "{509, 0}";
},
{
name = top;
position = "{717, 1529}";
}
);
layerId = "ED69ACE7-BE83-49AD-8DAF-057B7A1FF3CB";
paths = (
{
closed = 1;
nodes = (
"751 24 OFFCURVE",
"834 88 OFFCURVE",
"923 168 CURVE",
"956 246 OFFCURVE",
"1030 431 OFFCURVE",
"1035 528 CURVE",
"944 700 OFFCURVE",
"634 937 OFFCURVE",
"541 998 CURVE",
"606 1208 LINE",
"619 1208 LINE",
"717 1092 OFFCURVE",
"875 1010 OFFCURVE",
"964 990 CURVE",
"1021 1017 OFFCURVE",
"1180 1201 OFFCURVE",
"1154 1455 CURVE",
"841 1440 LINE",
"803 1461 OFFCURVE",
"699 1527 OFFCURVE",
"633 1549 CURVE",
"476 1484 OFFCURVE",
"348 1396 OFFCURVE",
"236 1244 CURVE",
"232 1129 OFFCURVE",
"205 870 OFFCURVE",
"215 779 CURVE",
"265 663 OFFCURVE",
"581 490 OFFCURVE",
"700 454 CURVE",
"709 394 OFFCURVE",
"688 320 OFFCURVE",
"670 268 CURVE",
"609 243 LINE {name = hr00;}",
"496 331 OFFCURVE",
"356 410 OFFCURVE",
"200 422 CURVE",
"181 387 OFFCURVE",
"80 247 OFFCURVE",
"169 37 CURVE",
"159 36 OFFCURVE",
"654 -22 OFFCURVE",
"644 -20 CURVE"
);
}
);
width = 1019;
}
);
leftKerningGroup = KO_S;
rightKerningGroup = KO_S;
unicode = 0053;
userData = {
KernOnName = S;
};
},
{
color = 4;
glyphname = Saltillo;
lastChange = "2022-07-29 03:43:44 +0000";
layers = (
{
anchors = (
{
name = bottom;
position = "{325, 0}";
},
{
name = ogonek;
position = "{584, 10}";
},
{
name = top;
position = "{533, 1529}";
},
{
name = topleft;
position = "{229, 1529}";
}
);
layerId = "ED69ACE7-BE83-49AD-8DAF-057B7A1FF3CB";
paths = (
{
closed = 1;
nodes = (
"479 536 OFFCURVE",
"515 547 OFFCURVE",
"545 575 CURVE",
"614 838 OFFCURVE",
"706 1222 OFFCURVE",
"754 1489 CURVE",
"711 1518 OFFCURVE",
"657 1529 OFFCURVE",
"598 1529 CURVE SMOOTH",
"456 1529 OFFCURVE",
"315 1457 OFFCURVE",
"271 1399 CURVE",
"275 1289 OFFCURVE",
"307 704 OFFCURVE",
"291 618 CURVE",
"316 568 OFFCURVE",
"366 536 OFFCURVE",
"437 536 CURVE SMOOTH"
);
}
);
width = 785;
}
);
leftMetricsKey = I;
rightMetricsKey = "=|";
unicode = A78B;
},
{
color = 4;
glyphname = Germandbls;
lastChange = "2022-07-29 03:42:50 +0000";
layers = (
{
layerId = "ED69ACE7-BE83-49AD-8DAF-057B7A1FF3CB";
paths = (
{
closed = 1;
nodes = (
"450 0 LINE",
"610 1297 LINE",
"629 1311 LINE",
"691 1265 OFFCURVE",
"770 1212 OFFCURVE",
"825 1187 CURVE",
"614 654 LINE",
"831 635 LINE",
"974 815 OFFCURVE",
"1216 1168 OFFCURVE",
"1276 1380 CURVE",
"1118 1518 OFFCURVE",
"844 1601 OFFCURVE",
"689 1613 CURVE",
"516 1564 OFFCURVE",
"360 1437 OFFCURVE",
"239 1295 CURVE",
"208 1122 OFFCURVE",
"170 377 OFFCURVE",
"176 0 CURVE"
);
},
{
closed = 1;
nodes = (
"936 20 OFFCURVE",
"1050 98 OFFCURVE",
"1128 167 CURVE",
"1178 243 OFFCURVE",
"1269 406 OFFCURVE",
"1282 486 CURVE",
"1231 582 OFFCURVE",
"1007 761 OFFCURVE",
"923 814 CURVE",
"614 654 LINE {name = hr00;}",
"662 577 OFFCURVE",
"864 474 OFFCURVE",
"949 432 CURVE",
"936 381 OFFCURVE",
"903 294 OFFCURVE",
"874 234 CURVE",
"851 227 LINE",
"803 304 OFFCURVE",
"772 375 OFFCURVE",
"656 391 CURVE",
"633 360 OFFCURVE",
"511 236 OFFCURVE",
"567 54 CURVE",
"638 35 OFFCURVE",
"811 -18 OFFCURVE",
"823 -21 CURVE"
);
}
);
width = 1164;
}
);
leftKerningGroup = KO_Germandbls;
unicode = 1E9E;
},
{
color = 4;
glyphname = Schwa;
lastChange = "2022-07-29 03:42:50 +0000";
layers = (
{
anchors = (
{
name = bottom;
position = "{626, 0}";
},
{
name = bottomleft;
position = "{114, 0}";
},
{
name = bottomright;
position = "{1233, 0}";
},
{
name = center;
position = "{729, 764}";
},
{
name = ogonek;
position = "{332, 1519}";
},
{
name = top;
position = "{833, 1529}";
}
);
layerId = "ED69ACE7-BE83-49AD-8DAF-057B7A1FF3CB";
paths = (
{
closed = 1;
nodes = (
"707 -20 OFFCURVE",
"1058 93 OFFCURVE",
"1145 193 CURVE SMOOTH",
"1204 262 OFFCURVE",
"1261 820 OFFCURVE",
"1261 1324 CURVE SMOOTH",
"1261 1344 OFFCURVE",
"1261 1363 OFFCURVE",
"1260 1382 CURVE",
"1185 1462 OFFCURVE",
"926 1541 OFFCURVE",
"785 1550 CURVE",
"718 1544 OFFCURVE",
"648 1519 OFFCURVE",
"551 1471 CURVE SMOOTH",
"493 1442 OFFCURVE",
"389 1397 OFFCURVE",
"367 1341 CURVE SMOOTH",
"343 1282 OFFCURVE",
"310 1167 OFFCURVE",
"274 1016 CURVE",
"617 1016 LINE",
"631 1109 OFFCURVE",
"648 1199 OFFCURVE",
"660 1249 CURVE",
"725 1291 LINE",
"792 1275 OFFCURVE",
"881 1230 OFFCURVE",
"930 1198 CURVE",
"924 1085 OFFCURVE",
"904 909 OFFCURVE",
"882 744 CURVE SMOOTH",
"861 594 OFFCURVE",
"839 453 OFFCURVE",
"818 355 CURVE",
"747 320 LINE",
"554 411 LINE",
"559 504 OFFCURVE",
"564 564 OFFCURVE",
"575 697 CURVE",
"209 697 LINE",
"178 562 OFFCURVE",
"150 428 OFFCURVE",
"144 229 CURVE SMOOTH",
"144 221 OFFCURVE",
"143 210 OFFCURVE",
"143 208 CURVE",
"219 93 OFFCURVE",
"546 -20 OFFCURVE",
"640 -20 CURVE SMOOTH {name = hr00;}"
);
},
{
closed = 1;
nodes = (
"469 592 OFFCURVE",
"605 614 OFFCURVE",
"912 634 CURVE",
"922 796 LINE",
"775 848 OFFCURVE",
"577 868 OFFCURVE",
"392 868 CURVE SMOOTH",
"364 868 OFFCURVE",
"335 867 OFFCURVE",
"306 866 CURVE",
"269 843 OFFCURVE",
"208 758 OFFCURVE",
"208 670 CURVE SMOOTH",
"208 638 OFFCURVE",
"216 598 OFFCURVE",
"248 565 CURVE"
);
}
);
width = 1252;
}
);
leftKerningGroup = KO_Schwa;
rightKerningGroup = KO_Schwa;
unicode = 018F;
},
{
color = 4;
glyphname = T;
lastChange = "2022-07-29 03:42:50 +0000";
layers = (
{
anchors = (
{
name = bottom;
position = "{706, -21}";
},
{
name = center;
position = "{694, 765}";
},
{
name = top;
position = "{802, 1529}";
}
);
layerId = "ED69ACE7-BE83-49AD-8DAF-057B7A1FF3CB";
paths = (
{
closed = 1;
nodes = (
"1310 1174 OFFCURVE",
"1361 1480 OFFCURVE",
"1242 1549 CURVE",
"889 1438 LINE",
"478 1549 LINE",
"385 1540 OFFCURVE",
"263 1479 OFFCURVE",
"182 1393 CURVE",
"111 1288 OFFCURVE",
"132 1069 OFFCURVE",
"150 967 CURVE",
"223 933 OFFCURVE",
"296 939 OFFCURVE",
"376 966 CURVE",
"454 1247 LINE",
"558 1219 LINE",
"529 580 LINE",
"527 580 LINE",
"495 469 OFFCURVE",
"431 326 OFFCURVE",
"431 217 CURVE SMOOTH",
"431 68 OFFCURVE",
"595 -21 OFFCURVE",
"728 -21 CURVE SMOOTH",
"856 -21 OFFCURVE",
"1030 189 OFFCURVE",
"1063 283 CURVE",
"1006 415 LINE",
"778 314 LINE",
"807 584 LINE",
"941 1145 LINE",
"1006 1110 OFFCURVE",
"1114 1084 OFFCURVE",
"1170 1084 CURVE"
);
}
);
userData = {
com.typemytype.robofont.guides = (
{
angle = 90;
isGlobal = 0;
x = 585;
y = 0;
}
);
};
width = 1070;
}
);
leftKerningGroup = KO_T;
rightKerningGroup = KO_T;
unicode = 0054;
userData = {
KernOnName = T;
};
},
{
glyphname = Tbar;
lastChange = "2022-05-20 00:37:12 +0000";
layers = (
{
layerId = "ED69ACE7-BE83-49AD-8DAF-057B7A1FF3CB";
paths = (
{
closed = 1;
nodes = (
"300 1247 LINE",
"589 1174 LINE",
"775 1162 LINE",
"841 1119 OFFCURVE",
"993 1084 OFFCURVE",
"1061 1084 CURVE",
"1193 1174 OFFCURVE",
"1202 1480 OFFCURVE",
"1070 1549 CURVE",
"722 1438 LINE",
"283 1549 LINE",
"188 1540 OFFCURVE",
"70 1480 OFFCURVE",
"-1 1393 CURVE",
"-60 1288 OFFCURVE",
"-8 1070 OFFCURVE",
"26 967 CURVE",
"105 933 OFFCURVE",
"180 939 OFFCURVE",
"259 966 CURVE"
);
},
{
closed = 1;
nodes = (
"899 -21 OFFCURVE",
"1050 189 OFFCURVE",
"1071 283 CURVE",
"993 415 LINE",
"773 314 LINE",
"754 598 LINE {name = hr04;}",
"487 580 LINE {name = hr05;}",
"466 455 OFFCURVE",
"417 344 OFFCURVE",
"427 227 CURVE SMOOTH",
"441 72 OFFCURVE",
"627 -21 OFFCURVE",
"768 -21 CURVE SMOOTH"
);
},
{
closed = 1;
nodes = (
"988 677 OFFCURVE",
"1025 790 OFFCURVE",
"1002 886 CURVE",
"308 837 LINE",
"262 759 OFFCURVE",
"240 698 OFFCURVE",
"252 585 CURVE {name = hr01;}",
"629 571 OFFCURVE",
"850 564 OFFCURVE",
"934 571 CURVE"
);
},
{
closed = 1;
nodes = (
"754 580 LINE {name = hr02;}",
"820 1204 LINE",
"720 1255 OFFCURVE",
"638 1318 OFFCURVE",
"427 1245 CURVE {name = hr03;}",
"489 579 LINE"
);
}
);
width = 1103;
}
);
unicode = 0166;
},
{
color = 4;
glyphname = U;
lastChange = "2022-07-29 03:42:50 +0000";
layers = (
{
anchors = (
{
name = bottom;
position = "{617, 0}";
},
{
name = ogonek;
position = "{1049, 10}";
},
{
name = top;
position = "{825, 1529}";
},
{
name = topright;
position = "{1423, 1529}";
}
);
layerId = "ED69ACE7-BE83-49AD-8DAF-057B7A1FF3CB";
paths = (
{
closed = 1;
nodes = (
"748 -14 OFFCURVE",
"818 12 OFFCURVE",
"911 58 CURVE SMOOTH",
"974 89 OFFCURVE",
"1081 132 OFFCURVE",
"1104 190 CURVE SMOOTH",
"1161 332 OFFCURVE",
"1312 953 OFFCURVE",
"1322 1236 CURVE SMOOTH",
"1323 1251 OFFCURVE",
"1323 1251 OFFCURVE",
"1323 1257 CURVE SMOOTH",
"1323 1287 OFFCURVE",
"1324 1322 OFFCURVE",
"1324 1409 CURVE",
"1220 1475 OFFCURVE",
"1081 1539 OFFCURVE",
"1016 1549 CURVE",
"877 1496 OFFCURVE",
"793 1365 OFFCURVE",
"766 1247 CURVE",
"919 1201 LINE",
"914 1073 OFFCURVE",
"879 748 OFFCURVE",
"857 589 CURVE SMOOTH",
"842 483 OFFCURVE",
"813 295 OFFCURVE",
"795 228 CURVE",
"704 240 OFFCURVE",
"626 271 OFFCURVE",
"565 311 CURVE",
"569 424 OFFCURVE",
"590 600 OFFCURVE",
"615 786 CURVE SMOOTH",
"668 1174 LINE",
"716 1345 LINE",
"716 1346 LINE {name = hr00;}",
"598 1450 OFFCURVE",
"477 1537 OFFCURVE",
"387 1549 CURVE",
"243 1479 OFFCURVE",
"188 1348 OFFCURVE",
"162 1226 CURVE",
"291 1179 LINE",
"290 1172 OFFCURVE",
"224 559 OFFCURVE",
"224 195 CURVE SMOOTH",
"224 177 OFFCURVE",
"224 161 OFFCURVE",
"224 147 CURVE",
"298 68 OFFCURVE",
"533 -12 OFFCURVE",
"676 -21 CURVE"
);
}
);
width = 1234;
}
);
leftKerningGroup = KO_U;
rightKerningGroup = KO_U;
unicode = 0055;
userData = {
KernOnName = U;
};
},
{
glyphname = Ubar;
lastChange = "2022-07-29 03:43:44 +0000";
layers = (
{
anchors = (
{
name = bottom;
position = "{715, 0}";
},
{
name = ogonek;
position = "{1224, 10}";
},
{
name = top;
position = "{715, 1529}";
},
{
name = topright;
position = "{1331, 1529}";
}
);
layerId = "ED69ACE7-BE83-49AD-8DAF-057B7A1FF3CB";
paths = (
{
closed = 1;
nodes = (
"356 674 OFFCURVE",
"1288 681 OFFCURVE",
"1350 687 CURVE",
"1389 776 OFFCURVE",
"1416 870 OFFCURVE",
"1399 950 CURVE",
"121 896 LINE",
"87 831 OFFCURVE",
"71 780 OFFCURVE",
"80 686 CURVE {name = hr00;}"
);
},
{
closed = 1;
nodes = (
"851 -14 OFFCURVE",
"917 11 OFFCURVE",
"1010 58 CURVE SMOOTH",
"1072 90 OFFCURVE",
"1174 132 OFFCURVE",
"1190 190 CURVE SMOOTH",
"1228 325 OFFCURVE",
"1278 841 OFFCURVE",
"1278 1060 CURVE SMOOTH",
"1278 1149 OFFCURVE",
"1273 1203 OFFCURVE",
"1267 1257 CURVE SMOOTH",
"1261 1306 OFFCURVE",
"1258 1326 OFFCURVE",
"1247 1409 CURVE",
"1126 1477 OFFCURVE",
"977 1539 OFFCURVE",
"909 1549 CURVE",
"774 1496 OFFCURVE",
"705 1367 OFFCURVE",
"694 1247 CURVE",
"858 1201 LINE",
"870 1073 OFFCURVE",
"879 781 OFFCURVE",
"879 586 CURVE SMOOTH",
"879 466 OFFCURVE",
"875 302 OFFCURVE",
"867 228 CURVE",
"756 242 OFFCURVE",
"672 279 OFFCURVE",
"617 311 CURVE",
"606 424 OFFCURVE",
"602 612 OFFCURVE",
"602 786 CURVE SMOOTH",
"603 1174 LINE",
"628 1345 LINE",
"628 1346 LINE {name = hr00;}",
"489 1452 OFFCURVE",
"355 1537 OFFCURVE",
"261 1549 CURVE",
"121 1478 OFFCURVE",
"83 1346 OFFCURVE",
"74 1226 CURVE",
"214 1179 LINE",
"212 1143 OFFCURVE",
"212 1108 OFFCURVE",
"212 1081 CURVE SMOOTH",
"212 879 OFFCURVE",
"252 386 OFFCURVE",
"289 147 CURVE",
"378 67 OFFCURVE",
"630 -12 OFFCURVE",
"779 -21 CURVE"
);
}
);
width = 1234;
}
);
widthMetricsKey = U;
rightMetricsKey = T;
unicode = 0244;
},
{
color = 4;
glyphname = V;
lastChange = "2022-07-29 03:42:50 +0000";
layers = (
{
layerId = "ED69ACE7-BE83-49AD-8DAF-057B7A1FF3CB";
paths = (
{
closed = 1;
nodes = (
"717 -22 OFFCURVE",
"813 1 OFFCURVE",
"866 41 CURVE",
"863 137 OFFCURVE",
"853 202 OFFCURVE",
"837 259 CURVE",
"1312 1127 LINE",
"1323 1279 OFFCURVE",
"1279 1461 OFFCURVE",
"1183 1551 CURVE",
"1042 1533 OFFCURVE",
"860 1457 OFFCURVE",
"782 1302 CURVE",
"819 1192 OFFCURVE",
"876 1143 OFFCURVE",
"936 1082 CURVE",
"672 343 LINE",
"691 671 OFFCURVE",
"612 1410 OFFCURVE",
"590 1472 CURVE {name = hr00;}",
"545 1512 OFFCURVE",
"485 1529 OFFCURVE",
"425 1529 CURVE SMOOTH",
"295 1529 OFFCURVE",
"161 1441 OFFCURVE",
"125 1287 CURVE",
"265 1065 LINE",
"417 282 LINE",
"390 227 OFFCURVE",
"357 149 OFFCURVE",
"337 46 CURVE",
"381 3 OFFCURVE",
"497 -22 OFFCURVE",
"608 -22 CURVE SMOOTH"
);
}
);
width = 1175;
}
);
leftKerningGroup = KO_V;
rightKerningGroup = KO_V;
unicode = 0056;
userData = {
KernOnName = V;
};
},
{
color = 4;
glyphname = Vturned;
lastChange = "2022-07-29 03:42:50 +0000";
layers = (
{
layerId = "ED69ACE7-BE83-49AD-8DAF-057B7A1FF3CB";
paths = (
{
closed = 1;
nodes = (
"340 -4 OFFCURVE",
"521 73 OFFCURVE",
"601 227 CURVE",
"564 337 OFFCURVE",
"504 389 OFFCURVE",
"446 447 CURVE",
"709 1186 LINE",
"691 850 OFFCURVE",
"771 114 OFFCURVE",
"792 57 CURVE {name = hr00;}",
"834 20 OFFCURVE",
"890 0 OFFCURVE",
"956 0 CURVE SMOOTH",
"1083 0 OFFCURVE",
"1220 85 OFFCURVE",
"1256 242 CURVE",
"1117 464 LINE",
"965 1247 LINE",
"996 1312 OFFCURVE",
"1025 1383 OFFCURVE",
"1047 1483 CURVE",
"1000 1526 OFFCURVE",
"887 1551 OFFCURVE",
"773 1551 CURVE SMOOTH",
"674 1551 OFFCURVE",
"573 1531 OFFCURVE",
"515 1488 CURVE",
"518 1399 OFFCURVE",
"529 1328 OFFCURVE",
"544 1270 CURVE",
"69 402 LINE",
"59 250 OFFCURVE",
"102 69 OFFCURVE",
"198 -22 CURVE"
);
}
);
width = 1175;
}
);
unicode = 0245;
},
{
color = 4;
glyphname = W;
lastChange = "2022-07-29 03:42:50 +0000";
layers = (
{
anchors = (
{
name = bottom;
position = "{892, 0}";
},
{
name = top;
position = "{1099, 1529}";
}
);
layerId = "ED69ACE7-BE83-49AD-8DAF-057B7A1FF3CB";
paths = (
{
closed = 1;
nodes = (
"808 163 OFFCURVE",
"797 220 OFFCURVE",
"781 272 CURVE",
"978 790 LINE",
"1049 298 LINE",
"1014 239 OFFCURVE",
"980 173 OFFCURVE",
"956 80 CURVE",
"1042 -18 OFFCURVE",
"1379 -26 OFFCURVE",
"1512 76 CURVE",
"1509 162 OFFCURVE",
"1497 222 OFFCURVE",
"1483 269 CURVE",
"1898 1165 LINE",
"1914 1317 OFFCURVE",
"1875 1460 OFFCURVE",
"1782 1550 CURVE",
"1645 1533 OFFCURVE",
"1440 1437 OFFCURVE",
"1354 1280 CURVE {name = hr00;}",
"1389 1169 OFFCURVE",
"1461 1118 OFFCURVE",
"1522 1056 CURVE",
"1333 373 LINE",
"1316 373 LINE",
"1339 659 OFFCURVE",
"1250 1070 OFFCURVE",
"1248 1135 CURVE",
"1248 1135 OFFCURVE",
"1248 1136 OFFCURVE",
"1249 1137 CURVE",
"1266 1290 OFFCURVE",
"1233 1470 OFFCURVE",
"1161 1547 CURVE",
"1019 1529 OFFCURVE",
"845 1440 OFFCURVE",
"733 1286 CURVE",
"766 1175 OFFCURVE",
"814 1118 OFFCURVE",
"869 1060 CURVE",
"622 373 LINE",
"615 373 LINE",
"637 672 OFFCURVE",
"625 1421 OFFCURVE",
"606 1480 CURVE",
"605 1480 LINE",
"570 1531 OFFCURVE",
"518 1552 OFFCURVE",
"456 1550 CURVE SMOOTH",
"334 1547 OFFCURVE",
"175 1430 OFFCURVE",
"113 1327 CURVE",
"249 1097 LINE",
"251 1086 LINE",
"343 291 LINE",
"310 236 OFFCURVE",
"277 167 OFFCURVE",
"255 80 CURVE",
"340 -18 OFFCURVE",
"677 -26 OFFCURVE",
"811 76 CURVE"
);
}
);
width = 1784;
}
);
leftKerningGroup = KO_W;
rightKerningGroup = KO_W;
unicode = 0057;
},
{
color = 4;
glyphname = X;
lastChange = "2022-07-29 03:42:50 +0000";
layers = (
{
anchors = (
{
name = bottom;
position = "{647, 0}";
},
{
name = top;
position = "{855, 1529}";
}
);
layerId = "ED69ACE7-BE83-49AD-8DAF-057B7A1FF3CB";
paths = (
{
closed = 1;
nodes = (
"1026 -20 OFFCURVE",
"1106 16 OFFCURVE",
"1155 90 CURVE SMOOTH",
"1217 181 OFFCURVE",
"1265 286 OFFCURVE",
"1300 405 CURVE",
"1183 505 LINE",
"1029 379 LINE",
"856 786 LINE",
"1056 1126 LINE",
"1141 940 LINE",
"1249 964 OFFCURVE",
"1337 1013 OFFCURVE",
"1407 1097 CURVE",
"1425 1259 OFFCURVE",
"1350 1430 OFFCURVE",
"1257 1529 CURVE",
"1138 1523 OFFCURVE",
"1020 1463 OFFCURVE",
"966 1408 CURVE SMOOTH",
"936 1377 OFFCURVE",
"867 1183 OFFCURVE",
"802 936 CURVE",
"810 1043 OFFCURVE",
"811 1200 OFFCURVE",
"760 1361 CURVE SMOOTH",
"726 1474 OFFCURVE",
"659 1527 OFFCURVE",
"547 1527 CURVE SMOOTH",
"510 1527 OFFCURVE",
"460 1521 OFFCURVE",
"402 1505 CURVE",
"296 1450 OFFCURVE",
"209 1267 OFFCURVE",
"177 1157 CURVE",
"291 1023 LINE",
"454 1120 LINE",
"585 746 LINE",
"422 433 LINE",
"305 575 LINE",
"216 544 OFFCURVE",
"146 499 OFFCURVE",
"82 421 CURVE",
"82 253 OFFCURVE",
"162 -19 OFFCURVE",
"276 -19 CURVE SMOOTH {name = hr03;}",
"382 -19 OFFCURVE",
"475 125 OFFCURVE",
"546 271 CURVE SMOOTH",
"599 379 OFFCURVE",
"665 558 OFFCURVE",
"667 562 CURVE",
"673 560 LINE {name = hr01;}",
"667 440 OFFCURVE",
"676 238 OFFCURVE",
"738 83 CURVE SMOOTH",
"766 13 OFFCURVE",
"845 -20 OFFCURVE",
"922 -20 CURVE SMOOTH {name = hr02;}"
);
}
);
width = 1277;
}
);
leftKerningGroup = KO_X;
rightKerningGroup = KO_X;
unicode = 0058;
userData = {
KernOnName = X;
};
},
{
color = 4;
glyphname = Y;
lastChange = "2022-07-29 03:42:50 +0000";
layers = (
{
anchors = (
{
name = bottom;
position = "{1093, 561}";
},
{
name = top;
position = "{773, 1529}";
},
{
name = topleft;
position = "{226, 1529}";
}
);
layerId = "ED69ACE7-BE83-49AD-8DAF-057B7A1FF3CB";
paths = (
{
closed = 1;
nodes = (
"676 -20 OFFCURVE",
"727 -7 OFFCURVE",
"765 7 CURVE",
"738 498 LINE",
"881 574 LINE",
"1043 737 OFFCURVE",
"1214 1024 OFFCURVE",
"1287 1165 CURVE",
"1303 1317 OFFCURVE",
"1273 1459 OFFCURVE",
"1180 1549 CURVE",
"1044 1532 OFFCURVE",
"856 1465 OFFCURVE",
"769 1308 CURVE",
"801 1206 OFFCURVE",
"840 1146 OFFCURVE",
"905 1078 CURVE",
"697 640 LINE",
"654 640 LINE",
"638 1480 LINE",
"593 1517 OFFCURVE",
"533 1530 OFFCURVE",
"464 1529 CURVE SMOOTH",
"362 1527 OFFCURVE",
"235 1495 OFFCURVE",
"172 1269 CURVE {name = hr00;}",
"269 1131 LINE",
"338 621 LINE",
"467 505 LINE",
"444 420 OFFCURVE",
"379 186 OFFCURVE",
"379 107 CURVE SMOOTH",
"379 -23 OFFCURVE",
"521 -20 OFFCURVE",
"650 -20 CURVE SMOOTH"
);
}
);
width = 1133;
}
);
leftKerningGroup = KO_Y;
rightKerningGroup = KO_Y;
unicode = 0059;
userData = {
KernOnName = Y;
};
},
{
color = 4;
glyphname = Z;
lastChange = "2022-07-29 03:42:50 +0000";
layers = (
{
anchors = (
{
name = bottom;
position = "{525, 0}";
},
{
name = center;
position = "{689, 765}";
},
{
name = top;
position = "{897, 1529}";
}
);
layerId = "ED69ACE7-BE83-49AD-8DAF-057B7A1FF3CB";
paths = (
{
closed = 1;
nodes = (
"323 -20 OFFCURVE",
"430 123 OFFCURVE",
"476 249 CURVE",
"503 226 OFFCURVE",
"567 191 OFFCURVE",
"581 419 CURVE {name = hr00;}",
"745 609 OFFCURVE",
"1052 1012 OFFCURVE",
"1133 1120 CURVE",
"1251 1116 LINE",
"1344 1274 OFFCURVE",
"1351 1512 OFFCURVE",
"1210 1549 CURVE",
"1133 1531 OFFCURVE",
"1074 1496 OFFCURVE",
"994 1423 CURVE",
"858 1477 OFFCURVE",
"695 1529 OFFCURVE",
"556 1549 CURVE",
"515 1551 OFFCURVE",
"284 1465 OFFCURVE",
"246 1351 CURVE",
"194 1186 OFFCURVE",
"234 928 OFFCURVE",
"295 847 CURVE",
"480 887 LINE",
"565 1190 LINE",
"790 1154 LINE",
"342 469 LINE",
"308 490 OFFCURVE",
"266 503 OFFCURVE",
"233 511 CURVE",
"193 491 OFFCURVE",
"131 439 OFFCURVE",
"81 381 CURVE",
"53 256 OFFCURVE",
"110 42 OFFCURVE",
"197 -20 CURVE"
);
},
{
closed = 1;
nodes = (
"1070 -20 OFFCURVE",
"1187 191 OFFCURVE",
"1187 530 CURVE SMOOTH",
"1187 572 OFFCURVE",
"1184 604 OFFCURVE",
"1180 625 CURVE",
"1004 649 LINE",
"873 360 LINE",
"569 421 LINE",
"404 282 LINE",
"510 163 OFFCURVE",
"714 -20 OFFCURVE",
"882 -20 CURVE SMOOTH"
);
}
);
width = 1172;
}
);
leftKerningGroup = KO_Z;
rightKerningGroup = KO_Z;
unicode = 005A;
userData = {
KernOnName = Z;
};
},
{
color = 4;
glyphname = a;
lastChange = "2022-07-29 03:42:50 +0000";
layers = (
{
anchors = (
{
name = bottom;
position = "{583, 0}";
},
{
name = ogonek;
position = "{1137, 10}";
},
{
name = top;
position = "{743, 1182}";
}
);
layerId = "ED69ACE7-BE83-49AD-8DAF-057B7A1FF3CB";
paths = (
{
closed = 1;
nodes = (
"998 -19 OFFCURVE",
"1113 117 OFFCURVE",
"1203 278 CURVE",
"1137 399 LINE",
"956 307 LINE {name = hr01;}",
"1083 537 OFFCURVE",
"1223 997 OFFCURVE",
"1225 1060 CURVE",
"1168 1144 OFFCURVE",
"1090 1181 OFFCURVE",
"973 1181 CURVE SMOOTH {name = hr02;}",
"899 1181 OFFCURVE",
"828 1167 OFFCURVE",
"806 1153 CURVE",
"801 1121 OFFCURVE",
"794 1025 OFFCURVE",
"781 907 CURVE",
"734 1013 OFFCURVE",
"676 1128 OFFCURVE",
"582 1203 CURVE {name = hr03;}",
"544 1198 OFFCURVE",
"344 1161 OFFCURVE",
"204 1004 CURVE",
"181 977 OFFCURVE",
"172 962 OFFCURVE",
"172 942 CURVE SMOOTH",
"172 940 OFFCURVE",
"171 928 OFFCURVE",
"177 895 CURVE SMOOTH",
"187 829 OFFCURVE",
"191 750 OFFCURVE",
"191 658 CURVE SMOOTH",
"191 190 OFFCURVE",
"146 467 OFFCURVE",
"146 140 CURVE SMOOTH",
"146 90 OFFCURVE",
"218 64 OFFCURVE",
"259 30 CURVE SMOOTH",
"291 4 OFFCURVE",
"324 -22 OFFCURVE",
"360 -20 CURVE SMOOTH",
"377 -19 OFFCURVE",
"396 -12 OFFCURVE",
"417 4 CURVE",
"520 86 OFFCURVE",
"664 358 OFFCURVE",
"736 496 CURVE",
"750 489 LINE",
"723 393 OFFCURVE",
"708 340 OFFCURVE",
"681 221 CURVE SMOOTH",
"661 131 OFFCURVE",
"685 112 OFFCURVE",
"710 79 CURVE SMOOTH {name = hr04;}",
"756 20 OFFCURVE",
"825 -22 OFFCURVE",
"885 -21 CURVE SMOOTH"
);
},
{
closed = 1;
nodes = (
"466 352 LINE",
"505 473 OFFCURVE",
"534 591 OFFCURVE",
"548 712 CURVE",
"563 819 LINE",
"622 804 OFFCURVE",
"689 793 OFFCURVE",
"763 773 CURVE",
"753 697 OFFCURVE",
"762 748 OFFCURVE",
"750 693 CURVE",
"709 623 OFFCURVE",
"574 412 OFFCURVE",
"493 338 CURVE"
);
}
);
userData = {
com.typemytype.robofont.guides = (
{
angle = 0;
isGlobal = 0;
x = 0;
y = 1448;
},
{
angle = 0;
isGlobal = 0;
x = 0;
y = 1185;
}
);
};
width = 1165;
}
);
leftKerningGroup = KO_a;
rightKerningGroup = KO_a;
unicode = 0061;
userData = {
KernOnName = a;
};
},
{
color = 4;
glyphname = ae;
lastChange = "2022-07-29 03:42:50 +0000";
layers = (
{
anchors = (
{
name = bottom;
position = "{744, 0}";
},
{
name = top;
position = "{904, 1182}";
}
);
layerId = "ED69ACE7-BE83-49AD-8DAF-057B7A1FF3CB";
paths = (
{
closed = 1;
nodes = (
"449 -20 OFFCURVE",
"641 324 OFFCURVE",
"729 496 CURVE",
"744 492 LINE",
"744 413 OFFCURVE",
"722 313 OFFCURVE",
"704 228 CURVE SMOOTH",
"696 191 OFFCURVE",
"700 171 OFFCURVE",
"789 82 CURVE SMOOTH",
"847 23 OFFCURVE",
"881 -20 OFFCURVE",
"924 -20 CURVE SMOOTH",
"1097 -20 OFFCURVE",
"1372 192 OFFCURVE",
"1464 299 CURVE",
"1400 438 LINE",
"1270 378 OFFCURVE",
"1132 297 OFFCURVE",
"1063 284 CURVE",
"1035 284 LINE",
"1245 467 OFFCURVE",
"1500 719 OFFCURVE",
"1532 769 CURVE SMOOTH {name = hr00;}",
"1557 809 OFFCURVE",
"1575 896 OFFCURVE",
"1575 968 CURVE SMOOTH",
"1575 1018 OFFCURVE",
"1564 1032 OFFCURVE",
"1548 1038 CURVE SMOOTH",
"1490 1061 OFFCURVE",
"1447 1075 OFFCURVE",
"1389 1110 CURVE SMOOTH",
"1320 1151 OFFCURVE",
"1247 1224 OFFCURVE",
"1196 1224 CURVE SMOOTH",
"1123 1224 OFFCURVE",
"997 1164 OFFCURVE",
"932 1128 CURVE SMOOTH",
"819 1066 OFFCURVE",
"797 965 OFFCURVE",
"774 907 CURVE",
"734 995 OFFCURVE",
"661 1143 OFFCURVE",
"586 1203 CURVE",
"531 1196 OFFCURVE",
"337 1151 OFFCURVE",
"207 1006 CURVE SMOOTH",
"178 974 OFFCURVE",
"172 958 OFFCURVE",
"172 935 CURVE SMOOTH",
"172 933 OFFCURVE",
"173 912 OFFCURVE",
"176 894 CURVE SMOOTH",
"184 834 OFFCURVE",
"187 775 OFFCURVE",
"187 700 CURVE SMOOTH",
"187 193 OFFCURVE",
"132 537 OFFCURVE",
"132 139 CURVE SMOOTH",
"132 90 OFFCURVE",
"203 64 OFFCURVE",
"243 30 CURVE SMOOTH",
"278 1 OFFCURVE",
"308 -20 OFFCURVE",
"343 -20 CURVE SMOOTH"
);
},
{
closed = 1;
nodes = (
"455 352 LINE",
"496 470 OFFCURVE",
"528 586 OFFCURVE",
"545 712 CURVE SMOOTH",
"560 819 LINE",
"625 812 OFFCURVE",
"669 797 OFFCURVE",
"757 773 CURVE",
"750 720 LINE SMOOTH",
"749 711 OFFCURVE",
"749 717 OFFCURVE",
"744 693 CURVE",
"699 618 OFFCURVE",
"564 411 OFFCURVE",
"482 338 CURVE"
);
},
{
closed = 1;
nodes = (
"1036 419 OFFCURVE",
"1036 417 OFFCURVE",
"1037 421 CURVE SMOOTH",
"1062 515 OFFCURVE",
"1110 795 OFFCURVE",
"1117 851 CURVE",
"1206 821 OFFCURVE",
"1261 803 OFFCURVE",
"1298 794 CURVE",
"1223 658 OFFCURVE",
"1091 489 OFFCURVE",
"1036 417 CURVE"
);
}
);
width = 1487;
}
);
leftKerningGroup = KO_g;
rightKerningGroup = KO_e;
unicode = 00E6;
},
{
color = 4;
glyphname = b;
lastChange = "2022-07-29 03:42:50 +0000";
layers = (
{
anchors = (
{
name = bottom;
position = "{517, 0}";
},
{
name = top;
position = "{963, 1182}";
}
);
layerId = "ED69ACE7-BE83-49AD-8DAF-057B7A1FF3CB";
paths = (
{
closed = 1;
nodes = (
"695 -19 OFFCURVE",
"807 -9 OFFCURVE",
"855 23 CURVE",
"968 258 OFFCURVE",
"1126 724 OFFCURVE",
"1177 1038 CURVE",
"1074 1140 OFFCURVE",
"921 1183 OFFCURVE",
"849 1182 CURVE SMOOTH",
"792 1181 OFFCURVE",
"760 1171 OFFCURVE",
"739 1165 CURVE",
"436 517 LINE",
"423 523 LINE",
"192 370 LINE",
"192 369 OFFCURVE",
"191 369 OFFCURVE",
"191 368 CURVE",
"193 368 LINE",
"157 275 OFFCURVE",
"142 234 OFFCURVE",
"115 163 CURVE SMOOTH {name = hr00;}",
"94 104 OFFCURVE",
"104 97 OFFCURVE",
"137 77 CURVE SMOOTH",
"253 7 OFFCURVE",
"472 -22 OFFCURVE",
"618 -20 CURVE SMOOTH"
);
},
{
closed = 1;
nodes = (
"600 218 OFFCURVE",
"496 253 OFFCURVE",
"448 300 CURVE",
"489 376 OFFCURVE",
"707 737 OFFCURVE",
"735 785 CURVE",
"760 777 LINE",
"742 655 OFFCURVE",
"681 373 OFFCURVE",
"644 215 CURVE"
);
},
{
closed = 1;
nodes = (
"466 360 LINE",
"434 516 LINE",
"426 518 LINE",
"519 880 OFFCURVE",
"621 1228 OFFCURVE",
"684 1566 CURVE",
"648 1600 OFFCURVE",
"599 1613 OFFCURVE",
"543 1613 CURVE SMOOTH",
"426 1613 OFFCURVE",
"286 1548 OFFCURVE",
"210 1466 CURVE",
"195 1427 OFFCURVE",
"156 489 OFFCURVE",
"192 370 CURVE",
"192 369 OFFCURVE",
"191 369 OFFCURVE",
"191 368 CURVE",
"467 352 LINE"
);
}
);
width = 1080;
}
);
leftKerningGroup = KO_b;
rightKerningGroup = KO_b;
unicode = 0062;
userData = {
KernOnName = b;
};
},
{
color = 4;
glyphname = c;
lastChange = "2022-07-29 03:42:50 +0000";
layers = (
{
anchors = (
{
name = bottom;
position = "{437, 0}";
},
{
name = top;
position = "{598, 1182}";
}
);
layerId = "ED69ACE7-BE83-49AD-8DAF-057B7A1FF3CB";
paths = (
{
closed = 1;
nodes = (
"563 -20 OFFCURVE",
"830 204 OFFCURVE",
"888 290 CURVE",
"810 443 LINE",
"692 382 OFFCURVE",
"527 304 OFFCURVE",
"480 284 CURVE",
"464 300 LINE",
"523 475 OFFCURVE",
"564 740 OFFCURVE",
"569 889 CURVE",
"617 807 OFFCURVE",
"670 693 OFFCURVE",
"761 633 CURVE",
"813 648 OFFCURVE",
"997 828 OFFCURVE",
"995 1059 CURVE",
"821 1107 LINE",
"775 1130 OFFCURVE",
"669 1204 OFFCURVE",
"611 1204 CURVE SMOOTH",
"549 1204 OFFCURVE",
"424 1143 OFFCURVE",
"367 1111 CURVE SMOOTH",
"316 1082 OFFCURVE",
"170 983 OFFCURVE",
"170 923 CURVE SMOOTH",
"170 911 OFFCURVE",
"173 895 OFFCURVE",
"178 869 CURVE SMOOTH",
"185 830 OFFCURVE",
"188 772 OFFCURVE",
"188 708 CURVE SMOOTH {name = hr00;}",
"188 212 OFFCURVE",
"80 227 OFFCURVE",
"179 127 CURVE SMOOTH",
"215 91 OFFCURVE",
"332 -20 OFFCURVE",
"410 -20 CURVE SMOOTH"
);
}
);
userData = {
com.typemytype.robofont.guides = (
{
angle = 0;
isGlobal = 0;
x = 0;
y = 962;
}
);
};
width = 875;
}
);
leftKerningGroup = KO_c;
rightKerningGroup = KO_c;
unicode = 0063;
userData = {
KernOnName = c;
};
},
{
glyphname = d;
lastChange = "2022-07-29 04:55:57 +0000";
layers = (
{
anchors = (
{
name = bottom;
position = "{601, 0}";
},
{
name = center;
position = "{684, 591}";
},
{
name = top;
position = "{471, 1182}";
},
{
name = topright;
position = "{1347, 1182}";
}
);
layerId = "ED69ACE7-BE83-49AD-8DAF-057B7A1FF3CB";
paths = (
{
closed = 1;
nodes = (
"388 -19 OFFCURVE",
"408 -12 OFFCURVE",
"429 4 CURVE SMOOTH",
"537 87 OFFCURVE",
"686 351 OFFCURVE",
"762 497 CURVE",
"766 495 LINE",
"747 403 OFFCURVE",
"736 342 OFFCURVE",
"709 223 CURVE SMOOTH",
"689 133 OFFCURVE",
"717 110 OFFCURVE",
"741 80 CURVE SMOOTH",
"787 22 OFFCURVE",
"862 -21 OFFCURVE",
"924 -20 CURVE SMOOTH",
"1040 -18 OFFCURVE",
"1156 119 OFFCURVE",
"1246 279 CURVE",
"1175 400 LINE",
"991 308 LINE {name = hr00;}",
"1119 599 OFFCURVE",
"1283 1464 OFFCURVE",
"1283 1524 CURVE",
"1221 1590 OFFCURVE",
"1121 1613 OFFCURVE",
"1029 1613 CURVE SMOOTH",
"933 1613 OFFCURVE",
"846 1587 OFFCURVE",
"819 1559 CURVE",
"816 1519 OFFCURVE",
"816 1108 OFFCURVE",
"806 910 CURVE",
"800 908 LINE",
"753 1011 OFFCURVE",
"698 1130 OFFCURVE",
"601 1204 CURVE",
"561 1199 OFFCURVE",
"355 1162 OFFCURVE",
"212 1005 CURVE SMOOTH",
"186 977 OFFCURVE",
"179 960 OFFCURVE",
"179 939 CURVE SMOOTH",
"179 928 OFFCURVE",
"180 918 OFFCURVE",
"184 892 CURVE SMOOTH",
"235 555 OFFCURVE",
"151 374 OFFCURVE",
"151 141 CURVE SMOOTH",
"151 91 OFFCURVE",
"225 65 OFFCURVE",
"268 31 CURVE SMOOTH",
"306 1 OFFCURVE",
"336 -22 OFFCURVE",
"372 -20 CURVE SMOOTH"
);
},
{
closed = 1;
nodes = (
"480 353 LINE",
"521 473 OFFCURVE",
"552 591 OFFCURVE",
"567 713 CURVE SMOOTH",
"580 820 LINE",
"642 805 OFFCURVE",
"707 794 OFFCURVE",
"784 774 CURVE",
"774 690 OFFCURVE",
"778 721 OFFCURVE",
"772 694 CURVE",
"730 624 OFFCURVE",
"593 413 OFFCURVE",
"508 339 CURVE"
);
}
);
userData = {
com.typemytype.robofont.guides = (
{
angle = 0;
isGlobal = 0;
x = 0;
y = 1929;
},
{
angle = 90;
isGlobal = 0;
x = 380;
y = 0;
}
);
};
width = 1201;
}
);
leftKerningGroup = KO_d;
rightKerningGroup = KO_d;
unicode = 0064;
userData = {
KernOnName = d;
};
},
{
color = 4;
glyphname = eth;
lastChange = "2022-07-29 04:56:22 +0000";
layers = (
{
layerId = "ED69ACE7-BE83-49AD-8DAF-057B7A1FF3CB";
paths = (
{
closed = 1;
nodes = (
"621 -14 OFFCURVE",
"689 9 OFFCURVE",
"780 52 CURVE SMOOTH",
"831 76 OFFCURVE",
"931 130 OFFCURVE",
"959 160 CURVE",
"1010 283 OFFCURVE",
"1092 560 OFFCURVE",
"1120 759 CURVE",
"1112 824 LINE",
"1039 929 OFFCURVE",
"793 998 OFFCURVE",
"629 1014 CURVE {name = hr00;}",
"525 1000 OFFCURVE",
"268 910 OFFCURVE",
"198 836 CURVE",
"174 756 OFFCURVE",
"129 538 OFFCURVE",
"129 367 CURVE SMOOTH",
"129 280 OFFCURVE",
"136 208 OFFCURVE",
"146 136 CURVE",
"227 63 OFFCURVE",
"429 -8 OFFCURVE",
"560 -20 CURVE"
);
},
{
closed = 1;
nodes = (
"556 249 OFFCURVE",
"507 276 OFFCURVE",
"471 302 CURVE",
"471 353 OFFCURVE",
"482 466 OFFCURVE",
"488 505 CURVE SMOOTH",
"494 548 OFFCURVE",
"512 637 OFFCURVE",
"522 678 CURVE",
"750 852 LINE",
"745 738 OFFCURVE",
"735 616 OFFCURVE",
"717 488 CURVE SMOOTH",
"706 410 OFFCURVE",
"693 336 OFFCURVE",
"677 268 CURVE",
"617 230 LINE"
);
},
{
closed = 1;
nodes = (
"770 1059 LINE",
"699 956 LINE",
"684 852 LINE",
"947 786 LINE"
);
},
{
closed = 1;
nodes = (
"1120 759 LINE",
"1126 798 OFFCURVE",
"1145 987 OFFCURVE",
"1145 1010 CURVE SMOOTH",
"1145 1027 OFFCURVE",
"1144 1043 OFFCURVE",
"1143 1058 CURVE",
"967 1274 OFFCURVE",
"705 1511 OFFCURVE",
"383 1613 CURVE",
"330 1591 OFFCURVE",
"246 1470 OFFCURVE",
"239 1419 CURVE",
"544 1215 LINE",
"691 1083 OFFCURVE",
"801 930 OFFCURVE",
"888 743 CURVE"
);
},
{
closed = 1;
nodes = (
"956 1538 LINE",
"931 1629 OFFCURVE",
"813 1664 OFFCURVE",
"754 1671 CURVE",
"270 1168 LINE",
"283 1106 OFFCURVE",
"344 1073 OFFCURVE",
"427 1059 CURVE"
);
}
);
width = 1073;
}
);
rightKerningGroup = KO_eth;
unicode = 00F0;
},
{
color = 4;
glyphname = dcroat;
lastChange = "2022-07-29 04:56:22 +0000";
layers = (
{
layerId = "ED69ACE7-BE83-49AD-8DAF-057B7A1FF3CB";
paths = (
{
closed = 1;
nodes = (
"387 -19 OFFCURVE",
"407 -12 OFFCURVE",
"428 4 CURVE SMOOTH",
"536 87 OFFCURVE",
"685 351 OFFCURVE",
"761 497 CURVE",
"765 495 LINE",
"746 403 OFFCURVE",
"735 342 OFFCURVE",
"708 223 CURVE SMOOTH",
"688 133 OFFCURVE",
"716 110 OFFCURVE",
"740 80 CURVE SMOOTH",
"786 22 OFFCURVE",
"861 -21 OFFCURVE",
"923 -20 CURVE SMOOTH",
"1039 -18 OFFCURVE",
"1155 119 OFFCURVE",
"1245 279 CURVE",
"1174 400 LINE",
"990 308 LINE",
"1118 599 OFFCURVE",
"1262 1464 OFFCURVE",
"1262 1524 CURVE",
"1200 1590 OFFCURVE",
"1120 1613 OFFCURVE",
"1028 1613 CURVE SMOOTH",
"932 1613 OFFCURVE",
"852 1587 OFFCURVE",
"825 1559 CURVE",
"822 1519 OFFCURVE",
"820 1024 OFFCURVE",
"809 826 CURVE",
"788 824 LINE",
"741 925 OFFCURVE",
"686 1046 OFFCURVE",
"588 1120 CURVE",
"548 1115 OFFCURVE",
"341 1077 OFFCURVE",
"199 921 CURVE SMOOTH",
"176 896 OFFCURVE",
"166 878 OFFCURVE",
"166 855 CURVE SMOOTH",
"166 844 OFFCURVE",
"167 836 OFFCURVE",
"171 809 CURVE SMOOTH",
"223 462 OFFCURVE",
"150 374 OFFCURVE",
"150 141 CURVE SMOOTH",
"150 91 OFFCURVE",
"224 65 OFFCURVE",
"267 31 CURVE SMOOTH",
"305 1 OFFCURVE",
"335 -22 OFFCURVE",
"371 -20 CURVE SMOOTH"
);
},
{
closed = 1;
nodes = (
"479 353 LINE",
"520 474 OFFCURVE",
"551 588 OFFCURVE",
"565 713 CURVE SMOOTH",
"567 736 LINE",
"629 721 OFFCURVE",
"695 710 OFFCURVE",
"772 690 CURVE",
"770 684 LINE",
"728 614 OFFCURVE",
"591 412 OFFCURVE",
"507 339 CURVE"
);
},
{
closed = 1;
nodes = (
"1367 1207 OFFCURVE",
"1397 1334 OFFCURVE",
"1367 1411 CURVE",
"986 1373 LINE",
"628 1343 LINE",
"605 1281 OFFCURVE",
"601 1209 OFFCURVE",
"615 1148 CURVE {name = hr00;}",
"927 1136 OFFCURVE",
"1242 1138 OFFCURVE",
"1313 1144 CURVE"
);
}
);
width = 1211;
}
);
leftKerningGroup = KO_dcroat;
rightKerningGroup = KO_dcroat;
unicode = 0111;
},
{
color = 4;
glyphname = e;
lastChange = "2022-07-29 03:42:50 +0000";
layers = (
{
anchors = (
{
name = bottom;
position = "{461, 0}";
},
{
name = ogonek;
position = "{829, 10}";
},
{
name = top;
position = "{622, 1182}";
}
);
layerId = "ED69ACE7-BE83-49AD-8DAF-057B7A1FF3CB";
paths = (
{
closed = 1;
nodes = (
"532 -20 OFFCURVE",
"806 192 OFFCURVE",
"898 299 CURVE",
"833 438 LINE",
"704 378 OFFCURVE",
"566 297 OFFCURVE",
"497 284 CURVE",
"469 284 LINE",
"668 449 OFFCURVE",
"944 721 OFFCURVE",
"964 751 CURVE SMOOTH {name = hr00;}",
"992 794 OFFCURVE",
"1006 885 OFFCURVE",
"1005 946 CURVE SMOOTH",
"1004 1003 OFFCURVE",
"999 1010 OFFCURVE",
"980 1018 CURVE SMOOTH",
"889 1054 OFFCURVE",
"833 1071 OFFCURVE",
"699 1173 CURVE SMOOTH",
"668 1197 OFFCURVE",
"646 1203 OFFCURVE",
"627 1204 CURVE",
"556 1204 OFFCURVE",
"428 1146 OFFCURVE",
"365 1109 CURVE SMOOTH",
"323 1084 OFFCURVE",
"169 984 OFFCURVE",
"169 910 CURVE SMOOTH",
"169 908 OFFCURVE",
"170 891 OFFCURVE",
"174 869 CURVE SMOOTH",
"179 831 OFFCURVE",
"182 778 OFFCURVE",
"182 697 CURVE SMOOTH",
"182 233 OFFCURVE",
"84 224 OFFCURVE",
"178 127 CURVE SMOOTH",
"184 120 OFFCURVE",
"211 96 OFFCURVE",
"231 75 CURVE SMOOTH",
"252 53 OFFCURVE",
"247 57 OFFCURVE",
"264 37 CURVE SMOOTH",
"298 -5 OFFCURVE",
"329 -20 OFFCURVE",
"358 -20 CURVE SMOOTH"
);
},
{
closed = 1;
nodes = (
"469 418 OFFCURVE",
"471 422 OFFCURVE",
"471 422 CURVE SMOOTH",
"497 521 OFFCURVE",
"538 762 OFFCURVE",
"549 831 CURVE",
"636 801 OFFCURVE",
"698 782 OFFCURVE",
"729 774 CURVE",
"656 640 OFFCURVE",
"536 501 OFFCURVE",
"469 417 CURVE"
);
}
);
userData = {
com.typemytype.robofont.guides = (
{
angle = 90;
isGlobal = 0;
x = 431;
y = 0;
}
);
};
width = 919;
}
);
leftKerningGroup = KO_e;
rightKerningGroup = KO_e;
unicode = 0065;
userData = {
KernOnName = e;
};
},
{
color = 4;
glyphname = eogonek;
lastChange = "2022-07-29 04:56:37 +0000";
layers = (
{
anchors = (
{
name = bottom;
position = "{475, 0}";
},
{
name = ogonek;
position = "{855, 10}";
},
{
name = top;
position = "{641, 1182}";
}
);
layerId = "ED69ACE7-BE83-49AD-8DAF-057B7A1FF3CB";
paths = (
{
closed = 1;
nodes = (
"548 -20 OFFCURVE",
"830 192 OFFCURVE",
"925 299 CURVE",
"860 438 LINE",
"726 378 OFFCURVE",
"582 297 OFFCURVE",
"512 284 CURVE",
"483 284 LINE",
"683 444 OFFCURVE",
"973 720 OFFCURVE",
"994 751 CURVE SMOOTH {name = hr00;}",
"1023 794 OFFCURVE",
"1037 886 OFFCURVE",
"1036 946 CURVE SMOOTH",
"1035 1007 OFFCURVE",
"1028 1011 OFFCURVE",
"1010 1018 CURVE SMOOTH",
"905 1059 OFFCURVE",
"864 1068 OFFCURVE",
"720 1174 CURVE SMOOTH",
"688 1197 OFFCURVE",
"665 1203 OFFCURVE",
"646 1204 CURVE",
"573 1204 OFFCURVE",
"441 1146 OFFCURVE",
"376 1109 CURVE SMOOTH",
"321 1077 OFFCURVE",
"174 979 OFFCURVE",
"174 912 CURVE SMOOTH",
"174 901 OFFCURVE",
"176 888 OFFCURVE",
"179 868 CURVE SMOOTH",
"185 833 OFFCURVE",
"188 765 OFFCURVE",
"188 697 CURVE SMOOTH",
"188 232 OFFCURVE",
"87 224 OFFCURVE",
"182 127 CURVE SMOOTH",
"191 118 OFFCURVE",
"213 100 OFFCURVE",
"238 75 CURVE SMOOTH",
"248 65 OFFCURVE",
"265 46 OFFCURVE",
"272 37 CURVE SMOOTH",
"306 -5 OFFCURVE",
"338 -20 OFFCURVE",
"369 -20 CURVE SMOOTH"
);
},
{
closed = 1;
nodes = (
"656 -438 OFFCURVE",
"745 -378 OFFCURVE",
"833 -243 CURVE",
"804 -116 LINE",
"598 -183 LINE",
"586 -170 LINE {name = hr00;}",
"689 -14 OFFCURVE",
"808 137 OFFCURVE",
"925 299 CURVE",
"821 209 LINE",
"784 187 OFFCURVE",
"604 179 OFFCURVE",
"526 116 CURVE",
"624 55 LINE",
"505 -32 OFFCURVE",
"324 -153 OFFCURVE",
"324 -245 CURVE SMOOTH",
"324 -326 OFFCURVE",
"451 -438 OFFCURVE",
"543 -438 CURVE SMOOTH"
);
},
{
closed = 1;
nodes = (
"484 418 OFFCURVE",
"484 418 OFFCURVE",
"485 420 CURVE SMOOTH",
"512 521 OFFCURVE",
"556 762 OFFCURVE",
"566 831 CURVE",
"653 802 OFFCURVE",
"716 782 OFFCURVE",
"752 774 CURVE",
"675 638 OFFCURVE",
"524 466 OFFCURVE",
"484 417 CURVE"
);
}
);
userData = {
com.typemytype.robofont.guides = (
{
angle = 90;
isGlobal = 0;
x = 884;
y = 0;
}
);
};
width = 949;
}
);
leftKerningGroup = KO_e;
rightKerningGroup = KO_eogonek;
unicode = 0119;
},
{
color = 4;
glyphname = eopen;
lastChange = "2022-07-29 03:43:44 +0000";
layers = (
{
layerId = "ED69ACE7-BE83-49AD-8DAF-057B7A1FF3CB";
paths = (
{
closed = 1;
nodes = (
"805 779 LINE",
"879 757 OFFCURVE",
"951 752 OFFCURVE",
"1031 780 CURVE",
"1076 864 OFFCURVE",
"1144 964 OFFCURVE",
"1094 1052 CURVE",
"1050 1102 OFFCURVE",
"940 1143 OFFCURVE",
"844 1169 CURVE SMOOTH",
"784 1185 OFFCURVE",
"731 1198 OFFCURVE",
"706 1198 CURVE SMOOTH",
"618 1198 OFFCURVE",
"345 1114 OFFCURVE",
"248 1039 CURVE",
"213 969 OFFCURVE",
"201 899 OFFCURVE",
"209 819 CURVE",
"292 725 OFFCURVE",
"432 667 OFFCURVE",
"519 629 CURVE",
"321 606 OFFCURVE",
"128 508 OFFCURVE",
"118 429 CURVE",
"155 255 OFFCURVE",
"229 111 OFFCURVE",
"289 44 CURVE",
"363 17 OFFCURVE",
"483 -5 OFFCURVE",
"586 -16 CURVE",
"777 38 OFFCURVE",
"835 80 OFFCURVE",
"938 124 CURVE",
"942 133 OFFCURVE",
"952 160 OFFCURVE",
"952 190 CURVE SMOOTH",
"952 230 OFFCURVE",
"937 278 OFFCURVE",
"904 304 CURVE",
"777 255 OFFCURVE",
"712 240 OFFCURVE",
"616 230 CURVE",
"582 241 OFFCURVE",
"558 245 OFFCURVE",
"529 267 CURVE",
"515 305 OFFCURVE",
"507 358 OFFCURVE",
"505 404 CURVE",
"549 459 OFFCURVE",
"604 498 OFFCURVE",
"659 525 CURVE",
"684 476 OFFCURVE",
"744 431 OFFCURVE",
"791 422 CURVE",
"871 437 OFFCURVE",
"963 538 OFFCURVE",
"906 634 CURVE",
"832 659 LINE",
"725 632 LINE",
"630 710 OFFCURVE",
"612 815 OFFCURVE",
"585 857 CURVE",
"591 876 LINE",
"770 940 LINE",
"797 927 LINE"
);
}
);
width = 1016;
}
);
leftKerningGroup = KO_eopen;
leftMetricsKey = o;
rightKerningGroup = KO_eopen;
rightMetricsKey = e;
unicode = 025B;
},
{
color = 4;
glyphname = schwa;
lastChange = "2022-07-29 03:42:50 +0000";
layers = (
{
layerId = "ED69ACE7-BE83-49AD-8DAF-057B7A1FF3CB";
paths = (
{
closed = 1;
nodes = (
"526 -22 OFFCURVE",
"654 36 OFFCURVE",
"717 73 CURVE SMOOTH",
"772 106 OFFCURVE",
"913 204 OFFCURVE",
"913 269 CURVE SMOOTH",
"913 271 OFFCURVE",
"912 292 OFFCURVE",
"908 315 CURVE SMOOTH",
"902 348 OFFCURVE",
"899 409 OFFCURVE",
"899 481 CURVE SMOOTH",
"899 951 OFFCURVE",
"997 957 OFFCURVE",
"904 1055 CURVE SMOOTH",
"893 1066 OFFCURVE",
"871 1087 OFFCURVE",
"852 1107 CURVE SMOOTH",
"829 1129 OFFCURVE",
"832 1127 OFFCURVE",
"818 1145 CURVE SMOOTH",
"784 1187 OFFCURVE",
"753 1202 OFFCURVE",
"724 1202 CURVE SMOOTH",
"551 1202 OFFCURVE",
"275 990 OFFCURVE",
"184 883 CURVE",
"247 744 LINE",
"383 807 OFFCURVE",
"517 885 OFFCURVE",
"585 898 CURVE",
"613 898 LINE",
"422 741 OFFCURVE",
"137 461 OFFCURVE",
"116 430 CURVE SMOOTH {name = hr00;}",
"90 389 OFFCURVE",
"76 298 OFFCURVE",
"77 236 CURVE SMOOTH",
"78 176 OFFCURVE",
"83 172 OFFCURVE",
"103 164 CURVE SMOOTH",
"195 127 OFFCURVE",
"243 114 OFFCURVE",
"383 8 CURVE SMOOTH",
"409 -12 OFFCURVE",
"435 -21 OFFCURVE",
"455 -22 CURVE"
);
},
{
closed = 1;
nodes = (
"452 379 OFFCURVE",
"380 401 OFFCURVE",
"352 408 CURVE",
"427 544 OFFCURVE",
"560 699 OFFCURVE",
"612 765 CURVE",
"611 764 OFFCURVE",
"610 760 OFFCURVE",
"610 760 CURVE SMOOTH",
"585 661 OFFCURVE",
"538 402 OFFCURVE",
"533 351 CURVE"
);
}
);
width = 921;
}
);
leftKerningGroup = KO_schwa;
rightKerningGroup = KO_schwa;
unicode = 0259;
},
{
color = 4;
glyphname = f;
lastChange = "2022-07-29 03:42:50 +0000";
layers = (
{
anchors = (
{
name = bottom;
position = "{361, 0}";
},
{
name = top;
position = "{585, 1613}";
}
);
layerId = "ED69ACE7-BE83-49AD-8DAF-057B7A1FF3CB";
paths = (
{
closed = 1;
nodes = (
"229 -431 OFFCURVE",
"391 -328 OFFCURVE",
"427 -214 CURVE",
"469 29 OFFCURVE",
"504 409 OFFCURVE",
"538 792 CURVE",
"578 768 OFFCURVE",
"659 728 OFFCURVE",
"739 731 CURVE",
"776 778 OFFCURVE",
"862 1000 OFFCURVE",
"814 1098 CURVE",
"552 1021 LINE",
"579 1366 LINE",
"612 1308 OFFCURVE",
"639 1241 OFFCURVE",
"807 1229 CURVE",
"885 1295 OFFCURVE",
"968 1494 OFFCURVE",
"943 1568 CURVE",
"837 1557 OFFCURVE",
"738 1576 OFFCURVE",
"585 1613 CURVE",
"326 1510 OFFCURVE",
"212 1301 OFFCURVE",
"190 1262 CURVE",
"167 1078 OFFCURVE",
"195 305 OFFCURVE",
"176 -143 CURVE",
"-17 -112 LINE {name = hr00;}",
"-46 -173 OFFCURVE",
"-65 -212 OFFCURVE",
"-74 -288 CURVE",
"-49 -334 OFFCURVE",
"5 -416 OFFCURVE",
"116 -438 CURVE"
);
}
);
userData = {
com.typemytype.robofont.guides = (
{
angle = 90;
isGlobal = 0;
x = 310;
y = 0;
}
);
};
width = 722;
}
);
leftKerningGroup = KO_f;
rightKerningGroup = KO_f;
unicode = 0066;
userData = {
KernOnName = f;
};
},
{
color = 4;
glyphname = g;
lastChange = "2022-07-29 03:42:50 +0000";
layers = (
{
anchors = (
{
name = bottom;
position = "{481, -540}";
},
{
name = top;
position = "{715, 1182}";
}
);
layerId = "ED69ACE7-BE83-49AD-8DAF-057B7A1FF3CB";
paths = (
{
closed = 1;
nodes = (
"614 -438 OFFCURVE",
"630 -437 OFFCURVE",
"643 -435 CURVE",
"822 -375 OFFCURVE",
"992 -228 OFFCURVE",
"1057 -62 CURVE",
"1032 696 LINE",
"1171 897 OFFCURVE",
"1191 978 OFFCURVE",
"1218 1060 CURVE",
"1217 1060 LINE",
"1218 1061 LINE",
"1161 1145 OFFCURVE",
"1084 1182 OFFCURVE",
"966 1182 CURVE SMOOTH {name = hr02;}",
"892 1182 OFFCURVE",
"823 1168 OFFCURVE",
"799 1154 CURVE",
"795 1122 OFFCURVE",
"789 1026 OFFCURVE",
"774 908 CURVE",
"729 1011 OFFCURVE",
"680 1129 OFFCURVE",
"586 1204 CURVE {name = hr03;}",
"544 1198 OFFCURVE",
"347 1162 OFFCURVE",
"205 1004 CURVE SMOOTH",
"177 973 OFFCURVE",
"172 958 OFFCURVE",
"172 936 CURVE SMOOTH",
"172 934 OFFCURVE",
"173 913 OFFCURVE",
"176 895 CURVE SMOOTH",
"184 835 OFFCURVE",
"187 776 OFFCURVE",
"187 701 CURVE SMOOTH",
"187 194 OFFCURVE",
"132 538 OFFCURVE",
"132 140 CURVE SMOOTH",
"132 91 OFFCURVE",
"203 65 OFFCURVE",
"243 31 CURVE SMOOTH",
"277 3 OFFCURVE",
"309 -21 OFFCURVE",
"343 -19 CURVE SMOOTH",
"364 -18 OFFCURVE",
"382 -9 OFFCURVE",
"401 5 CURVE",
"504 87 OFFCURVE",
"642 312 OFFCURVE",
"751 537 CURVE",
"762 528 LINE",
"735 340 OFFCURVE",
"719 41 OFFCURVE",
"684 -154 CURVE",
"595 -154 OFFCURVE",
"398 -128 OFFCURVE",
"306 -106 CURVE",
"279 -167 OFFCURVE",
"263 -203 OFFCURVE",
"258 -278 CURVE",
"290 -333 OFFCURVE",
"454 -438 OFFCURVE",
"601 -438 CURVE SMOOTH"
);
},
{
closed = 1;
nodes = (
"455 353 LINE {name = hr01;}",
"496 471 OFFCURVE",
"528 587 OFFCURVE",
"545 713 CURVE SMOOTH",
"560 820 LINE",
"619 805 OFFCURVE",
"682 794 OFFCURVE",
"757 774 CURVE",
"746 696 OFFCURVE",
"756 750 OFFCURVE",
"744 694 CURVE",
"699 619 OFFCURVE",
"564 412 OFFCURVE",
"482 339 CURVE"
);
}
);
userData = {
com.typemytype.robofont.guides = (
{
angle = 0;
isGlobal = 0;
x = 0;
y = 937;
},
{
angle = 90;
isGlobal = 0;
x = 542;
y = 0;
}
);
};
width = 1109;
}
);
leftKerningGroup = KO_g;
rightKerningGroup = KO_g;
unicode = 0067;
userData = {
KernOnName = g;
};
},
{
color = 4;
glyphname = h;
lastChange = "2022-07-29 03:42:50 +0000";
layers = (
{
anchors = (
{
name = bottom;
position = "{581, 0}";
},
{
name = center;
position = "{718, 1010}";
},
{
name = top;
position = "{485, 1551}";
}
);
layerId = "ED69ACE7-BE83-49AD-8DAF-057B7A1FF3CB";
paths = (
{
closed = 1;
nodes = (
"429 -20 OFFCURVE",
"489 -8 OFFCURVE",
"537 24 CURVE",
"540 158 OFFCURVE",
"519 266 OFFCURVE",
"501 360 CURVE",
"594 506 OFFCURVE",
"649 600 OFFCURVE",
"755 781 CURVE",
"780 772 LINE",
"680 221 LINE SMOOTH {name = hr00;}",
"669 159 OFFCURVE",
"681 121 OFFCURVE",
"719 73 CURVE SMOOTH",
"760 20 OFFCURVE",
"830 -20 OFFCURVE",
"891 -20 CURVE SMOOTH",
"1003 -20 OFFCURVE",
"1140 151 OFFCURVE",
"1198 279 CURVE",
"1129 400 LINE",
"953 311 LINE",
"1071 535 OFFCURVE",
"1184 867 OFFCURVE",
"1208 1038 CURVE",
"1094 1144 OFFCURVE",
"958 1182 OFFCURVE",
"885 1182 CURVE SMOOTH",
"830 1182 OFFCURVE",
"778 1170 OFFCURVE",
"757 1165 CURVE",
"642 953 OFFCURVE",
"573 744 OFFCURVE",
"472 514 CURVE",
"469 515 LINE",
"457 518 LINE",
"535 875 OFFCURVE",
"627 1224 OFFCURVE",
"679 1566 CURVE",
"639 1601 OFFCURVE",
"589 1614 OFFCURVE",
"533 1614 CURVE SMOOTH",
"416 1614 OFFCURVE",
"279 1545 OFFCURVE",
"210 1466 CURVE",
"209 1444 OFFCURVE",
"198 1326 OFFCURVE",
"198 1022 CURVE SMOOTH",
"198 757 OFFCURVE",
"205 437 OFFCURVE",
"228 370 CURVE",
"228 369 OFFCURVE",
"228 371 OFFCURVE",
"226 367 CURVE SMOOTH",
"187 285 OFFCURVE",
"162 215 OFFCURVE",
"117 66 CURVE",
"159 9 OFFCURVE",
"268 -20 OFFCURVE",
"364 -20 CURVE SMOOTH"
);
}
);
userData = {
com.typemytype.robofont.guides = (
{
angle = 90;
isGlobal = 0;
x = 771;
y = 0;
}
);
};
width = 1162;
}
);
leftKerningGroup = KO_h;
rightKerningGroup = KO_h;
unicode = 0068;
},
{
glyphname = hbar;
lastChange = "2022-07-29 04:56:57 +0000";
layers = (
{
layerId = "ED69ACE7-BE83-49AD-8DAF-057B7A1FF3CB";
paths = (
{
closed = 1;
nodes = (
"430 -22 OFFCURVE",
"501 -10 OFFCURVE",
"553 24 CURVE",
"557 158 OFFCURVE",
"535 264 OFFCURVE",
"516 360 CURVE",
"613 492 OFFCURVE",
"696 581 OFFCURVE",
"753 640 CURVE",
"778 631 LINE",
"698 201 OFFCURVE",
"697 277 OFFCURVE",
"697 178 CURVE SMOOTH",
"697 128 OFFCURVE",
"714 105 OFFCURVE",
"735 80 CURVE SMOOTH",
"782 22 OFFCURVE",
"858 -21 OFFCURVE",
"920 -20 CURVE SMOOTH",
"1036 -18 OFFCURVE",
"1182 140 OFFCURVE",
"1237 279 CURVE",
"1163 400 LINE",
"981 311 LINE",
"1104 533 OFFCURVE",
"1179 745 OFFCURVE",
"1220 897 CURVE",
"1101 1005 OFFCURVE",
"961 1042 OFFCURVE",
"887 1041 CURVE SMOOTH",
"830 1040 OFFCURVE",
"776 1030 OFFCURVE",
"755 1024 CURVE",
"650 846 OFFCURVE",
"586 733 OFFCURVE",
"487 514 CURVE",
"484 515 LINE",
"483 515 LINE",
"471 518 LINE",
"691 1566 LINE",
"651 1601 OFFCURVE",
"608 1615 OFFCURVE",
"549 1614 CURVE SMOOTH",
"429 1612 OFFCURVE",
"307 1546 OFFCURVE",
"236 1466 CURVE",
"221 1427 OFFCURVE",
"192 490 OFFCURVE",
"235 370 CURVE",
"235 369 OFFCURVE",
"233 368 OFFCURVE",
"233 367 CURVE SMOOTH",
"195 288 OFFCURVE",
"170 226 OFFCURVE",
"121 66 CURVE",
"163 11 OFFCURVE",
"265 -18 OFFCURVE",
"361 -20 CURVE SMOOTH"
);
},
{
closed = 1;
nodes = (
"394 1093 OFFCURVE",
"915 1104 OFFCURVE",
"986 1110 CURVE",
"1042 1196 OFFCURVE",
"1095 1338 OFFCURVE",
"1057 1414 CURVE",
"368 1333 LINE",
"92 1283 LINE",
"64 1218 OFFCURVE",
"66 1170 OFFCURVE",
"81 1105 CURVE {name = hr00;}"
);
}
);
width = 1198;
}
);
leftKerningGroup = KO_hbar;
rightKerningGroup = KO_hbar;
unicode = 0127;
},
{
glyphname = hcircumflex;
lastChange = "2022-05-20 04:44:53 +0000";
layers = (
{
anchors = (
{
name = _top;
position = "{230, 0}";
}
);
layerId = "ED69ACE7-BE83-49AD-8DAF-057B7A1FF3CB";
paths = (
{
closed = 1;
nodes = (
"444 -20 OFFCURVE",
"507 -8 OFFCURVE",
"551 24 CURVE",
"536 158 OFFCURVE",
"500 263 OFFCURVE",
"467 360 CURVE",
"543 506 OFFCURVE",
"604 638 OFFCURVE",
"670 781 CURVE",
"697 772 LINE",
"671 206 LINE SMOOTH",
"667 128 OFFCURVE",
"702 104 OFFCURVE",
"725 80 CURVE SMOOTH",
"782 20 OFFCURVE",
"862 -20 OFFCURVE",
"924 -20 CURVE {name = hr00;}",
"1040 -18 OFFCURVE",
"1164 140 OFFCURVE",
"1199 279 CURVE",
"1108 400 LINE",
"939 311 LINE",
"1030 533 OFFCURVE",
"1101 867 OFFCURVE",
"1101 1038 CURVE",
"966 1146 OFFCURVE",
"822 1182 OFFCURVE",
"748 1182 CURVE SMOOTH",
"691 1182 OFFCURVE",
"639 1170 OFFCURVE",
"618 1165 CURVE",
"530 953 OFFCURVE",
"484 733 OFFCURVE",
"416 514 CURVE",
"412 515 LINE",
"399 518 LINE",
"431 875 OFFCURVE",
"476 1144 OFFCURVE",
"482 1481 CURVE",
"436 1516 OFFCURVE",
"383 1529 OFFCURVE",
"324 1529 CURVE SMOOTH",
"204 1529 OFFCURVE",
"73 1460 OFFCURVE",
"12 1381 CURVE",
"12 1379 OFFCURVE",
"11 1377 OFFCURVE",
"11 1373 CURVE SMOOTH",
"11 1277 OFFCURVE",
"127 486 OFFCURVE",
"184 370 CURVE",
"184 369 OFFCURVE",
"183 369 OFFCURVE",
"183 368 CURVE SMOOTH",
"156 288 OFFCURVE",
"140 227 OFFCURVE",
"113 66 CURVE",
"164 9 OFFCURVE",
"280 -20 OFFCURVE",
"379 -20 CURVE SMOOTH"
);
},
{
closed = 1;
nodes = (
"83 1640 OFFCURVE",
"139 1706 OFFCURVE",
"199 1775 CURVE {name = hr00;}",
"280 1713 OFFCURVE",
"365 1642 OFFCURVE",
"454 1609 CURVE",
"521 1626 OFFCURVE",
"579 1709 OFFCURVE",
"597 1754 CURVE",
"389 2003 LINE",
"374 2006 OFFCURVE",
"355 2007 OFFCURVE",
"336 2007 CURVE SMOOTH",
"247 2007 OFFCURVE",
"104 1981 OFFCURVE",
"66 1947 CURVE",
"9 1855 OFFCURVE",
"-29 1811 OFFCURVE",
"-113 1731 CURVE",
"-86 1682 OFFCURVE",
"-37 1638 OFFCURVE",
"28 1609 CURVE"
);
}
);
width = 1199;
}
);
rightKerningGroup = KO_h;
unicode = 0125;
},
{
color = 4;
glyphname = idotless;
lastChange = "2022-07-29 03:42:50 +0000";
layers = (
{
anchors = (
{
name = bottom;
position = "{299, 0}";
},
{
name = ogonek;
position = "{538, 10}";
},
{
name = top;
position = "{459, 1182}";
}
);
layerId = "ED69ACE7-BE83-49AD-8DAF-057B7A1FF3CB";
paths = (
{
closed = 1;
nodes = (
"457 -20 OFFCURVE",
"579 152 OFFCURVE",
"636 256 CURVE",
"576 381 LINE",
"422 314 LINE",
"451 392 LINE SMOOTH",
"534 613 OFFCURVE",
"631 1056 OFFCURVE",
"646 1105 CURVE",
"606 1146 OFFCURVE",
"552 1163 OFFCURVE",
"494 1163 CURVE SMOOTH",
"372 1163 OFFCURVE",
"232 1091 OFFCURVE",
"164 1018 CURVE",
"219 497 LINE",
"95 237 OFFCURVE",
"89 238 OFFCURVE",
"89 199 CURVE SMOOTH",
"89 95 OFFCURVE",
"244 -20 OFFCURVE",
"332 -20 CURVE SMOOTH {name = hr00;}"
);
}
);
userData = {
com.typemytype.robofont.guides = (
{
angle = 90;
isGlobal = 0;
x = 268;
y = 0;
}
);
};
width = 597;
}
);
leftKerningGroup = KO_idotless;
rightKerningGroup = KO_idotless;
unicode = 0131;
},
{
glyphname = iogonek;
layers = (
{
components = (
{
name = i;
},
{
name = ogonek;
transform = "{1, 0, 0, 1, 74, 0}";
}
);
layerId = "ED69ACE7-BE83-49AD-8DAF-057B7A1FF3CB";
paths = (
{
closed = 1;
nodes = (
"541 114 LINE",
"464 195 LINE",
"349 -176 LINE {name = hr00;}"
);
}
);
width = 615;
}
);
leftKerningGroup = KO_i;
rightKerningGroup = KO_i;
unicode = 012F;
},
{
glyphname = istroke;
lastChange = "2022-07-29 03:43:44 +0000";
layers = (
{
anchors = (
{
name = bottom;
position = "{388, 0}";
}
);
layerId = "ED69ACE7-BE83-49AD-8DAF-057B7A1FF3CB";
paths = (
{
closed = 1;
nodes = (
"553 -20 OFFCURVE",
"680 158 OFFCURVE",
"736 256 CURVE",
"674 381 LINE",
"515 314 LINE",
"545 392 LINE SMOOTH",
"630 613 OFFCURVE",
"730 1056 OFFCURVE",
"746 1105 CURVE",
"705 1146 OFFCURVE",
"650 1163 OFFCURVE",
"589 1163 CURVE SMOOTH",
"465 1163 OFFCURVE",
"319 1091 OFFCURVE",
"249 1018 CURVE",
"307 497 LINE",
"177 236 OFFCURVE",
"172 238 OFFCURVE",
"172 198 CURVE SMOOTH",
"172 94 OFFCURVE",
"332 -20 OFFCURVE",
"422 -20 CURVE SMOOTH {name = hr00;}"
);
},
{
closed = 1;
nodes = (
"645 1283 OFFCURVE",
"764 1372 OFFCURVE",
"817 1464 CURVE",
"804 1633 OFFCURVE",
"633 1681 OFFCURVE",
"510 1681 CURVE {name = hr00;}",
"465 1580 OFFCURVE",
"430 1520 OFFCURVE",
"360 1392 CURVE",
"370 1331 OFFCURVE",
"461 1253 OFFCURVE",
"557 1247 CURVE"
);
},
{
closed = 1;
nodes = (
"445 637 OFFCURVE",
"691 649 OFFCURVE",
"762 655 CURVE",
"816 719 OFFCURVE",
"845 846 OFFCURVE",
"815 922 CURVE",
"411 884 LINE",
"145 834 LINE",
"121 769 OFFCURVE",
"118 714 OFFCURVE",
"133 649 CURVE"
);
}
);
width = 896;
}
);
leftKerningGroup = KO_istroke;
leftMetricsKey = t;
rightMetricsKey = "=|";
unicode = 0268;
},
{
color = 4;
glyphname = j;
lastChange = "2022-07-29 03:42:50 +0000";
layers = (
{
layerId = "ED69ACE7-BE83-49AD-8DAF-057B7A1FF3CB";
paths = (
{
closed = 1;
nodes = (
"275 -438 OFFCURVE",
"423 -310 OFFCURVE",
"438 -254 CURVE",
"482 -56 OFFCURVE",
"452 291 OFFCURVE",
"445 373 CURVE",
"441 371 LINE",
"448 393 LINE",
"461 428 LINE SMOOTH",
"540 649 OFFCURVE",
"646 1102 OFFCURVE",
"647 1105 CURVE",
"607 1145 OFFCURVE",
"555 1163 OFFCURVE",
"498 1163 CURVE SMOOTH",
"375 1163 OFFCURVE",
"234 1092 OFFCURVE",
"165 1018 CURVE",
"226 565 LINE",
"99 -134 LINE",
"39 -125 OFFCURVE",
"-16 -116 OFFCURVE",
"-49 -113 CURVE",
"-75 -172 OFFCURVE",
"-81 -200 OFFCURVE",
"-86 -281 CURVE",
"-55 -332 OFFCURVE",
"49 -417 OFFCURVE",
"157 -438 CURVE"
);
},
{
closed = 1;
nodes = (
"491 1210 OFFCURVE",
"671 1354 OFFCURVE",
"726 1445 CURVE",
"709 1614 OFFCURVE",
"552 1662 OFFCURVE",
"420 1662 CURVE {name = hr00;}",
"372 1561 OFFCURVE",
"317 1459 OFFCURVE",
"240 1321 CURVE",
"276 1265 OFFCURVE",
"370 1199 OFFCURVE",
"418 1198 CURVE"
);
}
);
width = 547;
}
);
leftKerningGroup = KO_j;
rightKerningGroup = KO_j;
unicode = 006A;
userData = {
KernOnName = j;
};
},
{
color = 4;
glyphname = jdotless;
lastChange = "2022-07-29 03:42:50 +0000";
layers = (
{
anchors = (
{
name = bottom;
position = "{200, -540}";
},
{
name = top;
position = "{434, 1182}";
}
);
layerId = "ED69ACE7-BE83-49AD-8DAF-057B7A1FF3CB";
paths = (
{
closed = 1;
nodes = (
"274 -438 OFFCURVE",
"422 -310 OFFCURVE",
"437 -254 CURVE",
"481 -56 OFFCURVE",
"451 293 OFFCURVE",
"444 373 CURVE",
"440 371 LINE",
"447 393 LINE {name = hr00;}",
"460 428 LINE SMOOTH",
"539 649 OFFCURVE",
"645 1102 OFFCURVE",
"645 1105 CURVE",
"606 1145 OFFCURVE",
"552 1163 OFFCURVE",
"496 1163 CURVE SMOOTH",
"375 1163 OFFCURVE",
"232 1092 OFFCURVE",
"163 1018 CURVE",
"225 565 LINE",
"97 -134 LINE",
"41 -126 OFFCURVE",
"-24 -112 OFFCURVE",
"-40 -109 CURVE",
"-65 -169 OFFCURVE",
"-82 -204 OFFCURVE",
"-87 -281 CURVE",
"-60 -327 OFFCURVE",
"44 -416 OFFCURVE",
"156 -438 CURVE"
);
}
);
userData = {
com.typemytype.robofont.guides = (
{
angle = 90;
isGlobal = 0;
x = 271;
y = 0;
}
);
};
width = 547;
}
);
unicode = 0237;
},
{
color = 4;
glyphname = k;
lastChange = "2022-07-29 03:42:50 +0000";
layers = (
{
anchors = (
{
name = bottom;
position = "{539, 0}";
},
{
name = top;
position = "{467, 1529}";
}
);
layerId = "ED69ACE7-BE83-49AD-8DAF-057B7A1FF3CB";
paths = (
{
closed = 1;
nodes = (
"396 49 OFFCURVE",
"494 145 OFFCURVE",
"601 250 CURVE",
"618 137 OFFCURVE",
"656 26 OFFCURVE",
"743 -3 CURVE SMOOTH",
"779 -15 OFFCURVE",
"809 -20 OFFCURVE",
"839 -20 CURVE SMOOTH",
"924 -20 OFFCURVE",
"1002 21 OFFCURVE",
"1059 119 CURVE SMOOTH",
"1100 188 OFFCURVE",
"1116 248 OFFCURVE",
"1128 347 CURVE",
"1027 438 LINE",
"984 397 OFFCURVE",
"945 367 OFFCURVE",
"899 345 CURVE",
"873 377 OFFCURVE",
"832 433 OFFCURVE",
"817 460 CURVE",
"954 599 OFFCURVE",
"1063 741 OFFCURVE",
"1111 807 CURVE",
"1129 944 OFFCURVE",
"1074 1118 OFFCURVE",
"999 1204 CURVE",
"874 1199 OFFCURVE",
"693 1096 OFFCURVE",
"612 965 CURVE",
"637 877 OFFCURVE",
"677 812 OFFCURVE",
"731 760 CURVE",
"641 594 OFFCURVE",
"539 421 OFFCURVE",
"425 260 CURVE",
"416 265 LINE {name = hr00;}",
"506 603 OFFCURVE",
"644 1208 OFFCURVE",
"679 1566 CURVE",
"640 1601 OFFCURVE",
"593 1614 OFFCURVE",
"532 1613 CURVE SMOOTH",
"413 1612 OFFCURVE",
"273 1548 OFFCURVE",
"198 1466 CURVE",
"204 1144 OFFCURVE",
"214 938 OFFCURVE",
"259 662 CURVE",
"193 508 OFFCURVE",
"132 294 OFFCURVE",
"100 105 CURVE",
"137 45 OFFCURVE",
"245 -14 OFFCURVE",
"287 -20 CURVE"
);
}
);
userData = {
com.typemytype.robofont.guides = (
{
angle = 90;
isGlobal = 0;
x = 527;
y = 0;
}
);
};
width = 1079;
}
);
leftKerningGroup = KO_k;
rightKerningGroup = KO_k;
unicode = 006B;
userData = {
KernOnName = k;
};
},
{
glyphname = kgreenlandic;
lastChange = "2022-05-20 00:37:12 +0000";
layers = (
{
layerId = "ED69ACE7-BE83-49AD-8DAF-057B7A1FF3CB";
paths = (
{
closed = 1;
nodes = (
"363 49 OFFCURVE",
"456 148 OFFCURVE",
"554 250 CURVE",
"583 138 OFFCURVE",
"634 26 OFFCURVE",
"727 -3 CURVE SMOOTH",
"761 -14 OFFCURVE",
"795 -20 OFFCURVE",
"827 -20 CURVE SMOOTH",
"915 -21 OFFCURVE",
"991 21 OFFCURVE",
"1039 117 CURVE SMOOTH",
"1074 188 OFFCURVE",
"1084 242 OFFCURVE",
"1088 347 CURVE",
"973 438 LINE",
"933 396 OFFCURVE",
"892 365 OFFCURVE",
"852 345 CURVE",
"821 377 OFFCURVE",
"774 431 OFFCURVE",
"755 460 CURVE",
"881 599 OFFCURVE",
"981 743 OFFCURVE",
"1020 807 CURVE",
"1026 942 OFFCURVE",
"951 1118 OFFCURVE",
"864 1204 CURVE",
"735 1199 OFFCURVE",
"558 1096 OFFCURVE",
"490 965 CURVE",
"524 864 OFFCURVE",
"579 817 OFFCURVE",
"634 760 CURVE",
"557 594 OFFCURVE",
"470 415 OFFCURVE",
"372 260 CURVE",
"361 265 LINE",
"401 496 OFFCURVE",
"451 854 OFFCURVE",
"477 1170 CURVE",
"447 1198 OFFCURVE",
"393 1212 OFFCURVE",
"331 1212 CURVE SMOOTH",
"223 1212 OFFCURVE",
"77 1169 OFFCURVE",
"27 1089 CURVE",
"17 1053 OFFCURVE",
"105 518 OFFCURVE",
"153 396 CURVE",
"120 324 OFFCURVE",
"68 211 OFFCURVE",
"52 105 CURVE {name = hr00;}",
"96 45 OFFCURVE",
"215 -14 OFFCURVE",
"258 -20 CURVE"
);
}
);
width = 1089;
}
);
leftKerningGroup = KO_s;
unicode = 0138;
},
{
color = 4;
glyphname = l;
lastChange = "2022-07-29 03:42:50 +0000";
layers = (
{
anchors = (
{
name = bottom;
position = "{304, 0}";
},
{
name = center;
position = "{393, 799}";
},
{
name = top;
position = "{521, 1598}";
},
{
name = topright;
position = "{805, 1601}";
}
);
layerId = "ED69ACE7-BE83-49AD-8DAF-057B7A1FF3CB";
paths = (
{
closed = 1;
nodes = (
"463 -20 OFFCURVE",
"595 138 OFFCURVE",
"648 254 CURVE",
"588 381 LINE",
"439 314 LINE",
"578 919 OFFCURVE",
"644 1225 OFFCURVE",
"702 1566 CURVE",
"665 1601 OFFCURVE",
"617 1614 OFFCURVE",
"559 1613 CURVE SMOOTH",
"443 1612 OFFCURVE",
"308 1548 OFFCURVE",
"235 1466 CURVE",
"226 1436 OFFCURVE",
"212 916 OFFCURVE",
"227 606 CURVE",
"112 249 LINE SMOOTH",
"93 192 OFFCURVE",
"104 162 OFFCURVE",
"121 137 CURVE SMOOTH",
"169 68 OFFCURVE",
"250 -20 OFFCURVE",
"340 -20 CURVE SMOOTH {name = hr00;}"
);
}
);
userData = {
com.typemytype.robofont.guides = (
{
angle = 90;
isGlobal = 0;
x = 279;
y = 0;
}
);
};
width = 607;
}
);
leftKerningGroup = KO_l;
rightKerningGroup = KO_l;
unicode = 006C;
userData = {
KernOnName = l;
};
},
{
glyphname = lslash;
lastChange = "2022-05-20 00:37:12 +0000";
layers = (
{
layerId = "ED69ACE7-BE83-49AD-8DAF-057B7A1FF3CB";
paths = (
{
closed = 1;
nodes = (
"509 -20 OFFCURVE",
"672 175 OFFCURVE",
"710 291 CURVE",
"630 418 LINE",
"431 314 LINE",
"490 919 OFFCURVE",
"509 1250 OFFCURVE",
"520 1566 CURVE",
"477 1601 OFFCURVE",
"437 1614 OFFCURVE",
"380 1613 CURVE SMOOTH",
"261 1612 OFFCURVE",
"131 1547 OFFCURVE",
"67 1466 CURVE",
"62 1437 OFFCURVE",
"131 977 OFFCURVE",
"191 662 CURVE",
"110 249 LINE SMOOTH",
"99 192 OFFCURVE",
"115 161 OFFCURVE",
"135 138 CURVE SMOOTH",
"194 68 OFFCURVE",
"291 -20 OFFCURVE",
"383 -20 CURVE SMOOTH"
);
},
{
closed = 1;
nodes = (
"722 945 LINE",
"737 1037 OFFCURVE",
"710 1152 OFFCURVE",
"662 1181 CURVE",
"-14 723 LINE {name = hr00;}",
"-8 661 OFFCURVE",
"44 586 OFFCURVE",
"87 562 CURVE"
);
}
);
width = 741;
}
);
leftKerningGroup = KO_lslash;
rightKerningGroup = KO_lslash;
unicode = 0142;
},
{
color = 4;
glyphname = m;
lastChange = "2022-07-29 03:42:50 +0000";
layers = (
{
anchors = (
{
name = bottom;
position = "{826, 0}";
},
{
name = top;
position = "{986, 1182}";
}
);
layerId = "ED69ACE7-BE83-49AD-8DAF-057B7A1FF3CB";
paths = (
{
closed = 1;
nodes = (
"402 -20 OFFCURVE",
"467 -5 OFFCURVE",
"515 27 CURVE",
"518 163 OFFCURVE",
"496 270 OFFCURVE",
"478 360 CURVE",
"526 444 OFFCURVE",
"728 776 OFFCURVE",
"729 778 CURVE",
"752 774 LINE",
"726 366 LINE",
"700 286 OFFCURVE",
"667 248 OFFCURVE",
"627 65 CURVE",
"664 12 OFFCURVE",
"750 -20 OFFCURVE",
"838 -20 CURVE SMOOTH",
"904 -20 OFFCURVE",
"967 -3 OFFCURVE",
"1016 31 CURVE",
"1023 153 OFFCURVE",
"1027 236 OFFCURVE",
"1003 363 CURVE",
"1048 445 OFFCURVE",
"1183 637 OFFCURVE",
"1268 769 CURVE",
"1290 764 LINE",
"1247 565 OFFCURVE",
"1213 399 OFFCURVE",
"1180 221 CURVE SMOOTH {name = hr01;}",
"1168 160 OFFCURVE",
"1181 120 OFFCURVE",
"1220 71 CURVE SMOOTH",
"1260 20 OFFCURVE",
"1331 -20 OFFCURVE",
"1392 -20 CURVE SMOOTH",
"1504 -20 OFFCURVE",
"1640 151 OFFCURVE",
"1698 279 CURVE",
"1630 400 LINE",
"1451 311 LINE",
"1609 622 OFFCURVE",
"1680 885 OFFCURVE",
"1711 1059 CURVE",
"1597 1167 OFFCURVE",
"1446 1184 OFFCURVE",
"1376 1183 CURVE SMOOTH {name = hr02;}",
"1321 1182 OFFCURVE",
"1296 1172 OFFCURVE",
"1274 1166 CURVE",
"1006 543 LINE",
"978 549 LINE",
"1044 762 OFFCURVE",
"1108 914 OFFCURVE",
"1120 1106 CURVE",
"1045 1160 OFFCURVE",
"938 1183 OFFCURVE",
"867 1183 CURVE SMOOTH",
"811 1183 OFFCURVE",
"761 1188 OFFCURVE",
"714 1170 CURVE",
"466 514 LINE",
"440 517 LINE",
"597 1145 LINE {name = hr03;}",
"569 1173 OFFCURVE",
"519 1186 OFFCURVE",
"460 1186 CURVE SMOOTH",
"356 1186 OFFCURVE",
"210 1141 OFFCURVE",
"152 1061 CURVE",
"140 1025 OFFCURVE",
"163 505 OFFCURVE",
"203 368 CURVE",
"157 253 OFFCURVE",
"146 230 OFFCURVE",
"95 69 CURVE",
"136 13 OFFCURVE",
"237 -20 OFFCURVE",
"337 -20 CURVE SMOOTH"
);
}
);
userData = {
com.typemytype.robofont.guides = (
{
angle = 0;
isGlobal = 0;
x = 0;
y = 563;
},
{
angle = 0;
isGlobal = 0;
x = 0;
y = 366;
},
{
angle = 0;
isGlobal = 0;
x = 0;
y = 788;
},
{
angle = 90;
isGlobal = 0;
x = 867;
y = 0;
}
);
};
width = 1653;
}
);
leftKerningGroup = KO_m;
rightKerningGroup = KO_m;
unicode = 006D;
userData = {
KernOnName = m;
};
},
{
color = 4;
glyphname = n;
lastChange = "2022-07-29 03:42:50 +0000";
layers = (
{
anchors = (
{
name = bottom;
position = "{630, 0}";
},
{
name = top;
position = "{738, 1182}";
}
);
layerId = "ED69ACE7-BE83-49AD-8DAF-057B7A1FF3CB";
paths = (
{
closed = 1;
nodes = (
"422 -20 OFFCURVE",
"483 -8 OFFCURVE",
"533 24 CURVE",
"527 156 OFFCURVE",
"516 253 OFFCURVE",
"496 360 CURVE",
"583 497 OFFCURVE",
"665 638 OFFCURVE",
"748 781 CURVE",
"775 772 LINE {name = hr00;}",
"675 221 LINE SMOOTH",
"663 155 OFFCURVE",
"676 121 OFFCURVE",
"714 73 CURVE SMOOTH",
"755 20 OFFCURVE",
"825 -20 OFFCURVE",
"887 -20 CURVE SMOOTH",
"998 -20 OFFCURVE",
"1135 151 OFFCURVE",
"1193 279 CURVE",
"1124 400 LINE",
"948 311 LINE",
"1066 535 OFFCURVE",
"1180 867 OFFCURVE",
"1203 1038 CURVE",
"1129 1144 OFFCURVE",
"1006 1180 OFFCURVE",
"882 1180 CURVE SMOOTH",
"835 1180 OFFCURVE",
"790 1177 OFFCURVE",
"751 1165 CURVE",
"634 950 OFFCURVE",
"564 727 OFFCURVE",
"472 514 CURVE",
"457 517 LINE",
"613 1143 LINE",
"587 1171 OFFCURVE",
"536 1180 OFFCURVE",
"477 1180 CURVE SMOOTH",
"367 1180 OFFCURVE",
"224 1138 OFFCURVE",
"171 1061 CURVE",
"169 1053 OFFCURVE",
"166 1053 OFFCURVE",
"166 1006 CURVE SMOOTH",
"166 864 OFFCURVE",
"193 470 OFFCURVE",
"222 368 CURVE",
"185 288 OFFCURVE",
"161 224 OFFCURVE",
"113 66 CURVE",
"154 9 OFFCURVE",
"262 -20 OFFCURVE",
"344 -20 CURVE SMOOTH"
);
}
);
userData = {
com.typemytype.robofont.guides = (
{
angle = 0;
isGlobal = 0;
x = 0;
y = 719;
},
{
angle = 90;
isGlobal = 0;
x = 575;
y = 0;
}
);
};
width = 1156;
}
);
leftKerningGroup = KO_n;
rightKerningGroup = KO_n;
unicode = 006E;
userData = {
KernOnName = n;
};
},
{
color = 4;
glyphname = eng;
lastChange = "2022-07-29 03:42:50 +0000";
layers = (
{
layerId = "ED69ACE7-BE83-49AD-8DAF-057B7A1FF3CB";
paths = (
{
closed = 1;
nodes = (
"807 -438 OFFCURVE",
"952 -311 OFFCURVE",
"965 -254 CURVE",
"998 -69 OFFCURVE",
"967 223 OFFCURVE",
"951 365 CURVE",
"1066 584 OFFCURVE",
"1176 879 OFFCURVE",
"1203 1038 CURVE",
"1132 1144 OFFCURVE",
"1010 1180 OFFCURVE",
"885 1180 CURVE SMOOTH",
"838 1180 OFFCURVE",
"793 1177 OFFCURVE",
"755 1165 CURVE",
"632 953 OFFCURVE",
"555 733 OFFCURVE",
"454 514 CURVE",
"438 517 LINE",
"616 1143 LINE",
"591 1171 OFFCURVE",
"540 1180 OFFCURVE",
"481 1180 CURVE SMOOTH",
"369 1180 OFFCURVE",
"226 1137 OFFCURVE",
"171 1061 CURVE",
"155 1023 OFFCURVE",
"169 488 OFFCURVE",
"199 368 CURVE",
"156 281 OFFCURVE",
"133 225 OFFCURVE",
"80 66 CURVE",
"118 11 OFFCURVE",
"214 -18 OFFCURVE",
"308 -20 CURVE SMOOTH",
"377 -22 OFFCURVE",
"444 -10 OFFCURVE",
"498 24 CURVE",
"504 158 OFFCURVE",
"487 265 OFFCURVE",
"472 360 CURVE",
"572 509 OFFCURVE",
"668 665 OFFCURVE",
"739 781 CURVE",
"765 772 LINE {name = hr00;}",
"687 394 LINE",
"621 -134 LINE",
"572 -127 OFFCURVE",
"514 -116 OFFCURVE",
"484 -109 CURVE",
"460 -169 OFFCURVE",
"444 -205 OFFCURVE",
"442 -281 CURVE",
"469 -326 OFFCURVE",
"575 -416 OFFCURVE",
"690 -438 CURVE"
);
}
);
width = 1075;
}
);
leftKerningGroup = KO_eng;
rightKerningGroup = KO_eng;
unicode = 014B;
},
{
color = 4;
glyphname = nhookleft;
lastChange = "2022-07-29 03:42:50 +0000";
layers = (
{
anchors = (
{
name = bottom;
position = "{572, 0}";
},
{
name = top;
position = "{738, 1182}";
}
);
layerId = "ED69ACE7-BE83-49AD-8DAF-057B7A1FF3CB";
paths = (
{
closed = 1;
nodes = (
"1065 534 OFFCURVE",
"1179 867 OFFCURVE",
"1202 1038 CURVE",
"1130 1142 OFFCURVE",
"1009 1180 OFFCURVE",
"881 1180 CURVE SMOOTH",
"835 1180 OFFCURVE",
"789 1177 OFFCURVE",
"750 1165 CURVE",
"634 953 OFFCURVE",
"565 733 OFFCURVE",
"471 514 CURVE",
"457 517 LINE",
"612 1143 LINE",
"586 1171 OFFCURVE",
"536 1180 OFFCURVE",
"476 1180 CURVE SMOOTH",
"372 1180 OFFCURVE",
"226 1141 OFFCURVE",
"170 1061 CURVE",
"155 962 OFFCURVE",
"192 472 OFFCURVE",
"221 368 CURVE",
"85 -160 LINE",
"29 -152 OFFCURVE",
"-36 -138 OFFCURVE",
"-51 -135 CURVE",
"-76 -198 OFFCURVE",
"-91 -230 OFFCURVE",
"-93 -307 CURVE",
"-65 -353 OFFCURVE",
"42 -442 OFFCURVE",
"155 -464 CURVE",
"275 -464 OFFCURVE",
"417 -336 OFFCURVE",
"431 -280 CURVE",
"465 -94 OFFCURVE",
"495 234 OFFCURVE",
"485 337 CURVE",
"527 407 OFFCURVE",
"719 733 OFFCURVE",
"747 781 CURVE",
"774 772 LINE {name = hr00;}",
"674 221 LINE SMOOTH",
"663 157 OFFCURVE",
"675 122 OFFCURVE",
"715 71 CURVE SMOOTH",
"755 20 OFFCURVE",
"825 -20 OFFCURVE",
"886 -20 CURVE SMOOTH",
"997 -20 OFFCURVE",
"1134 151 OFFCURVE",
"1193 279 CURVE",
"1123 400 LINE",
"947 311 LINE"
);
}
);
width = 1156;
}
);
widthMetricsKey = n;
rightKerningGroup = KO_n;
rightMetricsKey = n;
unicode = 0272;
},
{
color = 4;
glyphname = o;
lastChange = "2022-07-29 03:42:50 +0000";
layers = (
{
anchors = (
{
name = bottom;
position = "{527, 0}";
},
{
name = center;
position = "{607, 591}";
},
{
name = ogonek;
position = "{878, 10}";
},
{
name = top;
position = "{678, 1182}";
},
{
name = topright;
position = "{1266, 1182}";
}
);
layerId = "ED69ACE7-BE83-49AD-8DAF-057B7A1FF3CB";
paths = (
{
closed = 1;
nodes = (
"617 -13 OFFCURVE",
"677 8 OFFCURVE",
"766 52 CURVE SMOOTH",
"833 85 OFFCURVE",
"912 130 OFFCURVE",
"941 160 CURVE",
"1027 376 OFFCURVE",
"1114 768 OFFCURVE",
"1114 942 CURVE SMOOTH",
"1114 959 OFFCURVE",
"1113 975 OFFCURVE",
"1112 987 CURVE",
"1040 1092 OFFCURVE",
"835 1188 OFFCURVE",
"674 1204 CURVE {name = hr00;}",
"574 1190 OFFCURVE",
"283 1080 OFFCURVE",
"214 1006 CURVE",
"137 730 OFFCURVE",
"138 438 OFFCURVE",
"142 136 CURVE",
"203 63 OFFCURVE",
"425 -8 OFFCURVE",
"554 -20 CURVE"
);
},
{
closed = 1;
nodes = (
"539 236 OFFCURVE",
"494 264 OFFCURVE",
"455 292 CURVE",
"460 393 OFFCURVE",
"470 499 OFFCURVE",
"483 593 CURVE SMOOTH",
"493 664 OFFCURVE",
"506 744 OFFCURVE",
"527 834 CURVE",
"589 863 LINE",
"730 800 LINE",
"727 689 OFFCURVE",
"719 590 OFFCURVE",
"703 479 CURVE SMOOTH",
"693 401 OFFCURVE",
"683 334 OFFCURVE",
"665 258 CURVE",
"607 220 LINE"
);
}
);
userData = {
com.typemytype.robofont.guides = (
{
angle = 90;
isGlobal = 0;
x = 534;
y = 0;
}
);
};
width = 1051;
}
);
leftKerningGroup = KO_o;
rightKerningGroup = KO_o;
unicode = 006F;
userData = {
KernOnName = o;
};
},
{
color = 4;
glyphname = oopen;
lastChange = "2022-07-29 03:42:50 +0000";
layers = (
{
anchors = (
{
name = bottom;
position = "{437, 0}";
},
{
name = top;
position = "{598, 1182}";
}
);
layerId = "ED69ACE7-BE83-49AD-8DAF-057B7A1FF3CB";
paths = (
{
closed = 1;
nodes = (
"546 -20 OFFCURVE",
"705 109 OFFCURVE",
"730 128 CURVE SMOOTH",
"808 188 OFFCURVE",
"794 212 OFFCURVE",
"796 273 CURVE SMOOTH {name = hr00;}",
"800 398 OFFCURVE",
"882 759 OFFCURVE",
"932 868 CURVE SMOOTH",
"952 909 OFFCURVE",
"957 922 OFFCURVE",
"957 936 CURVE SMOOTH",
"957 993 OFFCURVE",
"853 1082 OFFCURVE",
"810 1111 CURVE SMOOTH",
"762 1143 OFFCURVE",
"651 1204 OFFCURVE",
"591 1204 CURVE SMOOTH",
"533 1204 OFFCURVE",
"405 1130 OFFCURVE",
"355 1107 CURVE",
"168 1059 LINE",
"103 830 OFFCURVE",
"237 649 OFFCURVE",
"285 633 CURVE",
"392 693 OFFCURVE",
"470 799 OFFCURVE",
"547 889 CURVE",
"512 745 OFFCURVE",
"481 476 OFFCURVE",
"492 300 CURVE",
"471 284 LINE",
"431 303 OFFCURVE",
"303 373 OFFCURVE",
"184 443 CURVE",
"66 290 LINE",
"100 204 OFFCURVE",
"307 -20 OFFCURVE",
"458 -20 CURVE SMOOTH"
);
}
);
width = 875;
}
);
rightKerningGroup = KO_oopen;
unicode = 0254;
},
{
color = 4;
glyphname = oslash;
lastChange = "2022-07-29 03:42:50 +0000";
layers = (
{
anchors = (
{
name = bottom;
position = "{526, 0}";
},
{
name = center;
position = "{605, 591}";
},
{
name = ogonek;
position = "{950, 10}";
},
{
name = top;
position = "{676, 1182}";
},
{
name = topright;
position = "{1326, 1182}";
}
);
layerId = "ED69ACE7-BE83-49AD-8DAF-057B7A1FF3CB";
paths = (
{
closed = 1;
nodes = (
"611 -14 OFFCURVE",
"682 11 OFFCURVE",
"766 52 CURVE SMOOTH",
"825 81 OFFCURVE",
"920 136 OFFCURVE",
"939 160 CURVE",
"1019 359 OFFCURVE",
"1112 753 OFFCURVE",
"1112 950 CURVE SMOOTH",
"1112 963 OFFCURVE",
"1112 974 OFFCURVE",
"1111 987 CURVE",
"1040 1092 OFFCURVE",
"832 1188 OFFCURVE",
"674 1204 CURVE {name = hr00;}",
"573 1190 OFFCURVE",
"282 1079 OFFCURVE",
"214 1006 CURVE",
"136 730 OFFCURVE",
"136 440 OFFCURVE",
"140 136 CURVE",
"202 63 OFFCURVE",
"424 -8 OFFCURVE",
"552 -20 CURVE"
);
},
{
closed = 1;
nodes = (
"474 154 LINE",
"343 351 LINE",
"86 -106 LINE",
"116 -187 OFFCURVE",
"167 -210 OFFCURVE",
"237 -218 CURVE"
);
},
{
closed = 1;
nodes = (
"542 213 OFFCURVE",
"489 239 OFFCURVE",
"438 277 CURVE",
"443 390 OFFCURVE",
"454 495 OFFCURVE",
"469 601 CURVE SMOOTH",
"479 679 OFFCURVE",
"495 767 OFFCURVE",
"515 852 CURVE",
"581 883 LINE",
"730 816 LINE",
"730 814 OFFCURVE",
"730 811 OFFCURVE",
"730 811 CURVE SMOOTH",
"725 644 OFFCURVE",
"684 337 OFFCURVE",
"662 241 CURVE",
"599 200 LINE"
);
},
{
closed = 1;
nodes = (
"1182 1267 LINE",
"1153 1370 OFFCURVE",
"1113 1403 OFFCURVE",
"1029 1434 CURVE",
"771 992 LINE",
"881 802 LINE {name = hr00;}"
);
},
{
closed = 1;
nodes = (
"403 318 LINE",
"485 200 LINE",
"779 730 LINE",
"776 862 LINE",
"683 876 LINE"
);
}
);
width = 1051;
}
);
leftKerningGroup = KO_oacute;
rightKerningGroup = KO_eth;
unicode = 00F8;
},
{
color = 4;
glyphname = oe;
lastChange = "2022-07-29 03:42:50 +0000";
layers = (
{
layerId = "ED69ACE7-BE83-49AD-8DAF-057B7A1FF3CB";
paths = (
{
closed = 1;
nodes = (
"1052 -22 OFFCURVE",
"1328 190 OFFCURVE",
"1419 297 CURVE",
"1356 436 LINE",
"1222 374 OFFCURVE",
"1086 295 OFFCURVE",
"1019 282 CURVE",
"990 282 LINE",
"1214 467 OFFCURVE",
"1456 718 OFFCURVE",
"1489 769 CURVE SMOOTH {name = hr00;}",
"1516 812 OFFCURVE",
"1531 902 OFFCURVE",
"1530 964 CURVE SMOOTH",
"1529 1021 OFFCURVE",
"1523 1028 OFFCURVE",
"1504 1036 CURVE SMOOTH",
"1404 1076 OFFCURVE",
"1363 1086 OFFCURVE",
"1223 1192 CURVE SMOOTH",
"1194 1214 OFFCURVE",
"1167 1222 OFFCURVE",
"1151 1222 CURVE",
"1083 1222 OFFCURVE",
"960 1169 OFFCURVE",
"889 1127 CURVE SMOOTH",
"882 1122 LINE",
"811 1172 OFFCURVE",
"728 1204 OFFCURVE",
"673 1204 CURVE SMOOTH",
"613 1204 OFFCURVE",
"307 1101 OFFCURVE",
"229 1011 CURVE SMOOTH",
"225 1007 OFFCURVE",
"139 887 OFFCURVE",
"139 303 CURVE SMOOTH",
"139 261 OFFCURVE",
"139 215 OFFCURVE",
"140 171 CURVE SMOOTH",
"142 59 OFFCURVE",
"421 -6 OFFCURVE",
"552 -20 CURVE",
"602 -15 OFFCURVE",
"675 21 OFFCURVE",
"752 73 CURVE",
"753 73 LINE",
"764 60 OFFCURVE",
"773 51 OFFCURVE",
"785 36 CURVE SMOOTH",
"820 -7 OFFCURVE",
"851 -22 OFFCURVE",
"880 -22 CURVE SMOOTH"
);
},
{
closed = 1;
nodes = (
"543 235 OFFCURVE",
"500 259 OFFCURVE",
"454 292 CURVE",
"459 393 OFFCURVE",
"467 484 OFFCURVE",
"482 594 CURVE SMOOTH",
"494 678 OFFCURVE",
"506 748 OFFCURVE",
"526 834 CURVE",
"588 863 LINE",
"729 800 LINE",
"726 687 OFFCURVE",
"716 581 OFFCURVE",
"702 480 CURVE SMOOTH",
"692 402 OFFCURVE",
"681 331 OFFCURVE",
"664 258 CURVE",
"606 220 LINE"
);
},
{
closed = 1;
nodes = (
"991 416 OFFCURVE",
"993 419 OFFCURVE",
"993 420 CURVE SMOOTH",
"1018 513 OFFCURVE",
"1067 800 OFFCURVE",
"1074 849 CURVE",
"1158 820 OFFCURVE",
"1219 801 OFFCURVE",
"1254 792 CURVE",
"1180 656 OFFCURVE",
"1039 477 OFFCURVE",
"991 415 CURVE"
);
}
);
width = 1443;
}
);
leftKerningGroup = KO_oacute;
rightKerningGroup = KO_e;
unicode = 0153;
},
{
color = 4;
glyphname = p;
lastChange = "2022-07-29 03:42:50 +0000";
layers = (
{
anchors = (
{
name = bottom;
position = "{999, -6}";
},
{
name = top;
position = "{706, 1182}";
}
);
layerId = "ED69ACE7-BE83-49AD-8DAF-057B7A1FF3CB";
paths = (
{
closed = 1;
nodes = (
"417 -438 OFFCURVE",
"544 -363 OFFCURVE",
"598 -295 CURVE",
"582 -132 LINE",
"396 -132 LINE",
"422 -59 OFFCURVE",
"441 7 OFFCURVE",
"455 59 CURVE {name = hr00;}",
"509 27 OFFCURVE",
"640 -20 OFFCURVE",
"779 -20 CURVE SMOOTH",
"814 -20 OFFCURVE",
"844 -14 OFFCURVE",
"876 -5 CURVE",
"1056 413 OFFCURVE",
"1148 722 OFFCURVE",
"1197 1038 CURVE",
"1095 1141 OFFCURVE",
"944 1184 OFFCURVE",
"870 1184 CURVE SMOOTH",
"814 1184 OFFCURVE",
"785 1170 OFFCURVE",
"762 1165 CURVE",
"451 523 LINE",
"448 524 LINE",
"603 1143 LINE",
"577 1171 OFFCURVE",
"527 1184 OFFCURVE",
"467 1184 CURVE SMOOTH",
"362 1184 OFFCURVE",
"227 1141 OFFCURVE",
"169 1061 CURVE",
"168 1051 LINE SMOOTH",
"160 987 OFFCURVE",
"176 702 OFFCURVE",
"197 512 CURVE",
"121 -227 LINE",
"113 -314 OFFCURVE",
"138 -338 OFFCURVE",
"187 -377 CURVE SMOOTH",
"226 -408 OFFCURVE",
"278 -438 OFFCURVE",
"330 -438 CURVE SMOOTH"
);
},
{
closed = 1;
nodes = (
"636 232 OFFCURVE",
"532 271 OFFCURVE",
"481 320 CURVE",
"515 381 OFFCURVE",
"691 675 OFFCURVE",
"758 785 CURVE",
"784 777 LINE",
"764 651 OFFCURVE",
"714 379 OFFCURVE",
"679 229 CURVE"
);
}
);
userData = {
com.typemytype.robofont.guides = (
{
angle = 90;
isGlobal = 0;
x = 571;
y = 0;
}
);
};
width = 1091;
}
);
leftKerningGroup = KO_p;
rightKerningGroup = KO_p;
unicode = 0070;
userData = {
KernOnName = p;
};
},
{
color = 4;
glyphname = thorn;
lastChange = "2022-07-29 03:42:50 +0000";
layers = (
{
layerId = "ED69ACE7-BE83-49AD-8DAF-057B7A1FF3CB";
paths = (
{
closed = 1;
nodes = (
"365 -438 OFFCURVE",
"497 -364 OFFCURVE",
"552 -295 CURVE",
"542 -132 LINE",
"356 -132 LINE",
"386 -52 OFFCURVE",
"402 -9 OFFCURVE",
"422 59 CURVE {name = hr00;}",
"474 27 OFFCURVE",
"604 -20 OFFCURVE",
"743 -20 CURVE SMOOTH",
"778 -20 OFFCURVE",
"808 -14 OFFCURVE",
"840 -5 CURVE",
"1033 407 OFFCURVE",
"1137 726 OFFCURVE",
"1197 1038 CURVE",
"1098 1141 OFFCURVE",
"949 1184 OFFCURVE",
"875 1184 CURVE SMOOTH",
"819 1184 OFFCURVE",
"789 1170 OFFCURVE",
"766 1165 CURVE",
"435 525 LINE",
"524 872 OFFCURVE",
"628 1231 OFFCURVE",
"691 1566 CURVE",
"655 1600 OFFCURVE",
"604 1613 OFFCURVE",
"549 1613 CURVE SMOOTH",
"433 1613 OFFCURVE",
"293 1548 OFFCURVE",
"216 1466 CURVE",
"205 1435 OFFCURVE",
"175 834 OFFCURVE",
"183 527 CURVE",
"178 512 LINE",
"79 -227 LINE SMOOTH",
"66 -317 OFFCURVE",
"95 -342 OFFCURVE",
"139 -377 CURVE SMOOTH",
"177 -408 OFFCURVE",
"228 -438 OFFCURVE",
"279 -438 CURVE SMOOTH"
);
},
{
closed = 1;
nodes = (
"601 218 OFFCURVE",
"498 253 OFFCURVE",
"451 300 CURVE",
"496 376 OFFCURVE",
"701 700 OFFCURVE",
"755 785 CURVE",
"781 777 LINE",
"757 651 OFFCURVE",
"686 364 OFFCURVE",
"644 215 CURVE"
);
}
);
width = 1095;
}
);
leftKerningGroup = KO_thorn;
rightKerningGroup = KO_thorn;
unicode = 00FE;
},
{
color = 4;
glyphname = q;
lastChange = "2022-07-29 03:42:50 +0000";
layers = (
{
layerId = "ED69ACE7-BE83-49AD-8DAF-057B7A1FF3CB";
paths = (
{
closed = 1;
nodes = (
"899 -437 OFFCURVE",
"936 -420 OFFCURVE",
"985 -376 CURVE SMOOTH",
"1048 -319 OFFCURVE",
"1100 -232 OFFCURVE",
"1152 -127 CURVE",
"1081 -27 LINE",
"952 -97 LINE",
"953 313 LINE",
"1079 548 OFFCURVE",
"1216 996 OFFCURVE",
"1218 1061 CURVE {name = hr01;}",
"1161 1145 OFFCURVE",
"1084 1182 OFFCURVE",
"966 1182 CURVE SMOOTH {name = hr02;}",
"892 1182 OFFCURVE",
"823 1168 OFFCURVE",
"799 1154 CURVE",
"795 1122 OFFCURVE",
"789 1026 OFFCURVE",
"774 908 CURVE",
"730 1010 OFFCURVE",
"678 1123 OFFCURVE",
"586 1198 CURVE {name = hr03;}",
"543 1192 OFFCURVE",
"347 1162 OFFCURVE",
"205 1004 CURVE SMOOTH",
"177 973 OFFCURVE",
"172 958 OFFCURVE",
"172 936 CURVE SMOOTH",
"172 934 OFFCURVE",
"173 913 OFFCURVE",
"176 895 CURVE SMOOTH",
"184 835 OFFCURVE",
"187 776 OFFCURVE",
"187 701 CURVE SMOOTH",
"187 194 OFFCURVE",
"132 538 OFFCURVE",
"132 140 CURVE SMOOTH",
"132 91 OFFCURVE",
"203 65 OFFCURVE",
"243 31 CURVE SMOOTH",
"277 3 OFFCURVE",
"309 -22 OFFCURVE",
"343 -20 CURVE SMOOTH",
"362 -19 OFFCURVE",
"383 -9 OFFCURVE",
"400 4 CURVE SMOOTH",
"505 87 OFFCURVE",
"654 348 OFFCURVE",
"729 497 CURVE",
"749 495 LINE",
"598 -208 LINE SMOOTH",
"584 -271 OFFCURVE",
"603 -315 OFFCURVE",
"659 -360 CURVE SMOOTH",
"717 -408 OFFCURVE",
"781 -441 OFFCURVE",
"862 -438 CURVE SMOOTH"
);
},
{
closed = 1;
nodes = (
"455 353 LINE",
"496 471 OFFCURVE",
"528 587 OFFCURVE",
"545 713 CURVE SMOOTH",
"560 820 LINE",
"619 805 OFFCURVE",
"682 794 OFFCURVE",
"757 774 CURVE",
"746 696 OFFCURVE",
"756 750 OFFCURVE",
"744 694 CURVE",
"699 619 OFFCURVE",
"564 412 OFFCURVE",
"482 339 CURVE"
);
}
);
width = 1100;
}
);
leftKerningGroup = KO_g;
rightKerningGroup = KO_q;
unicode = 0071;
},
{
color = 4;
glyphname = r;
lastChange = "2022-07-29 03:42:50 +0000";
layers = (
{
anchors = (
{
name = bottom;
position = "{382, 0}";
},
{
name = top;
position = "{660, 1182}";
}
);
layerId = "ED69ACE7-BE83-49AD-8DAF-057B7A1FF3CB";
paths = (
{
closed = 1;
nodes = (
"478 -20 OFFCURVE",
"599 36 OFFCURVE",
"696 164 CURVE",
"659 298 LINE",
"478 274 LINE",
"549 453 OFFCURVE",
"631 672 OFFCURVE",
"690 796 CURVE",
"736 788 LINE",
"727 705 OFFCURVE",
"704 549 OFFCURVE",
"695 490 CURVE",
"779 469 OFFCURVE",
"861 464 OFFCURVE",
"961 517 CURVE",
"1011 648 OFFCURVE",
"1089 900 OFFCURVE",
"1089 1096 CURVE",
"1042 1133 OFFCURVE",
"942 1180 OFFCURVE",
"811 1180 CURVE SMOOTH",
"773 1180 OFFCURVE",
"732 1176 OFFCURVE",
"690 1166 CURVE",
"601 1015 OFFCURVE",
"518 672 OFFCURVE",
"474 545 CURVE",
"464 547 LINE {name = hr00;}",
"552 1149 LINE",
"513 1170 OFFCURVE",
"465 1180 OFFCURVE",
"415 1180 CURVE SMOOTH",
"319 1180 OFFCURVE",
"214 1140 OFFCURVE",
"152 1063 CURVE",
"243 455 LINE",
"139 257 LINE SMOOTH",
"94 173 OFFCURVE",
"171 54 OFFCURVE",
"195 28 CURVE SMOOTH",
"232 -12 OFFCURVE",
"294 -20 OFFCURVE",
"355 -20 CURVE SMOOTH"
);
}
);
userData = {
com.typemytype.robofont.guides = (
{
angle = 0;
isGlobal = 0;
x = 0;
y = 1186;
},
{
angle = 90;
isGlobal = 0;
x = 372;
y = 0;
}
);
};
width = 996;
}
);
leftKerningGroup = KO_r;
rightKerningGroup = KO_r;
unicode = 0072;
userData = {
KernOnName = r;
};
},
{
color = 4;
glyphname = s;
lastChange = "2022-07-29 03:42:50 +0000";
layers = (
{
anchors = (
{
name = bottom;
position = "{441, 0}";
},
{
name = top;
position = "{601, 1182}";
}
);
layerId = "ED69ACE7-BE83-49AD-8DAF-057B7A1FF3CB";
paths = (
{
closed = 1;
nodes = (
"635 24 OFFCURVE",
"728 92 OFFCURVE",
"813 168 CURVE",
"847 242 OFFCURVE",
"871 336 OFFCURVE",
"878 417 CURVE",
"816 514 OFFCURVE",
"572 677 OFFCURVE",
"488 727 CURVE",
"522 913 LINE",
"548 922 LINE {name = hr00;}",
"602 828 OFFCURVE",
"710 718 OFFCURVE",
"784 684 CURVE",
"913 804 OFFCURVE",
"987 948 OFFCURVE",
"970 1068 CURVE",
"822 1122 LINE",
"768 1146 OFFCURVE",
"693 1204 OFFCURVE",
"636 1204 CURVE SMOOTH",
"562 1204 OFFCURVE",
"436 1147 OFFCURVE",
"371 1110 CURVE SMOOTH",
"200 1013 OFFCURVE",
"147 937 OFFCURVE",
"147 633 CURVE SMOOTH",
"147 617 OFFCURVE",
"147 605 OFFCURVE",
"149 594 CURVE",
"190 525 OFFCURVE",
"352 444 OFFCURVE",
"468 397 CURVE SMOOTH",
"507 381 OFFCURVE",
"556 364 OFFCURVE",
"569 360 CURVE",
"566 321 OFFCURVE",
"558 270 OFFCURVE",
"545 229 CURVE",
"495 205 LINE",
"400 285 OFFCURVE",
"288 370 OFFCURVE",
"152 374 CURVE",
"133 342 OFFCURVE",
"34 237 OFFCURVE",
"107 55 CURVE",
"185 42 OFFCURVE",
"352 -13 OFFCURVE",
"525 -20 CURVE"
);
}
);
userData = {
com.typemytype.robofont.guides = (
{
angle = 0;
isGlobal = 0;
x = 0;
y = 1131;
},
{
angle = 90;
isGlobal = 0;
x = 434;
y = 0;
}
);
};
width = 878;
}
);
leftKerningGroup = KO_s;
rightKerningGroup = KO_s;
unicode = 0073;
userData = {
KernOnName = s;
};
},
{
color = 4;
glyphname = saltillo;
lastChange = "2022-07-29 03:43:44 +0000";
layers = (
{
layerId = "ED69ACE7-BE83-49AD-8DAF-057B7A1FF3CB";
paths = (
{
closed = 1;
nodes = (
"416 468 OFFCURVE",
"466 535 OFFCURVE",
"474 567 CURVE",
"613 1172 OFFCURVE",
"648 1248 OFFCURVE",
"703 1566 CURVE",
"665 1601 OFFCURVE",
"616 1614 OFFCURVE",
"558 1613 CURVE SMOOTH",
"442 1612 OFFCURVE",
"307 1547 OFFCURVE",
"235 1466 CURVE",
"226 1436 OFFCURVE",
"210 922 OFFCURVE",
"227 606 CURVE",
"228 560 OFFCURVE",
"246 487 OFFCURVE",
"318 468 CURVE {name = hr00;}"
);
}
);
width = 478;
}
);
leftKerningGroup = KO_Delta;
leftMetricsKey = l;
rightMetricsKey = l;
unicode = A78C;
},
{
color = 4;
glyphname = germandbls;
lastChange = "2022-07-29 03:42:50 +0000";
layers = (
{
layerId = "ED69ACE7-BE83-49AD-8DAF-057B7A1FF3CB";
paths = (
{
closed = 1;
nodes = (
"206 -438 OFFCURVE",
"336 -343 OFFCURVE",
"385 -281 CURVE SMOOTH",
"406 -255 OFFCURVE",
"417 -237 OFFCURVE",
"423 -214 CURVE",
"610 1297 LINE",
"628 1311 LINE",
"690 1265 OFFCURVE",
"771 1211 OFFCURVE",
"825 1187 CURVE",
"613 654 LINE",
"830 635 LINE",
"973 816 OFFCURVE",
"1215 1165 OFFCURVE",
"1276 1380 CURVE",
"1118 1518 OFFCURVE",
"842 1601 OFFCURVE",
"688 1613 CURVE",
"517 1565 OFFCURVE",
"359 1438 OFFCURVE",
"239 1295 CURVE",
"205 1111 OFFCURVE",
"157 187 OFFCURVE",
"179 -137 CURVE",
"21 -116 OFFCURVE",
"-21 -106 OFFCURVE",
"-56 -99 CURVE",
"-88 -162 OFFCURVE",
"-110 -204 OFFCURVE",
"-121 -281 CURVE",
"-101 -327 OFFCURVE",
"-7 -416 OFFCURVE",
"103 -438 CURVE"
);
},
{
closed = 1;
nodes = (
"925 17 OFFCURVE",
"1035 86 OFFCURVE",
"1127 167 CURVE",
"1171 233 OFFCURVE",
"1268 404 OFFCURVE",
"1282 486 CURVE",
"1231 582 OFFCURVE",
"1003 762 OFFCURVE",
"922 814 CURVE",
"613 654 LINE {name = hr00;}",
"659 579 OFFCURVE",
"858 476 OFFCURVE",
"949 432 CURVE",
"933 376 OFFCURVE",
"905 299 OFFCURVE",
"873 234 CURVE",
"850 227 LINE",
"804 301 OFFCURVE",
"772 375 OFFCURVE",
"655 391 CURVE",
"634 363 OFFCURVE",
"510 236 OFFCURVE",
"566 54 CURVE",
"637 35 OFFCURVE",
"739 3 OFFCURVE",
"822 -21 CURVE"
);
}
);
width = 1212;
}
);
leftKerningGroup = KO_germandbls;
rightKerningGroup = KO_germandbls;
unicode = 00DF;
},
{
color = 4;
glyphname = t;
lastChange = "2022-07-29 03:42:50 +0000";
layers = (
{
anchors = (
{
name = bottom;
position = "{402, 0}";
},
{
name = center;
position = "{481, 591}";
},
{
name = top;
position = "{545, 1439}";
},
{
name = topright;
position = "{943, 1182}";
}
);
layerId = "ED69ACE7-BE83-49AD-8DAF-057B7A1FF3CB";
paths = (
{
closed = 1;
nodes = (
"570 -20 OFFCURVE",
"798 251 OFFCURVE",
"850 349 CURVE",
"746 490 LINE",
"512 312 LINE {name = hr00;}",
"581 841 LINE",
"657 844 OFFCURVE",
"750 850 OFFCURVE",
"809 855 CURVE",
"836 908 OFFCURVE",
"913 1044 OFFCURVE",
"853 1182 CURVE",
"631 1137 LINE",
"680 1418 LINE",
"593 1470 OFFCURVE",
"437 1464 OFFCURVE",
"388 1439 CURVE",
"279 1076 LINE",
"166 1037 LINE",
"155 984 OFFCURVE",
"150 907 OFFCURVE",
"161 860 CURVE",
"253 854 LINE",
"253 496 LINE",
"174 314 OFFCURVE",
"159 265 OFFCURVE",
"155 240 CURVE",
"143 117 OFFCURVE",
"326 -20 OFFCURVE",
"443 -20 CURVE SMOOTH"
);
}
);
userData = {
com.typemytype.robofont.guides = (
{
angle = 0;
isGlobal = 0;
x = 0;
y = 1116;
},
{
angle = 90;
isGlobal = 0;
x = 367;
y = 0;
}
);
};
width = 799;
}
);
leftKerningGroup = KO_t;
rightKerningGroup = KO_t;
unicode = 0074;
userData = {
KernOnName = t;
};
},
{
glyphname = tbar;
lastChange = "2022-05-20 00:37:12 +0000";
layers = (
{
layerId = "ED69ACE7-BE83-49AD-8DAF-057B7A1FF3CB";
paths = (
{
closed = 1;
nodes = (
"601 -20 OFFCURVE",
"770 185 OFFCURVE",
"828 289 CURVE",
"715 433 LINE",
"494 312 LINE",
"492 861 LINE",
"569 864 OFFCURVE",
"664 870 OFFCURVE",
"725 875 CURVE {name = hr02;}",
"746 932 OFFCURVE",
"805 1044 OFFCURVE",
"724 1182 CURVE",
"502 1137 LINE",
"513 1418 LINE",
"416 1470 OFFCURVE",
"256 1464 OFFCURVE",
"209 1439 CURVE",
"158 1076 LINE",
"36 1037 LINE",
"33 1000 OFFCURVE",
"36 923 OFFCURVE",
"56 869 CURVE",
"162 863 LINE",
"202 496 LINE",
"145 313 OFFCURVE",
"137 265 OFFCURVE",
"137 240 CURVE SMOOTH",
"137 119 OFFCURVE",
"348 -20 OFFCURVE",
"470 -20 CURVE SMOOTH"
);
},
{
closed = 1;
nodes = (
"392 489 OFFCURVE",
"636 501 OFFCURVE",
"706 507 CURVE",
"751 571 OFFCURVE",
"763 697 OFFCURVE",
"722 774 CURVE",
"323 736 LINE",
"64 686 LINE",
"49 618 OFFCURVE",
"54 566 OFFCURVE",
"78 501 CURVE {name = hr01;}"
);
}
);
width = 847;
}
);
unicode = 0167;
},
{
color = 4;
glyphname = u;
lastChange = "2022-07-29 03:42:50 +0000";
layers = (
{
anchors = (
{
name = bottom;
position = "{565, 0}";
},
{
name = ogonek;
position = "{1126, 10}";
},
{
name = top;
position = "{706, 1182}";
},
{
name = topright;
position = "{1414, 1182}";
}
);
layerId = "ED69ACE7-BE83-49AD-8DAF-057B7A1FF3CB";
paths = (
{
closed = 1;
nodes = (
"419 -20 OFFCURVE",
"612 324 OFFCURVE",
"701 497 CURVE",
"714 490 LINE",
"691 403 OFFCURVE",
"646 226 OFFCURVE",
"645 222 CURVE SMOOTH",
"643 213 OFFCURVE",
"637 186 OFFCURVE",
"637 168 CURVE SMOOTH",
"637 121 OFFCURVE",
"659 101 OFFCURVE",
"674 80 CURVE SMOOTH",
"720 20 OFFCURVE",
"791 -20 OFFCURVE",
"851 -20 CURVE SMOOTH",
"950 -20 OFFCURVE",
"1063 92 OFFCURVE",
"1167 279 CURVE",
"1101 400 LINE",
"921 308 LINE",
"1043 532 OFFCURVE",
"1177 956 OFFCURVE",
"1188 1050 CURVE SMOOTH",
"1189 1061 LINE",
"1132 1145 OFFCURVE",
"1056 1182 OFFCURVE",
"938 1182 CURVE SMOOTH {name = hr02;}",
"863 1182 OFFCURVE",
"793 1168 OFFCURVE",
"771 1154 CURVE",
"767 1125 OFFCURVE",
"763 1080 OFFCURVE",
"746 764 CURVE",
"716 689 OFFCURVE",
"568 436 OFFCURVE",
"485 361 CURVE",
"457 375 LINE",
"517 547 OFFCURVE",
"556 731 OFFCURVE",
"583 932 CURVE SMOOTH",
"595 1020 OFFCURVE",
"603 1106 OFFCURVE",
"605 1174 CURVE {name = hr01;}",
"585 1185 OFFCURVE",
"551 1191 OFFCURVE",
"507 1191 CURVE SMOOTH",
"390 1191 OFFCURVE",
"215 1141 OFFCURVE",
"143 1004 CURVE",
"235 573 LINE",
"98 162 LINE",
"90 109 OFFCURVE",
"189 51 OFFCURVE",
"214 31 CURVE SMOOTH",
"249 2 OFFCURVE",
"281 -20 OFFCURVE",
"315 -20 CURVE SMOOTH"
);
}
);
userData = {
com.typemytype.robofont.guides = (
{
angle = 90;
isGlobal = 0;
x = 553;
y = 0;
}
);
};
width = 1129;
}
);
leftKerningGroup = KO_u;
rightKerningGroup = KO_a;
unicode = 0075;
userData = {
KernOnName = u;
};
},
{
glyphname = ubar;
lastChange = "2022-07-29 03:43:44 +0000";
layers = (
{
layerId = "ED69ACE7-BE83-49AD-8DAF-057B7A1FF3CB";
paths = (
{
closed = 1;
nodes = (
"207 602 OFFCURVE",
"1074 609 OFFCURVE",
"1136 615 CURVE",
"1175 704 OFFCURVE",
"1202 798 OFFCURVE",
"1185 878 CURVE",
"-28 824 LINE",
"-62 759 OFFCURVE",
"-78 708 OFFCURVE",
"-69 614 CURVE {name = hr00;}"
);
},
{
closed = 1;
nodes = (
"412 -20 OFFCURVE",
"562 324 OFFCURVE",
"630 497 CURVE",
"645 490 LINE",
"631 400 OFFCURVE",
"621 322 OFFCURVE",
"611 221 CURVE SMOOTH",
"610 211 OFFCURVE",
"609 202 OFFCURVE",
"609 193 CURVE SMOOTH",
"609 126 OFFCURVE",
"639 104 OFFCURVE",
"661 80 CURVE SMOOTH",
"716 20 OFFCURVE",
"793 -20 OFFCURVE",
"856 -20 CURVE SMOOTH",
"972 -20 OFFCURVE",
"1072 120 OFFCURVE",
"1141 279 CURVE",
"1056 400 LINE",
"883 308 LINE",
"977 531 OFFCURVE",
"1055 956 OFFCURVE",
"1055 1050 CURVE SMOOTH",
"1055 1061 LINE",
"984 1145 OFFCURVE",
"900 1182 OFFCURVE",
"778 1182 CURVE SMOOTH {name = hr02;}",
"701 1182 OFFCURVE",
"631 1168 OFFCURVE",
"610 1154 CURVE",
"610 1122 OFFCURVE",
"615 1050 OFFCURVE",
"639 764 CURVE",
"619 689 OFFCURVE",
"501 434 OFFCURVE",
"426 361 CURVE",
"396 375 LINE",
"435 557 OFFCURVE",
"447 735 OFFCURVE",
"447 931 CURVE SMOOTH",
"447 1017 OFFCURVE",
"444 1100 OFFCURVE",
"437 1174 CURVE {name = hr01;}",
"414 1185 OFFCURVE",
"377 1191 OFFCURVE",
"333 1191 CURVE SMOOTH",
"211 1191 OFFCURVE",
"39 1141 OFFCURVE",
"-16 1004 CURVE",
"139 573 LINE",
"55 162 LINE",
"55 109 OFFCURVE",
"145 66 OFFCURVE",
"194 31 CURVE SMOOTH",
"234 2 OFFCURVE",
"267 -20 OFFCURVE",
"304 -20 CURVE SMOOTH"
);
}
);
width = 1100;
}
);
leftMetricsKey = "=|";
rightMetricsKey = t;
unicode = 0289;
},
{
color = 4;
glyphname = v;
lastChange = "2022-07-29 03:42:50 +0000";
layers = (
{
layerId = "ED69ACE7-BE83-49AD-8DAF-057B7A1FF3CB";
paths = (
{
closed = 1;
nodes = (
"600 -21 OFFCURVE",
"709 0 OFFCURVE",
"765 44 CURVE",
"762 129 OFFCURVE",
"753 176 OFFCURVE",
"739 219 CURVE",
"905 451 OFFCURVE",
"1117 816 OFFCURVE",
"1126 830 CURVE",
"1140 964 OFFCURVE",
"1105 1125 OFFCURVE",
"1024 1204 CURVE",
"897 1188 OFFCURVE",
"721 1068 OFFCURVE",
"648 932 CURVE",
"676 835 OFFCURVE",
"729 787 OFFCURVE",
"777 739 CURVE",
"743 632 OFFCURVE",
"671 442 OFFCURVE",
"601 304 CURVE",
"589 305 LINE",
"607 558 OFFCURVE",
"584 1025 OFFCURVE",
"567 1079 CURVE",
"566 1079 LINE",
"529 1193 OFFCURVE",
"370 1194 OFFCURVE",
"249 1110 CURVE SMOOTH",
"182 1063 OFFCURVE",
"144 973 OFFCURVE",
"120 889 CURVE",
"253 693 LINE",
"326 283 LINE",
"298 234 OFFCURVE",
"279 192 OFFCURVE",
"244 47 CURVE {name = hr00;}",
"282 3 OFFCURVE",
"390 -21 OFFCURVE",
"498 -21 CURVE SMOOTH"
);
}
);
width = 1030;
}
);
leftKerningGroup = KO_v;
rightKerningGroup = KO_v;
unicode = 0076;
userData = {
KernOnName = v;
};
},
{
color = 4;
glyphname = vturned;
lastChange = "2022-07-29 03:42:50 +0000";
layers = (
{
layerId = "ED69ACE7-BE83-49AD-8DAF-057B7A1FF3CB";
paths = (
{
closed = 1;
nodes = (
"271 -6 OFFCURVE",
"450 111 OFFCURVE",
"526 251 CURVE",
"498 348 OFFCURVE",
"442 397 OFFCURVE",
"397 444 CURVE",
"435 566 OFFCURVE",
"511 758 OFFCURVE",
"572 879 CURVE",
"585 878 LINE",
"566 617 OFFCURVE",
"591 155 OFFCURVE",
"606 104 CURVE",
"607 104 LINE",
"647 -11 OFFCURVE",
"802 -12 OFFCURVE",
"926 75 CURVE SMOOTH",
"990 120 OFFCURVE",
"1029 208 OFFCURVE",
"1053 294 CURVE",
"920 490 LINE",
"847 900 LINE",
"878 950 OFFCURVE",
"898 1010 OFFCURVE",
"929 1136 CURVE {name = hr00;}",
"891 1180 OFFCURVE",
"784 1204 OFFCURVE",
"675 1204 CURVE SMOOTH",
"572 1204 OFFCURVE",
"465 1183 OFFCURVE",
"407 1139 CURVE",
"410 1060 OFFCURVE",
"421 1008 OFFCURVE",
"435 964 CURVE",
"269 732 OFFCURVE",
"107 451 OFFCURVE",
"48 353 CURVE",
"34 217 OFFCURVE",
"68 57 OFFCURVE",
"149 -21 CURVE"
);
}
);
width = 1030;
}
);
leftKerningGroup = KO_vturned;
rightKerningGroup = KO_vturned;
unicode = 028C;
},
{
color = 4;
glyphname = w;
lastChange = "2022-07-29 03:42:50 +0000";
layers = (
{
anchors = (
{
name = bottom;
position = "{793, 0}";
},
{
name = top;
position = "{954, 1182}";
}
);
layerId = "ED69ACE7-BE83-49AD-8DAF-057B7A1FF3CB";
paths = (
{
closed = 1;
nodes = (
"1184 -21 OFFCURVE",
"1285 0 OFFCURVE",
"1341 44 CURVE",
"1335 116 OFFCURVE",
"1323 170 OFFCURVE",
"1304 219 CURVE",
"1461 450 OFFCURVE",
"1628 755 OFFCURVE",
"1668 830 CURVE",
"1677 965 OFFCURVE",
"1633 1125 OFFCURVE",
"1550 1204 CURVE",
"1424 1188 OFFCURVE",
"1253 1068 OFFCURVE",
"1187 932 CURVE {name = hr01;}",
"1219 835 OFFCURVE",
"1275 788 OFFCURVE",
"1326 739 CURVE",
"1299 635 OFFCURVE",
"1227 445 OFFCURVE",
"1160 306 CURVE",
"1146 306 LINE",
"1152 450 OFFCURVE",
"1135 676 OFFCURVE",
"1120 829 CURVE",
"1122 830 LINE",
"1131 963 OFFCURVE",
"1088 1125 OFFCURVE",
"1004 1204 CURVE",
"878 1188 OFFCURVE",
"707 1068 OFFCURVE",
"641 932 CURVE",
"673 835 OFFCURVE",
"728 788 OFFCURVE",
"780 739 CURVE",
"752 632 OFFCURVE",
"681 443 OFFCURVE",
"616 304 CURVE",
"603 305 LINE",
"609 558 OFFCURVE",
"576 1024 OFFCURVE",
"575 1093 CURVE",
"552 1152 OFFCURVE",
"490 1179 OFFCURVE",
"417 1179 CURVE SMOOTH",
"309 1179 OFFCURVE",
"152 1078 OFFCURVE",
"137 968 CURVE",
"248 693 LINE",
"341 283 LINE",
"314 232 OFFCURVE",
"301 184 OFFCURVE",
"272 47 CURVE",
"312 3 OFFCURVE",
"411 -20 OFFCURVE",
"507 -20 CURVE SMOOTH",
"600 -20 OFFCURVE",
"693 1 OFFCURVE",
"725 43 CURVE",
"729 84 OFFCURVE",
"730 117 OFFCURVE",
"724 150 CURVE",
"779 252 OFFCURVE",
"835 387 OFFCURVE",
"878 489 CURVE",
"909 256 LINE",
"888 212 OFFCURVE",
"867 160 OFFCURVE",
"845 47 CURVE {name = hr02;}",
"887 3 OFFCURVE",
"984 -21 OFFCURVE",
"1085 -21 CURVE SMOOTH"
);
}
);
userData = {
com.typemytype.robofont.guides = (
{
angle = 0;
isGlobal = 0;
x = 0;
y = 63;
},
{
angle = 90;
isGlobal = 0;
x = 800;
y = 0;
}
);
};
width = 1587;
}
);
leftKerningGroup = KO_w;
rightKerningGroup = KO_w;
unicode = 0077;
userData = {
KernOnName = w;
};
},
{
color = 4;
glyphname = x;
lastChange = "2022-07-29 03:42:50 +0000";
layers = (
{
anchors = (
{
name = bottom;
position = "{553, 0}";
},
{
name = top;
position = "{714, 1182}";
}
);
layerId = "ED69ACE7-BE83-49AD-8DAF-057B7A1FF3CB";
paths = (
{
closed = 1;
nodes = (
"815 -21 OFFCURVE",
"842 -18 OFFCURVE",
"869 -11 CURVE",
"1014 38 OFFCURVE",
"1091 234 OFFCURVE",
"1127 331 CURVE",
"1060 429 LINE",
"922 358 LINE",
"780 659 LINE",
"962 848 LINE",
"981 784 OFFCURVE",
"1016 696 OFFCURVE",
"1042 670 CURVE",
"1100 686 OFFCURVE",
"1168 725 OFFCURVE",
"1198 763 CURVE",
"1217 897 OFFCURVE",
"1161 1132 OFFCURVE",
"1090 1204 CURVE",
"976 1204 OFFCURVE",
"885 1187 OFFCURVE",
"815 1096 CURVE SMOOTH",
"796 1072 OFFCURVE",
"767 945 OFFCURVE",
"701 729 CURVE",
"689 726 LINE",
"687 806 OFFCURVE",
"701 925 OFFCURVE",
"678 1083 CURVE SMOOTH {name = hr01;}",
"664 1175 OFFCURVE",
"540 1228 OFFCURVE",
"407 1195 CURVE",
"262 1145 OFFCURVE",
"184 943 OFFCURVE",
"150 851 CURVE",
"223 738 LINE",
"372 804 LINE",
"488 553 LINE",
"303 332 LINE",
"285 398 OFFCURVE",
"250 484 OFFCURVE",
"225 510 CURVE",
"191 501 OFFCURVE",
"107 466 OFFCURVE",
"67 417 CURVE",
"49 280 OFFCURVE",
"110 52 OFFCURVE",
"180 -20 CURVE",
"343 -28 OFFCURVE",
"409 36 OFFCURVE",
"456 85 CURVE SMOOTH",
"477 107 OFFCURVE",
"514 257 OFFCURVE",
"566 475 CURVE",
"587 475 LINE",
"589 387 OFFCURVE",
"591 261 OFFCURVE",
"617 98 CURVE SMOOTH",
"629 25 OFFCURVE",
"692 -21 OFFCURVE",
"791 -21 CURVE SMOOTH {name = hr02;}"
);
}
);
width = 1105;
}
);
leftKerningGroup = KO_x;
rightKerningGroup = KO_x;
unicode = 0078;
userData = {
KernOnName = x;
};
},
{
color = 4;
glyphname = y;
lastChange = "2022-07-29 03:42:50 +0000";
layers = (
{
anchors = (
{
name = bottom;
position = "{1167, -62}";
},
{
name = top;
position = "{702, 1182}";
}
);
layerId = "ED69ACE7-BE83-49AD-8DAF-057B7A1FF3CB";
paths = (
{
closed = 1;
nodes = (
"616 -438 OFFCURVE",
"630 -437 OFFCURVE",
"643 -435 CURVE",
"821 -376 OFFCURVE",
"993 -228 OFFCURVE",
"1057 -62 CURVE",
"1032 731 LINE",
"1148 906 OFFCURVE",
"1182 1012 OFFCURVE",
"1189 1061 CURVE {name = hr01;}",
"1132 1145 OFFCURVE",
"1056 1182 OFFCURVE",
"938 1182 CURVE SMOOTH {name = hr02;}",
"863 1182 OFFCURVE",
"793 1168 OFFCURVE",
"771 1154 CURVE",
"766 1120 OFFCURVE",
"758 1007 OFFCURVE",
"743 739 CURVE",
"712 661 OFFCURVE",
"566 433 OFFCURVE",
"485 361 CURVE",
"457 375 LINE",
"500 496 OFFCURVE",
"526 598 OFFCURVE",
"547 712 CURVE SMOOTH",
"577 869 OFFCURVE",
"600 1041 OFFCURVE",
"605 1174 CURVE",
"526 1215 OFFCURVE",
"241 1190 OFFCURVE",
"143 1004 CURVE {name = hr03;}",
"235 573 LINE",
"98 162 LINE",
"90 110 OFFCURVE",
"181 58 OFFCURVE",
"214 31 CURVE SMOOTH",
"248 3 OFFCURVE",
"291 -22 OFFCURVE",
"325 -20 CURVE SMOOTH",
"341 -19 OFFCURVE",
"358 -13 OFFCURVE",
"381 5 CURVE SMOOTH",
"488 87 OFFCURVE",
"684 394 OFFCURVE",
"757 535 CURVE",
"766 532 LINE",
"738 344 OFFCURVE",
"719 40 OFFCURVE",
"684 -154 CURVE",
"596 -154 OFFCURVE",
"404 -129 OFFCURVE",
"307 -106 CURVE",
"280 -152 OFFCURVE",
"263 -206 OFFCURVE",
"259 -278 CURVE",
"294 -336 OFFCURVE",
"456 -438 OFFCURVE",
"601 -438 CURVE SMOOTH"
);
}
);
userData = {
com.typemytype.robofont.guides = (
{
angle = 90;
isGlobal = 0;
x = 555;
y = 0;
}
);
};
width = 1082;
}
);
leftKerningGroup = KO_u;
rightKerningGroup = KO_y;
unicode = 0079;
userData = {
KernOnName = y;
};
},
{
glyphname = ydotbelow;
lastChange = "2022-07-28 02:38:00 +0000";
layers = (
{
layerId = "ED69ACE7-BE83-49AD-8DAF-057B7A1FF3CB";
paths = (
{
closed = 1;
nodes = (
"666 -378 OFFCURVE",
"680 -377 OFFCURVE",
"694 -375 CURVE",
"870 -315 OFFCURVE",
"1026 -168 OFFCURVE",
"1069 -2 CURVE",
"961 731 LINE",
"1044 882 OFFCURVE",
"1078 1000 OFFCURVE",
"1078 1061 CURVE {name = hr01;}",
"1007 1145 OFFCURVE",
"923 1182 OFFCURVE",
"801 1182 CURVE SMOOTH {name = hr02;}",
"724 1182 OFFCURVE",
"654 1168 OFFCURVE",
"633 1154 CURVE",
"633 1122 OFFCURVE",
"638 1025 OFFCURVE",
"662 739 CURVE",
"642 664 OFFCURVE",
"524 434 OFFCURVE",
"449 361 CURVE",
"419 375 LINE",
"445 496 OFFCURVE",
"457 591 OFFCURVE",
"464 713 CURVE SMOOTH",
"473 873 OFFCURVE",
"473 1039 OFFCURVE",
"460 1174 CURVE",
"371 1215 OFFCURVE",
"81 1190 OFFCURVE",
"7 1004 CURVE {name = hr03;}",
"162 573 LINE",
"78 202 LINE",
"78 149 OFFCURVE",
"168 106 OFFCURVE",
"217 71 CURVE SMOOTH",
"256 43 OFFCURVE",
"301 18 OFFCURVE",
"337 20 CURVE SMOOTH",
"355 21 OFFCURVE",
"373 29 OFFCURVE",
"393 45 CURVE SMOOTH",
"489 127 OFFCURVE",
"650 394 OFFCURVE",
"705 535 CURVE",
"715 532 LINE",
"713 344 OFFCURVE",
"705 100 OFFCURVE",
"696 -94 CURVE",
"603 -94 OFFCURVE",
"398 -68 OFFCURVE",
"300 -46 CURVE",
"282 -106 OFFCURVE",
"269 -142 OFFCURVE",
"275 -218 CURVE",
"319 -276 OFFCURVE",
"501 -377 OFFCURVE",
"651 -378 CURVE SMOOTH"
);
},
{
closed = 1;
nodes = (
"1289 -485 OFFCURVE",
"1396 -396 OFFCURVE",
"1435 -304 CURVE",
"1399 -135 OFFCURVE",
"1221 -87 OFFCURVE",
"1098 -87 CURVE {name = hr00;}",
"1067 -188 OFFCURVE",
"1046 -234 OFFCURVE",
"989 -376 CURVE",
"1007 -437 OFFCURVE",
"1109 -515 OFFCURVE",
"1206 -521 CURVE"
);
}
);
width = 1115;
}
);
leftKerningGroup = KO_u;
rightKerningGroup = KO_y;
unicode = 1EF5;
},
{
color = 4;
glyphname = z;
lastChange = "2022-07-29 03:42:50 +0000";
layers = (
{
anchors = (
{
name = bottom;
position = "{499, 0}";
},
{
name = center;
position = "{578, 591}";
},
{
name = top;
position = "{695, 1162}";
}
);
layerId = "ED69ACE7-BE83-49AD-8DAF-057B7A1FF3CB";
paths = (
{
closed = 1;
nodes = (
"786 -20 OFFCURVE",
"854 12 OFFCURVE",
"913 80 CURVE SMOOTH",
"975 153 OFFCURVE",
"1014 297 OFFCURVE",
"1014 437 CURVE SMOOTH",
"1014 479 OFFCURVE",
"1010 510 OFFCURVE",
"1004 533 CURVE",
"864 561 LINE",
"736 327 LINE",
"562 358 LINE",
"952 794 LINE",
"969 790 OFFCURVE",
"986 787 OFFCURVE",
"997 787 CURVE SMOOTH",
"1019 787 OFFCURVE",
"1036 794 OFFCURVE",
"1054 805 CURVE",
"1068 832 OFFCURVE",
"1087 893 OFFCURVE",
"1087 969 CURVE SMOOTH",
"1087 1066 OFFCURVE",
"1057 1163 OFFCURVE",
"1003 1206 CURVE",
"903 1202 OFFCURVE",
"825 1104 OFFCURVE",
"784 1051 CURVE",
"701 1112 OFFCURVE",
"506 1180 OFFCURVE",
"396 1180 CURVE SMOOTH {name = hr01;}",
"249 1180 OFFCURVE",
"147 1058 OFFCURVE",
"147 885 CURVE SMOOTH {name = hr02;}",
"147 764 OFFCURVE",
"195 635 OFFCURVE",
"237 581 CURVE",
"403 617 LINE",
"433 833 LINE",
"610 810 LINE",
"376 404 LINE",
"323 457 OFFCURVE",
"288 490 OFFCURVE",
"248 502 CURVE",
"205 487 OFFCURVE",
"129 450 OFFCURVE",
"89 406 CURVE",
"71 271 OFFCURVE",
"104 36 OFFCURVE",
"180 -17 CURVE",
"275 -14 OFFCURVE",
"318 43 OFFCURVE",
"393 150 CURVE",
"450 80 OFFCURVE",
"598 -20 OFFCURVE",
"719 -20 CURVE SMOOTH {name = hr03;}"
);
}
);
userData = {
com.typemytype.robofont.guides = (
{
angle = 90;
isGlobal = 0;
x = 511;
y = 0;
}
);
};
width = 996;
}
);
leftKerningGroup = KO_z;
rightKerningGroup = KO_z;
unicode = 007A;
userData = {
KernOnName = z;
};
},
{
color = 4;
glyphname = f_f;
lastChange = "2022-07-29 03:42:50 +0000";
layers = (
{
anchors = (
{
name = top;
position = "{1022, 0}";
}
);
layerId = "ED69ACE7-BE83-49AD-8DAF-057B7A1FF3CB";
paths = (
{
closed = 1;
nodes = (
"229 -431 OFFCURVE",
"391 -328 OFFCURVE",
"427 -214 CURVE",
"469 29 OFFCURVE",
"504 409 OFFCURVE",
"538 792 CURVE",
"578 768 OFFCURVE",
"659 728 OFFCURVE",
"739 731 CURVE",
"776 778 OFFCURVE",
"862 1000 OFFCURVE",
"814 1098 CURVE",
"552 1021 LINE",
"582 1387 LINE",
"599 1357 OFFCURVE",
"675 1265 OFFCURVE",
"777 1223 CURVE SMOOTH",
"886 1178 OFFCURVE",
"995 1144 OFFCURVE",
"1080 1138 CURVE",
"1156 1204 OFFCURVE",
"1245 1443 OFFCURVE",
"1219 1517 CURVE",
"1115 1506 OFFCURVE",
"740 1576 OFFCURVE",
"585 1613 CURVE",
"326 1510 OFFCURVE",
"212 1301 OFFCURVE",
"190 1262 CURVE",
"167 1078 OFFCURVE",
"195 305 OFFCURVE",
"176 -143 CURVE",
"-17 -112 LINE {name = hr00;}",
"-46 -173 OFFCURVE",
"-65 -212 OFFCURVE",
"-74 -288 CURVE",
"-49 -334 OFFCURVE",
"5 -416 OFFCURVE",
"116 -438 CURVE"
);
},
{
closed = 1;
nodes = (
"951 -431 OFFCURVE",
"1113 -328 OFFCURVE",
"1148 -214 CURVE",
"1190 29 OFFCURVE",
"1226 410 OFFCURVE",
"1260 792 CURVE",
"1300 768 OFFCURVE",
"1379 728 OFFCURVE",
"1461 731 CURVE",
"1498 778 OFFCURVE",
"1584 1000 OFFCURVE",
"1536 1098 CURVE",
"1274 1021 LINE",
"1301 1366 LINE",
"1334 1308 OFFCURVE",
"1361 1241 OFFCURVE",
"1529 1229 CURVE",
"1605 1294 OFFCURVE",
"1690 1494 OFFCURVE",
"1665 1568 CURVE",
"1559 1557 OFFCURVE",
"1459 1576 OFFCURVE",
"1307 1613 CURVE",
"1048 1510 OFFCURVE",
"934 1301 OFFCURVE",
"912 1262 CURVE",
"889 1078 OFFCURVE",
"917 305 OFFCURVE",
"897 -143 CURVE",
"704 -112 LINE {name = hr00;}",
"676 -173 OFFCURVE",
"657 -212 OFFCURVE",
"648 -288 CURVE",
"673 -334 OFFCURVE",
"727 -416 OFFCURVE",
"838 -438 CURVE"
);
}
);
width = 1443;
}
);
leftKerningGroup = KO_f;
rightKerningGroup = KO_f_f;
},
{
color = 4;
glyphname = f_f_i;
lastChange = "2022-07-29 03:42:50 +0000";
layers = (
{
layerId = "ED69ACE7-BE83-49AD-8DAF-057B7A1FF3CB";
paths = (
{
closed = 1;
nodes = (
"951 -431 OFFCURVE",
"1113 -328 OFFCURVE",
"1148 -214 CURVE",
"1190 29 OFFCURVE",
"1226 410 OFFCURVE",
"1260 792 CURVE",
"1300 768 OFFCURVE",
"1379 728 OFFCURVE",
"1461 731 CURVE",
"1498 778 OFFCURVE",
"1584 1000 OFFCURVE",
"1536 1098 CURVE",
"1274 1021 LINE",
"1299 1347 LINE",
"1447 1257 OFFCURVE",
"1827 1210 OFFCURVE",
"2023 1229 CURVE",
"2101 1295 OFFCURVE",
"2179 1539 OFFCURVE",
"2152 1613 CURVE",
"1935 1585 OFFCURVE",
"1584 1587 OFFCURVE",
"1318 1640 CURVE {name = hr02;}",
"1059 1537 OFFCURVE",
"934 1302 OFFCURVE",
"912 1262 CURVE",
"889 1078 OFFCURVE",
"917 305 OFFCURVE",
"897 -143 CURVE",
"704 -112 LINE",
"676 -173 OFFCURVE",
"657 -212 OFFCURVE",
"648 -288 CURVE",
"673 -334 OFFCURVE",
"727 -416 OFFCURVE",
"838 -438 CURVE"
);
},
{
closed = 1;
nodes = (
"229 -431 OFFCURVE",
"391 -328 OFFCURVE",
"427 -214 CURVE",
"469 29 OFFCURVE",
"504 409 OFFCURVE",
"538 792 CURVE",
"578 768 OFFCURVE",
"659 728 OFFCURVE",
"739 731 CURVE",
"776 778 OFFCURVE",
"862 1000 OFFCURVE",
"814 1098 CURVE",
"552 1021 LINE",
"576 1342 LINE",
"609 1284 OFFCURVE",
"913 1150 OFFCURVE",
"1080 1138 CURVE",
"1156 1204 OFFCURVE",
"1245 1443 OFFCURVE",
"1219 1517 CURVE",
"1115 1506 OFFCURVE",
"740 1576 OFFCURVE",
"585 1613 CURVE",
"326 1510 OFFCURVE",
"212 1301 OFFCURVE",
"190 1262 CURVE",
"167 1078 OFFCURVE",
"195 305 OFFCURVE",
"176 -143 CURVE",
"-17 -112 LINE {name = hr01;}",
"-46 -173 OFFCURVE",
"-65 -212 OFFCURVE",
"-74 -288 CURVE",
"-49 -334 OFFCURVE",
"5 -416 OFFCURVE",
"116 -438 CURVE"
);
},
{
closed = 1;
nodes = (
"1902 -20 OFFCURVE",
"2026 158 OFFCURVE",
"2080 256 CURVE",
"2020 381 LINE",
"1865 314 LINE",
"1894 392 LINE SMOOTH",
"1977 613 OFFCURVE",
"2074 1056 OFFCURVE",
"2089 1105 CURVE",
"2050 1146 OFFCURVE",
"1995 1163 OFFCURVE",
"1938 1163 CURVE SMOOTH",
"1817 1163 OFFCURVE",
"1675 1091 OFFCURVE",
"1607 1018 CURVE",
"1664 497 LINE",
"1539 239 OFFCURVE",
"1533 238 OFFCURVE",
"1533 199 CURVE SMOOTH",
"1533 95 OFFCURVE",
"1688 -20 OFFCURVE",
"1775 -20 CURVE SMOOTH"
);
}
);
width = 2040;
}
);
leftKerningGroup = KO_f;
rightKerningGroup = KO_fi;
},
{
color = 4;
glyphname = f_f_l;
lastChange = "2022-07-29 03:42:50 +0000";
layers = (
{
layerId = "ED69ACE7-BE83-49AD-8DAF-057B7A1FF3CB";
paths = (
{
closed = 1;
nodes = (
"229 -431 OFFCURVE",
"391 -328 OFFCURVE",
"427 -214 CURVE",
"469 29 OFFCURVE",
"504 409 OFFCURVE",
"538 792 CURVE",
"578 768 OFFCURVE",
"659 728 OFFCURVE",
"739 731 CURVE",
"776 778 OFFCURVE",
"862 1000 OFFCURVE",
"814 1098 CURVE",
"552 1021 LINE",
"582 1387 LINE",
"599 1357 OFFCURVE",
"675 1265 OFFCURVE",
"777 1223 CURVE SMOOTH",
"886 1178 OFFCURVE",
"995 1144 OFFCURVE",
"1080 1138 CURVE",
"1156 1204 OFFCURVE",
"1245 1443 OFFCURVE",
"1219 1517 CURVE",
"1115 1506 OFFCURVE",
"740 1576 OFFCURVE",
"585 1613 CURVE",
"326 1510 OFFCURVE",
"212 1301 OFFCURVE",
"190 1262 CURVE",
"167 1078 OFFCURVE",
"195 305 OFFCURVE",
"176 -143 CURVE",
"-17 -112 LINE",
"-46 -173 OFFCURVE",
"-65 -212 OFFCURVE",
"-74 -288 CURVE",
"-49 -334 OFFCURVE",
"5 -416 OFFCURVE",
"116 -438 CURVE"
);
},
{
closed = 1;
nodes = (
"951 -431 OFFCURVE",
"1113 -328 OFFCURVE",
"1148 -214 CURVE",
"1190 29 OFFCURVE",
"1226 410 OFFCURVE",
"1260 792 CURVE",
"1300 768 OFFCURVE",
"1382 748 OFFCURVE",
"1463 751 CURVE",
"1501 798 OFFCURVE",
"1584 1000 OFFCURVE",
"1536 1098 CURVE",
"1277 1053 LINE",
"1299 1345 LINE",
"1323 1304 OFFCURVE",
"1367 1257 OFFCURVE",
"1430 1229 CURVE SMOOTH",
"1499 1198 OFFCURVE",
"1585 1174 OFFCURVE",
"1682 1177 CURVE",
"1759 1241 OFFCURVE",
"1824 1437 OFFCURVE",
"1798 1510 CURVE",
"1677 1510 OFFCURVE",
"1451 1581 OFFCURVE",
"1307 1613 CURVE",
"1048 1510 OFFCURVE",
"934 1301 OFFCURVE",
"912 1262 CURVE",
"889 1078 OFFCURVE",
"917 305 OFFCURVE",
"897 -143 CURVE",
"704 -112 LINE",
"676 -173 OFFCURVE",
"657 -212 OFFCURVE",
"648 -288 CURVE",
"673 -334 OFFCURVE",
"727 -416 OFFCURVE",
"838 -438 CURVE"
);
},
{
closed = 1;
nodes = (
"1906 -20 OFFCURVE",
"2039 138 OFFCURVE",
"2091 254 CURVE",
"2030 381 LINE",
"1883 314 LINE",
"2022 919 OFFCURVE",
"2092 1250 OFFCURVE",
"2147 1566 CURVE",
"2108 1602 OFFCURVE",
"2059 1614 OFFCURVE",
"2002 1613 CURVE SMOOTH",
"1886 1612 OFFCURVE",
"1752 1547 OFFCURVE",
"1678 1466 CURVE",
"1669 1437 OFFCURVE",
"1657 912 OFFCURVE",
"1670 606 CURVE",
"1555 249 LINE SMOOTH",
"1536 192 OFFCURVE",
"1548 161 OFFCURVE",
"1563 140 CURVE SMOOTH",
"1621 56 OFFCURVE",
"1699 -20 OFFCURVE",
"1783 -20 CURVE SMOOTH {name = hr00;}"
);
}
);
width = 2051;
}
);
leftKerningGroup = KO_f;
rightKerningGroup = KO_fl;
},
{
color = 4;
glyphname = fi;
lastChange = "2022-07-29 03:42:50 +0000";
layers = (
{
layerId = "ED69ACE7-BE83-49AD-8DAF-057B7A1FF3CB";
paths = (
{
closed = 1;
nodes = (
"229 -431 OFFCURVE",
"391 -328 OFFCURVE",
"427 -214 CURVE",
"469 29 OFFCURVE",
"504 409 OFFCURVE",
"538 792 CURVE",
"578 768 OFFCURVE",
"659 728 OFFCURVE",
"739 731 CURVE",
"776 778 OFFCURVE",
"862 1000 OFFCURVE",
"814 1098 CURVE",
"552 1021 LINE",
"575 1331 LINE",
"724 1241 OFFCURVE",
"1106 1210 OFFCURVE",
"1302 1229 CURVE",
"1379 1295 OFFCURVE",
"1457 1539 OFFCURVE",
"1431 1613 CURVE {name = hr02;}",
"1213 1585 OFFCURVE",
"860 1571 OFFCURVE",
"595 1624 CURVE {name = hr03;}",
"335 1521 OFFCURVE",
"211 1299 OFFCURVE",
"190 1262 CURVE",
"167 1078 OFFCURVE",
"195 305 OFFCURVE",
"176 -143 CURVE",
"-17 -112 LINE {name = hr01;}",
"-46 -173 OFFCURVE",
"-65 -212 OFFCURVE",
"-74 -288 CURVE",
"-49 -334 OFFCURVE",
"5 -416 OFFCURVE",
"116 -438 CURVE"
);
},
{
closed = 1;
nodes = (
"1180 -20 OFFCURVE",
"1305 158 OFFCURVE",
"1358 256 CURVE",
"1298 381 LINE",
"1144 314 LINE",
"1173 392 LINE SMOOTH",
"1255 613 OFFCURVE",
"1352 1056 OFFCURVE",
"1368 1105 CURVE",
"1328 1146 OFFCURVE",
"1274 1163 OFFCURVE",
"1216 1163 CURVE SMOOTH",
"1095 1163 OFFCURVE",
"954 1091 OFFCURVE",
"886 1018 CURVE",
"942 497 LINE",
"818 239 OFFCURVE",
"811 238 OFFCURVE",
"811 199 CURVE SMOOTH",
"811 95 OFFCURVE",
"966 -20 OFFCURVE",
"1053 -20 CURVE SMOOTH"
);
}
);
width = 1318;
}
);
leftKerningGroup = KO_f;
rightKerningGroup = KO_fi;
unicode = FB01;
},
{
color = 4;
glyphname = fl;
lastChange = "2022-07-29 03:42:50 +0000";
layers = (
{
layerId = "ED69ACE7-BE83-49AD-8DAF-057B7A1FF3CB";
paths = (
{
closed = 1;
nodes = (
"229 -431 OFFCURVE",
"391 -328 OFFCURVE",
"427 -214 CURVE",
"469 29 OFFCURVE",
"504 409 OFFCURVE",
"538 792 CURVE",
"578 768 OFFCURVE",
"659 728 OFFCURVE",
"739 731 CURVE",
"776 778 OFFCURVE",
"862 1000 OFFCURVE",
"814 1098 CURVE",
"552 1021 LINE",
"574 1326 LINE",
"607 1268 OFFCURVE",
"777 1172 OFFCURVE",
"960 1177 CURVE",
"1037 1241 OFFCURVE",
"1102 1437 OFFCURVE",
"1077 1510 CURVE",
"955 1510 OFFCURVE",
"729 1581 OFFCURVE",
"585 1613 CURVE",
"326 1510 OFFCURVE",
"212 1301 OFFCURVE",
"190 1262 CURVE",
"167 1078 OFFCURVE",
"195 305 OFFCURVE",
"176 -143 CURVE",
"-17 -112 LINE {name = hr00;}",
"-46 -173 OFFCURVE",
"-65 -212 OFFCURVE",
"-74 -288 CURVE",
"-49 -334 OFFCURVE",
"5 -416 OFFCURVE",
"116 -438 CURVE"
);
},
{
closed = 1;
nodes = (
"1184 -20 OFFCURVE",
"1317 138 OFFCURVE",
"1370 254 CURVE",
"1309 381 LINE",
"1161 314 LINE",
"1301 919 OFFCURVE",
"1371 1250 OFFCURVE",
"1425 1566 CURVE",
"1388 1601 OFFCURVE",
"1338 1614 OFFCURVE",
"1280 1613 CURVE SMOOTH",
"1184 1612 OFFCURVE",
"1030 1547 OFFCURVE",
"956 1466 CURVE",
"948 1437 OFFCURVE",
"935 912 OFFCURVE",
"949 606 CURVE",
"833 249 LINE SMOOTH",
"815 192 OFFCURVE",
"826 161 OFFCURVE",
"841 140 CURVE SMOOTH",
"899 56 OFFCURVE",
"978 -20 OFFCURVE",
"1061 -20 CURVE SMOOTH"
);
}
);
width = 1329;
}
);
leftKerningGroup = KO_f;
rightKerningGroup = KO_fl;
unicode = FB02;
},
{
color = 4;
glyphname = ordfeminine;
lastChange = "2022-07-29 03:42:50 +0000";
layers = (
{
anchors = (
{
name = bottom;
position = "{501, 0}";
},
{
name = ogonek;
position = "{903, 9}";
},
{
name = top;
position = "{639, 1017}";
}
);
layerId = "ED69ACE7-BE83-49AD-8DAF-057B7A1FF3CB";
paths = (
{
closed = 1;
nodes = (
"956 703 OFFCURVE",
"1056 821 OFFCURVE",
"1132 958 CURVE",
"1076 1062 LINE",
"920 983 LINE {name = hr01;}",
"1021 1168 OFFCURVE",
"1150 1569 OFFCURVE",
"1151 1631 CURVE",
"1102 1703 OFFCURVE",
"1036 1735 OFFCURVE",
"934 1735 CURVE SMOOTH {name = hr02;}",
"870 1735 OFFCURVE",
"810 1723 OFFCURVE",
"791 1711 CURVE",
"787 1683 OFFCURVE",
"781 1601 OFFCURVE",
"769 1499 CURVE",
"730 1588 OFFCURVE",
"679 1689 OFFCURVE",
"598 1754 CURVE {name = hr03;}",
"566 1749 OFFCURVE",
"394 1718 OFFCURVE",
"273 1583 CURVE",
"251 1556 OFFCURVE",
"245 1544 OFFCURVE",
"245 1525 CURVE SMOOTH",
"245 1518 OFFCURVE",
"246 1505 OFFCURVE",
"250 1482 CURVE SMOOTH",
"258 1435 OFFCURVE",
"262 1365 OFFCURVE",
"262 1289 CURVE SMOOTH",
"262 883 OFFCURVE",
"223 1111 OFFCURVE",
"223 839 CURVE SMOOTH",
"223 797 OFFCURVE",
"287 772 OFFCURVE",
"322 744 CURVE SMOOTH",
"350 721 OFFCURVE",
"376 700 OFFCURVE",
"407 702 CURVE SMOOTH",
"422 703 OFFCURVE",
"438 709 OFFCURVE",
"457 723 CURVE",
"545 794 OFFCURVE",
"666 1020 OFFCURVE",
"730 1146 CURVE",
"742 1140 LINE",
"721 1062 OFFCURVE",
"707 1013 OFFCURVE",
"682 905 CURVE SMOOTH",
"665 833 OFFCURVE",
"691 810 OFFCURVE",
"707 788 CURVE SMOOTH {name = hr04;}",
"747 735 OFFCURVE",
"808 700 OFFCURVE",
"859 701 CURVE SMOOTH"
);
},
{
closed = 1;
nodes = (
"498 1022 LINE",
"533 1130 OFFCURVE",
"556 1223 OFFCURVE",
"569 1331 CURVE",
"581 1423 LINE",
"632 1411 OFFCURVE",
"690 1401 OFFCURVE",
"754 1384 CURVE",
"746 1322 OFFCURVE",
"750 1344 OFFCURVE",
"743 1315 CURVE",
"704 1250 OFFCURVE",
"591 1073 OFFCURVE",
"521 1010 CURVE"
);
}
);
width = 1002;
}
);
leftKerningGroup = KO_ordfeminine;
rightKerningGroup = KO_ordfeminine;
unicode = 00AA;
userData = {
KernOnSpecialSpacing = {
L = superiors;
R = superiors;
};
};
},
{
color = 4;
glyphname = ordmasculine;
lastChange = "2022-07-29 03:42:50 +0000";
layers = (
{
anchors = (
{
name = center;
position = "{521, 508}";
},
{
name = ogonek;
position = "{815, 9}";
},
{
name = topright;
position = "{1138, 1015}";
}
);
layerId = "ED69ACE7-BE83-49AD-8DAF-057B7A1FF3CB";
paths = (
{
closed = 1;
nodes = (
"631 734 OFFCURVE",
"712 768 OFFCURVE",
"760 792 CURVE SMOOTH",
"805 814 OFFCURVE",
"893 866 OFFCURVE",
"908 885 CURVE",
"983 1072 OFFCURVE",
"1056 1404 OFFCURVE",
"1056 1556 CURVE SMOOTH",
"1056 1569 OFFCURVE",
"1055 1582 OFFCURVE",
"1055 1595 CURVE",
"995 1684 OFFCURVE",
"818 1768 OFFCURVE",
"679 1782 CURVE {name = hr00;}",
"594 1770 OFFCURVE",
"343 1674 OFFCURVE",
"286 1612 CURVE",
"219 1375 OFFCURVE",
"219 1132 OFFCURVE",
"222 864 CURVE",
"275 802 OFFCURVE",
"468 741 OFFCURVE",
"575 730 CURVE"
);
},
{
closed = 1;
nodes = (
"566 949 OFFCURVE",
"523 975 OFFCURVE",
"492 998 CURVE",
"496 1085 OFFCURVE",
"503 1170 OFFCURVE",
"515 1257 CURVE SMOOTH",
"526 1336 OFFCURVE",
"541 1411 OFFCURVE",
"554 1464 CURVE",
"607 1489 LINE",
"728 1435 LINE",
"724 1329 OFFCURVE",
"717 1252 OFFCURVE",
"704 1157 CURVE SMOOTH",
"695 1093 OFFCURVE",
"687 1031 OFFCURVE",
"672 969 CURVE",
"623 936 LINE"
);
}
);
width = 901;
}
);
leftKerningGroup = KO_ordmasculine;
rightKerningGroup = KO_ordmasculine;
unicode = 00BA;
userData = {
KernOnSpecialSpacing = {
L = superiors;
R = superiors;
};
};
},
{
color = 4;
glyphname = pi;
lastChange = "2022-07-29 03:42:50 +0000";
layers = (
{
layerId = "ED69ACE7-BE83-49AD-8DAF-057B7A1FF3CB";
paths = (
{
closed = 1;
nodes = (
"455 901 LINE",
"1129 829 LINE",
"1383 768 OFFCURVE",
"1462 749 OFFCURVE",
"1529 749 CURVE",
"1668 839 OFFCURVE",
"1717 1135 OFFCURVE",
"1598 1204 CURVE",
"1314 1093 LINE {name = hr01;}",
"465 1204 LINE",
"348 1180 OFFCURVE",
"237 1121 OFFCURVE",
"169 1048 CURVE {name = hr02;}",
"107 945 OFFCURVE",
"173 679 OFFCURVE",
"190 583 CURVE",
"251 565 OFFCURVE",
"325 563 OFFCURVE",
"406 582 CURVE"
);
},
{
closed = 1;
nodes = (
"672 -20 OFFCURVE",
"741 -10 OFFCURVE",
"783 16 CURVE",
"795 186 OFFCURVE",
"795 342 OFFCURVE",
"787 495 CURVE",
"897 1011 LINE",
"535 1019 LINE",
"519 404 LINE",
"457 271 OFFCURVE",
"409 166 OFFCURVE",
"387 54 CURVE",
"428 9 OFFCURVE",
"506 -20 OFFCURVE",
"612 -20 CURVE SMOOTH"
);
},
{
closed = 1;
nodes = (
"1293 -20 OFFCURVE",
"1407 151 OFFCURVE",
"1459 256 CURVE",
"1393 381 LINE",
"1210 309 LINE",
"1276 521 OFFCURVE",
"1334 759 OFFCURVE",
"1374 946 CURVE",
"900 944 LINE",
"1021 887 LINE",
"962 611 OFFCURVE",
"915 229 OFFCURVE",
"915 204 CURVE SMOOTH",
"915 98 OFFCURVE",
"1081 -20 OFFCURVE",
"1169 -20 CURVE SMOOTH"
);
}
);
width = 1568;
}
);
leftKerningGroup = KO_pi;
rightKerningGroup = KO_pi;
unicode = 03C0;
},
{
color = 4;
glyphname = zero;
lastChange = "2022-07-29 03:42:50 +0000";
layers = (
{
layerId = "ED69ACE7-BE83-49AD-8DAF-057B7A1FF3CB";
paths = (
{
closed = 1;
nodes = (
"904 -20 OFFCURVE",
"1084 253 OFFCURVE",
"1134 580 CURVE SMOOTH",
"1185 915 OFFCURVE",
"1122 1185 OFFCURVE",
"732 1185 CURVE SMOOTH",
"365 1185 OFFCURVE",
"200 915 OFFCURVE",
"148 580 CURVE SMOOTH {name = hr00;}",
"98 249 OFFCURVE",
"181 -20 OFFCURVE",
"548 -20 CURVE SMOOTH"
);
},
{
closed = 1;
nodes = (
"573 238 OFFCURVE",
"518 262 OFFCURVE",
"481 290 CURVE",
"479 319 OFFCURVE",
"479 348 OFFCURVE",
"479 377 CURVE SMOOTH",
"479 620 OFFCURVE",
"545 820 OFFCURVE",
"556 850 CURVE",
"627 883 LINE",
"777 826 LINE",
"781 793 OFFCURVE",
"782 754 OFFCURVE",
"782 728 CURVE SMOOTH",
"782 529 OFFCURVE",
"732 339 OFFCURVE",
"710 265 CURVE",
"644 222 LINE"
);
}
);
width = 1123;
}
);
leftKerningGroup = KO_zero;
rightKerningGroup = KO_zero;
unicode = 0030;
userData = {
KernOnName = zero;
};
},
{
color = 4;
glyphname = one;
lastChange = "2022-07-29 03:42:50 +0000";
layers = (
{
layerId = "ED69ACE7-BE83-49AD-8DAF-057B7A1FF3CB";
paths = (
{
closed = 1;
nodes = (
"504 -19 OFFCURVE",
"567 -8 OFFCURVE",
"610 22 CURVE",
"612 182 OFFCURVE",
"588 304 OFFCURVE",
"576 371 CURVE",
"653 588 OFFCURVE",
"725 888 OFFCURVE",
"755 1058 CURVE",
"712 1104 OFFCURVE",
"663 1145 OFFCURVE",
"611 1180 CURVE {name = hr00;}",
"427 1139 OFFCURVE",
"234 1005 OFFCURVE",
"123 884 CURVE",
"170 735 LINE",
"360 768 LINE",
"361 565 LINE",
"212 22 LINE",
"248 -7 OFFCURVE",
"374 -21 OFFCURVE",
"443 -20 CURVE SMOOTH"
);
}
);
width = 726;
}
);
leftKerningGroup = KO_one;
rightKerningGroup = KO_one;
unicode = 0031;
},
{
color = 4;
glyphname = two;
lastChange = "2022-07-29 03:42:50 +0000";
layers = (
{
layerId = "ED69ACE7-BE83-49AD-8DAF-057B7A1FF3CB";
paths = (
{
closed = 1;
nodes = (
"504 150 LINE",
"621 338 LINE",
"591 349 LINE",
"593 367 LINE {name = hr01;}",
"708 429 OFFCURVE",
"998 620 OFFCURVE",
"1106 743 CURVE",
"1140 858 OFFCURVE",
"1137 945 OFFCURVE",
"1130 1012 CURVE",
"1034 1134 OFFCURVE",
"808 1201 OFFCURVE",
"696 1208 CURVE",
"581 1208 OFFCURVE",
"346 1102 OFFCURVE",
"264 1028 CURVE",
"189 921 OFFCURVE",
"230 686 OFFCURVE",
"261 595 CURVE",
"291 586 OFFCURVE",
"318 580 OFFCURVE",
"346 580 CURVE SMOOTH",
"378 580 OFFCURVE",
"415 586 OFFCURVE",
"458 601 CURVE",
"532 878 LINE",
"563 890 LINE",
"756 815 LINE",
"751 762 LINE",
"688 681 OFFCURVE",
"487 478 OFFCURVE",
"387 392 CURVE",
"491 130 LINE"
);
},
{
closed = 1;
nodes = (
"872 -20 OFFCURVE",
"936 12 OFFCURVE",
"996 82 CURVE SMOOTH",
"1098 202 OFFCURVE",
"1085 352 OFFCURVE",
"1065 441 CURVE",
"925 469 LINE",
"819 327 LINE",
"491 371 LINE",
"420 404 LINE",
"369 455 OFFCURVE",
"335 478 OFFCURVE",
"292 491 CURVE",
"237 473 OFFCURVE",
"183 443 OFFCURVE",
"134 403 CURVE",
"110 266 OFFCURVE",
"146 37 OFFCURVE",
"224 -17 CURVE",
"309 -14 OFFCURVE",
"383 28 OFFCURVE",
"443 105 CURVE SMOOTH",
"454 118 OFFCURVE",
"467 137 OFFCURVE",
"475 150 CURVE",
"533 80 OFFCURVE",
"681 -20 OFFCURVE",
"802 -20 CURVE SMOOTH {name = hr02;}"
);
}
);
width = 1101;
}
);
leftKerningGroup = KO_two;
rightKerningGroup = KO_two;
unicode = 0032;
},
{
color = 4;
glyphname = three;
lastChange = "2022-07-29 03:42:50 +0000";
layers = (
{
layerId = "ED69ACE7-BE83-49AD-8DAF-057B7A1FF3CB";
paths = (
{
closed = 1;
nodes = (
"534 -291 OFFCURVE",
"670 -264 OFFCURVE",
"756 -217 CURVE SMOOTH {name = hr02;}",
"901 -137 OFFCURVE",
"1010 18 OFFCURVE",
"1043 258 CURVE",
"1058 359 OFFCURVE",
"856 483 OFFCURVE",
"659 508 CURVE",
"586 507 OFFCURVE",
"525 484 OFFCURVE",
"450 465 CURVE",
"395 353 OFFCURVE",
"421 388 OFFCURVE",
"467 365 CURVE SMOOTH",
"546 325 OFFCURVE",
"647 280 OFFCURVE",
"689 191 CURVE",
"674 141 OFFCURVE",
"644 46 OFFCURVE",
"613 -3 CURVE",
"576 -10 OFFCURVE",
"536 -15 OFFCURVE",
"505 -15 CURVE SMOOTH",
"365 -13 OFFCURVE",
"243 46 OFFCURVE",
"132 107 CURVE",
"85 71 OFFCURVE",
"47 28 OFFCURVE",
"47 -60 CURVE SMOOTH",
"47 -66 OFFCURVE",
"47 -72 OFFCURVE",
"48 -79 CURVE",
"112 -199 OFFCURVE",
"241 -291 OFFCURVE",
"439 -291 CURVE SMOOTH"
);
},
{
closed = 1;
nodes = (
"373 203 OFFCURVE",
"479 274 OFFCURVE",
"527 347 CURVE",
"566 379 OFFCURVE",
"527 350 OFFCURVE",
"568 391 CURVE",
"484 520 LINE {name = hr01;}",
"343 566 LINE",
"249 530 LINE",
"149 393 OFFCURVE",
"215 210 OFFCURVE",
"303 189 CURVE"
);
},
{
closed = 1;
nodes = (
"492 429 LINE",
"568 467 OFFCURVE",
"812 533 OFFCURVE",
"1013 740 CURVE",
"1050 853 OFFCURVE",
"1051 940 OFFCURVE",
"1040 1012 CURVE",
"966 1104 OFFCURVE",
"718 1208 OFFCURVE",
"631 1208 CURVE SMOOTH",
"607 1208 OFFCURVE",
"547 1193 OFFCURVE",
"485 1172 CURVE",
"381 1141 OFFCURVE",
"259 1091 OFFCURVE",
"198 1028 CURVE",
"122 919 OFFCURVE",
"159 796 OFFCURVE",
"178 692 CURVE",
"250 658 OFFCURVE",
"324 664 OFFCURVE",
"404 691 CURVE",
"457 874 LINE",
"489 890 LINE",
"688 810 LINE",
"687 787 LINE",
"624 706 OFFCURVE",
"420 477 OFFCURVE",
"322 392 CURVE"
);
}
);
width = 1043;
}
);
leftKerningGroup = KO_three;
rightKerningGroup = KO_three;
unicode = 0033;
},
{
color = 4;
glyphname = four;
lastChange = "2022-07-29 03:42:50 +0000";
layers = (
{
layerId = "ED69ACE7-BE83-49AD-8DAF-057B7A1FF3CB";
paths = (
{
closed = 1;
nodes = (
"915 333 LINE",
"471 366 LINE",
"834 1126 LINE {name = hr00;}",
"805 1174 OFFCURVE",
"706 1181 OFFCURVE",
"666 1181 CURVE SMOOTH",
"566 1181 OFFCURVE",
"454 1147 OFFCURVE",
"383 1066 CURVE",
"180 184 LINE",
"182 181 LINE",
"179 177 LINE",
"182 174 LINE",
"776 66 LINE"
);
},
{
closed = 1;
nodes = (
"242 53 OFFCURVE",
"347 123 OFFCURVE",
"395 197 CURVE",
"435 229 OFFCURVE",
"395 200 OFFCURVE",
"437 241 CURVE",
"352 370 LINE",
"120 400 LINE",
"20 263 OFFCURVE",
"83 60 OFFCURVE",
"171 39 CURVE"
);
},
{
closed = 1;
nodes = (
"902 -292 OFFCURVE",
"965 -281 OFFCURVE",
"1009 -251 CURVE",
"1011 -90 OFFCURVE",
"997 137 OFFCURVE",
"987 194 CURVE",
"1086 472 OFFCURVE",
"1172 866 OFFCURVE",
"1174 940 CURVE",
"1152 950 OFFCURVE",
"1128 955 OFFCURVE",
"1103 955 CURVE SMOOTH",
"886 955 OFFCURVE",
"718 776 OFFCURVE",
"738 777 CURVE",
"769 292 LINE",
"621 -251 LINE",
"656 -280 OFFCURVE",
"773 -294 OFFCURVE",
"842 -293 CURVE SMOOTH"
);
}
);
width = 1162;
}
);
leftKerningGroup = KO_four;
rightKerningGroup = KO_four;
unicode = 0034;
},
{
color = 4;
glyphname = five;
lastChange = "2022-07-29 03:42:50 +0000";
layers = (
{
layerId = "ED69ACE7-BE83-49AD-8DAF-057B7A1FF3CB";
paths = (
{
closed = 1;
nodes = (
"769 -291 OFFCURVE",
"1003 -36 OFFCURVE",
"1003 318 CURVE SMOOTH",
"1003 509 OFFCURVE",
"906 657 OFFCURVE",
"708 654 CURVE {name = hr01;}",
"574 618 OFFCURVE",
"409 445 OFFCURVE",
"361 400 CURVE {name = hr02;}",
"356 387 OFFCURVE",
"352 384 OFFCURVE",
"347 384 CURVE SMOOTH",
"339 384 OFFCURVE",
"332 400 OFFCURVE",
"328 400 CURVE SMOOTH",
"327 400 OFFCURVE",
"326 398 OFFCURVE",
"326 394 CURVE SMOOTH",
"326 369 OFFCURVE",
"347 338 OFFCURVE",
"379 338 CURVE",
"629 346 LINE",
"640 333 OFFCURVE",
"646 295 OFFCURVE",
"646 248 CURVE SMOOTH",
"646 142 OFFCURVE",
"609 2 OFFCURVE",
"575 -17 CURVE",
"549 -21 OFFCURVE",
"518 -23 OFFCURVE",
"494 -23 CURVE SMOOTH",
"355 -23 OFFCURVE",
"238 44 OFFCURVE",
"121 107 CURVE",
"88 80 OFFCURVE",
"43 37 OFFCURVE",
"43 -52 CURVE SMOOTH",
"43 -61 OFFCURVE",
"44 -70 OFFCURVE",
"45 -79 CURVE",
"113 -199 OFFCURVE",
"244 -291 OFFCURVE",
"442 -291 CURVE SMOOTH"
);
},
{
closed = 1;
nodes = (
"312 159 OFFCURVE",
"437 287 OFFCURVE",
"475 361 CURVE",
"392 487 LINE",
"158 501 LINE",
"132 470 OFFCURVE",
"116 433 OFFCURVE",
"113 390 CURVE",
"102 288 OFFCURVE",
"168 165 OFFCURVE",
"233 143 CURVE"
);
},
{
closed = 1;
nodes = (
"524 435 LINE",
"456 500 LINE",
"534 865 LINE",
"636 805 OFFCURVE",
"860 755 OFFCURVE",
"930 751 CURVE",
"966 769 OFFCURVE",
"1079 913 OFFCURVE",
"1079 1079 CURVE SMOOTH",
"1079 1122 OFFCURVE",
"1071 1165 OFFCURVE",
"1054 1205 CURVE",
"681 1135 LINE",
"623 1145 OFFCURVE",
"437 1194 OFFCURVE",
"386 1205 CURVE",
"303 1166 OFFCURVE",
"227 1048 OFFCURVE",
"211 962 CURVE",
"310 389 LINE"
);
}
);
width = 1018;
}
);
leftKerningGroup = KO_five;
rightKerningGroup = KO_five;
unicode = 0035;
},
{
color = 4;
glyphname = six;
lastChange = "2022-07-29 03:42:50 +0000";
layers = (
{
layerId = "ED69ACE7-BE83-49AD-8DAF-057B7A1FF3CB";
paths = (
{
closed = 1;
nodes = (
"894 -20 OFFCURVE",
"1073 213 OFFCURVE",
"1128 540 CURVE SMOOTH",
"1169 783 OFFCURVE",
"1136 930 OFFCURVE",
"893 926 CURVE SMOOTH",
"748 924 OFFCURVE",
"571 762 OFFCURVE",
"470 662 CURVE",
"451 674 LINE",
"607 887 OFFCURVE",
"840 1123 OFFCURVE",
"1088 1365 CURVE",
"1057 1464 OFFCURVE",
"1029 1509 OFFCURVE",
"957 1549 CURVE",
"697 1373 OFFCURVE",
"306 1068 OFFCURVE",
"164 682 CURVE",
"85 279 OFFCURVE",
"175 -20 OFFCURVE",
"537 -20 CURVE SMOOTH"
);
},
{
closed = 1;
nodes = (
"592 235 OFFCURVE",
"513 272 OFFCURVE",
"479 307 CURVE",
"468 389 OFFCURVE",
"463 398 OFFCURVE",
"476 501 CURVE",
"561 568 OFFCURVE",
"650 629 OFFCURVE",
"749 654 CURVE {name = hr00;}",
"760 513 OFFCURVE",
"751 407 OFFCURVE",
"706 272 CURVE",
"639 229 LINE"
);
}
);
width = 1123;
}
);
leftKerningGroup = KO_six;
rightKerningGroup = KO_six;
unicode = 0036;
},
{
color = 4;
glyphname = seven;
lastChange = "2022-07-29 03:42:50 +0000";
layers = (
{
layerId = "ED69ACE7-BE83-49AD-8DAF-057B7A1FF3CB";
paths = (
{
closed = 1;
nodes = (
"436 -292 OFFCURVE",
"461 -287 OFFCURVE",
"498 -275 CURVE",
"732 284 LINE",
"966 790 LINE",
"1082 770 LINE {name = hr00;}",
"1175 927 OFFCURVE",
"1169 1129 OFFCURVE",
"1050 1203 CURVE",
"969 1178 OFFCURVE",
"899 1139 OFFCURVE",
"815 1077 CURVE",
"723 1123 OFFCURVE",
"634 1174 OFFCURVE",
"494 1203 CURVE",
"453 1205 OFFCURVE",
"221 1109 OFFCURVE",
"183 995 CURVE",
"130 830 OFFCURVE",
"175 592 OFFCURVE",
"235 511 CURVE",
"406 531 LINE",
"477 858 LINE",
"704 823 LINE",
"494 365 LINE",
"144 -162 LINE",
"164 -242 OFFCURVE",
"278 -286 OFFCURVE",
"389 -290 CURVE SMOOTH"
);
}
);
width = 1019;
}
);
leftKerningGroup = KO_seven;
rightKerningGroup = KO_seven;
unicode = 0037;
},
{
color = 4;
glyphname = eight;
lastChange = "2022-07-29 03:42:50 +0000";
layers = (
{
layerId = "ED69ACE7-BE83-49AD-8DAF-057B7A1FF3CB";
paths = (
{
closed = 1;
nodes = (
"680 5 OFFCURVE",
"879 73 OFFCURVE",
"990 185 CURVE",
"1054 304 OFFCURVE",
"1066 422 OFFCURVE",
"1057 538 CURVE",
"815 776 LINE {name = hr01;}",
"935 863 OFFCURVE",
"1077 1013 OFFCURVE",
"1132 1107 CURVE",
"1160 1220 OFFCURVE",
"1153 1309 OFFCURVE",
"1143 1375 CURVE",
"1040 1491 OFFCURVE",
"811 1546 OFFCURVE",
"697 1547 CURVE",
"581 1541 OFFCURVE",
"351 1423 OFFCURVE",
"272 1346 CURVE",
"200 1234 OFFCURVE",
"212 1004 OFFCURVE",
"245 921 CURVE",
"245 920 LINE",
"415 751 LINE",
"293 662 OFFCURVE",
"155 545 OFFCURVE",
"113 406 CURVE {name = hr02;}",
"85 293 OFFCURVE",
"91 206 OFFCURVE",
"103 138 CURVE",
"206 22 OFFCURVE",
"435 -33 OFFCURVE",
"548 -34 CURVE"
);
},
{
closed = 1;
nodes = (
"568 269 OFFCURVE",
"476 293 OFFCURVE",
"391 341 CURVE",
"395 433 LINE",
"418 463 OFFCURVE",
"503 581 OFFCURVE",
"552 631 CURVE",
"731 418 LINE",
"706 296 LINE",
"665 278 LINE"
);
},
{
closed = 1;
nodes = (
"678 914 OFFCURVE",
"635 966 OFFCURVE",
"625 980 CURVE SMOOTH",
"578 1041 OFFCURVE",
"557 1067 OFFCURVE",
"516 1115 CURVE",
"540 1218 LINE",
"580 1236 LINE",
"663 1235 OFFCURVE",
"729 1210 OFFCURVE",
"789 1169 CURVE",
"758 1041 OFFCURVE",
"739 985 OFFCURVE",
"694 896 CURVE"
);
}
);
width = 1054;
}
);
leftKerningGroup = KO_eight;
rightKerningGroup = KO_eight;
unicode = 0038;
},
{
color = 4;
glyphname = nine;
lastChange = "2022-07-29 03:42:50 +0000";
layers = (
{
layerId = "ED69ACE7-BE83-49AD-8DAF-057B7A1FF3CB";
paths = (
{
closed = 1;
nodes = (
"605 -115 OFFCURVE",
"979 141 OFFCURVE",
"1119 528 CURVE",
"1198 931 OFFCURVE",
"1109 1230 OFFCURVE",
"746 1230 CURVE SMOOTH",
"390 1230 OFFCURVE",
"154 991 OFFCURVE",
"154 630 CURVE SMOOTH",
"154 413 OFFCURVE",
"259 282 OFFCURVE",
"390 284 CURVE SMOOTH",
"535 286 OFFCURVE",
"711 447 OFFCURVE",
"813 548 CURVE",
"832 536 LINE",
"663 304 OFFCURVE",
"387 61 OFFCURVE",
"214 -107 CURVE",
"244 -204 OFFCURVE",
"274 -251 OFFCURVE",
"345 -291 CURVE"
);
},
{
closed = 1;
nodes = (
"519 668 OFFCURVE",
"534 805 OFFCURVE",
"577 938 CURVE",
"644 981 LINE",
"692 975 OFFCURVE",
"770 939 OFFCURVE",
"804 903 CURVE",
"817 821 OFFCURVE",
"816 776 OFFCURVE",
"804 680 CURVE",
"531 527 LINE {name = hr00;}"
);
}
);
width = 1118;
}
);
leftKerningGroup = KO_nine;
rightKerningGroup = KO_nine;
unicode = 0039;
},
{
color = 4;
glyphname = zero.lf;
lastChange = "2022-07-29 03:42:50 +0000";
layers = (
{
layerId = "ED69ACE7-BE83-49AD-8DAF-057B7A1FF3CB";
paths = (
{
closed = 1;
nodes = (
"903 -20 OFFCURVE",
"1084 258 OFFCURVE",
"1154 735 CURVE SMOOTH",
"1227 1230 OFFCURVE",
"1165 1500 OFFCURVE",
"774 1500 CURVE SMOOTH",
"407 1500 OFFCURVE",
"242 1230 OFFCURVE",
"169 735 CURVE SMOOTH {name = hr00;}",
"98 254 OFFCURVE",
"180 -20 OFFCURVE",
"547 -20 CURVE SMOOTH"
);
},
{
closed = 1;
nodes = (
"574 238 OFFCURVE",
"520 260 OFFCURVE",
"480 290 CURVE",
"479 312 OFFCURVE",
"478 337 OFFCURVE",
"478 360 CURVE SMOOTH",
"478 543 OFFCURVE",
"550 1027 OFFCURVE",
"598 1165 CURVE",
"669 1198 LINE",
"820 1141 LINE",
"823 1113 OFFCURVE",
"824 1079 OFFCURVE",
"824 1058 CURVE SMOOTH",
"824 894 OFFCURVE",
"754 409 OFFCURVE",
"709 265 CURVE",
"643 222 LINE"
);
}
);
width = 1123;
}
);
leftKerningGroup = KO_zero.lf;
rightKerningGroup = KO_zero.lf;
},
{
color = 4;
glyphname = one.lf;
lastChange = "2022-07-29 03:42:50 +0000";
layers = (
{
layerId = "ED69ACE7-BE83-49AD-8DAF-057B7A1FF3CB";
paths = (
{
closed = 1;
nodes = (
"504 -19 OFFCURVE",
"567 -8 OFFCURVE",
"611 22 CURVE",
"613 182 OFFCURVE",
"615 523 OFFCURVE",
"605 581 CURVE",
"683 798 OFFCURVE",
"770 1216 OFFCURVE",
"798 1373 CURVE",
"756 1419 OFFCURVE",
"706 1460 OFFCURVE",
"655 1495 CURVE {name = hr00;}",
"470 1454 OFFCURVE",
"277 1320 OFFCURVE",
"167 1199 CURVE",
"213 1050 LINE",
"404 1083 LINE",
"390 775 LINE",
"213 22 LINE",
"249 -7 OFFCURVE",
"374 -21 OFFCURVE",
"444 -20 CURVE SMOOTH"
);
}
);
width = 726;
}
);
leftKerningGroup = KO_one.lf;
rightKerningGroup = KO_one.lf;
},
{
color = 4;
glyphname = two.lf;
lastChange = "2022-07-29 03:42:50 +0000";
layers = (
{
layerId = "ED69ACE7-BE83-49AD-8DAF-057B7A1FF3CB";
paths = (
{
closed = 1;
nodes = (
"466 150 LINE",
"621 338 LINE",
"591 349 LINE",
"534 357 LINE {name = hr01;}",
"648 419 OFFCURVE",
"1051 926 OFFCURVE",
"1146 1035 CURVE",
"1178 1142 OFFCURVE",
"1178 1230 OFFCURVE",
"1170 1304 CURVE",
"1074 1426 OFFCURVE",
"848 1493 OFFCURVE",
"736 1500 CURVE",
"622 1500 OFFCURVE",
"386 1394 OFFCURVE",
"304 1320 CURVE",
"228 1211 OFFCURVE",
"271 974 OFFCURVE",
"301 887 CURVE",
"331 878 OFFCURVE",
"358 872 OFFCURVE",
"386 872 CURVE SMOOTH",
"418 872 OFFCURVE",
"455 878 OFFCURVE",
"498 893 CURVE",
"571 1170 LINE",
"646 1198 LINE",
"795 1107 LINE",
"791 1054 LINE",
"728 973 OFFCURVE",
"427 467 OFFCURVE",
"328 382 CURVE",
"452 130 LINE"
);
},
{
closed = 1;
nodes = (
"872 -20 OFFCURVE",
"936 12 OFFCURVE",
"996 82 CURVE SMOOTH",
"1095 198 OFFCURVE",
"1115 408 OFFCURVE",
"1093 502 CURVE",
"954 530 LINE",
"819 327 LINE",
"491 371 LINE",
"420 404 LINE",
"369 455 OFFCURVE",
"335 478 OFFCURVE",
"292 491 CURVE",
"237 473 OFFCURVE",
"183 443 OFFCURVE",
"134 403 CURVE",
"110 266 OFFCURVE",
"146 37 OFFCURVE",
"224 -17 CURVE",
"308 -14 OFFCURVE",
"342 26 OFFCURVE",
"404 105 CURVE SMOOTH",
"415 118 OFFCURVE",
"428 137 OFFCURVE",
"437 150 CURVE",
"494 80 OFFCURVE",
"681 -20 OFFCURVE",
"802 -20 CURVE SMOOTH {name = hr02;}"
);
}
);
width = 1101;
}
);
leftKerningGroup = KO_two.lf;
rightKerningGroup = KO_two.lf;
},
{
color = 4;
glyphname = four.lf;
lastChange = "2022-07-29 03:42:50 +0000";
layers = (
{
layerId = "ED69ACE7-BE83-49AD-8DAF-057B7A1FF3CB";
paths = (
{
closed = 1;
nodes = (
"954 619 LINE",
"510 652 LINE",
"878 1446 LINE {name = hr00;}",
"849 1494 OFFCURVE",
"750 1501 OFFCURVE",
"710 1501 CURVE SMOOTH",
"609 1501 OFFCURVE",
"498 1467 OFFCURVE",
"426 1386 CURVE",
"219 470 LINE",
"221 467 LINE",
"218 463 LINE",
"221 460 LINE",
"815 352 LINE"
);
},
{
closed = 1;
nodes = (
"280 339 OFFCURVE",
"386 410 OFFCURVE",
"434 483 CURVE",
"473 515 OFFCURVE",
"434 486 OFFCURVE",
"475 527 CURVE",
"391 656 LINE",
"159 686 LINE",
"59 549 OFFCURVE",
"122 346 OFFCURVE",
"210 325 CURVE"
);
},
{
closed = 1;
nodes = (
"941 -6 OFFCURVE",
"1004 5 OFFCURVE",
"1048 35 CURVE",
"1050 195 OFFCURVE",
"1036 423 OFFCURVE",
"1026 480 CURVE",
"1125 758 OFFCURVE",
"1204 1102 OFFCURVE",
"1206 1176 CURVE",
"1184 1186 OFFCURVE",
"1160 1191 OFFCURVE",
"1135 1191 CURVE SMOOTH",
"918 1191 OFFCURVE",
"750 1012 OFFCURVE",
"770 1013 CURVE",
"808 578 LINE",
"660 35 LINE",
"695 6 OFFCURVE",
"812 -8 OFFCURVE",
"881 -7 CURVE SMOOTH"
);
}
);
width = 1162;
}
);
leftKerningGroup = KO_four.lf;
rightKerningGroup = KO_four.lf;
},
{
color = 4;
glyphname = five.lf;
lastChange = "2022-07-29 03:42:50 +0000";
layers = (
{
layerId = "ED69ACE7-BE83-49AD-8DAF-057B7A1FF3CB";
paths = (
{
closed = 1;
nodes = (
"807 -12 OFFCURVE",
"1041 243 OFFCURVE",
"1041 597 CURVE SMOOTH",
"1041 788 OFFCURVE",
"944 936 OFFCURVE",
"746 933 CURVE {name = hr01;}",
"612 897 OFFCURVE",
"447 724 OFFCURVE",
"399 679 CURVE {name = hr02;}",
"394 666 OFFCURVE",
"390 663 OFFCURVE",
"385 663 CURVE SMOOTH",
"376 663 OFFCURVE",
"370 679 OFFCURVE",
"366 679 CURVE SMOOTH",
"365 679 OFFCURVE",
"364 677 OFFCURVE",
"364 673 CURVE SMOOTH",
"364 648 OFFCURVE",
"385 617 OFFCURVE",
"417 617 CURVE",
"666 625 LINE",
"678 612 OFFCURVE",
"684 574 OFFCURVE",
"684 527 CURVE SMOOTH",
"684 421 OFFCURVE",
"647 281 OFFCURVE",
"613 262 CURVE",
"587 258 OFFCURVE",
"556 256 OFFCURVE",
"532 256 CURVE SMOOTH",
"393 256 OFFCURVE",
"275 323 OFFCURVE",
"159 386 CURVE",
"126 359 OFFCURVE",
"81 316 OFFCURVE",
"81 227 CURVE SMOOTH",
"81 218 OFFCURVE",
"81 209 OFFCURVE",
"82 200 CURVE",
"150 80 OFFCURVE",
"282 -12 OFFCURVE",
"480 -12 CURVE SMOOTH"
);
},
{
closed = 1;
nodes = (
"350 438 OFFCURVE",
"474 566 OFFCURVE",
"513 640 CURVE",
"430 766 LINE",
"196 780 LINE",
"170 749 OFFCURVE",
"154 712 OFFCURVE",
"150 669 CURVE",
"140 567 OFFCURVE",
"206 444 OFFCURVE",
"271 422 CURVE"
);
},
{
closed = 1;
nodes = (
"562 714 LINE",
"494 779 LINE",
"574 1160 LINE",
"677 1100 OFFCURVE",
"898 1050 OFFCURVE",
"970 1046 CURVE",
"1007 1064 OFFCURVE",
"1118 1209 OFFCURVE",
"1118 1374 CURVE SMOOTH",
"1118 1415 OFFCURVE",
"1112 1458 OFFCURVE",
"1094 1500 CURVE",
"721 1430 LINE",
"663 1440 OFFCURVE",
"477 1489 OFFCURVE",
"426 1500 CURVE",
"342 1461 OFFCURVE",
"267 1342 OFFCURVE",
"252 1257 CURVE",
"348 668 LINE"
);
}
);
width = 1018;
}
);
leftKerningGroup = KO_five.lf;
rightKerningGroup = KO_five.lf;
},
{
color = 4;
glyphname = seven.lf;
lastChange = "2022-07-29 03:42:50 +0000";
layers = (
{
layerId = "ED69ACE7-BE83-49AD-8DAF-057B7A1FF3CB";
paths = (
{
closed = 1;
nodes = (
"475 -5 OFFCURVE",
"501 0 OFFCURVE",
"537 12 CURVE",
"772 571 LINE",
"1006 1077 LINE",
"1121 1057 LINE {name = hr00;}",
"1214 1214 OFFCURVE",
"1209 1416 OFFCURVE",
"1089 1490 CURVE",
"1009 1465 OFFCURVE",
"939 1426 OFFCURVE",
"855 1364 CURVE",
"762 1410 OFFCURVE",
"674 1461 OFFCURVE",
"534 1490 CURVE",
"493 1492 OFFCURVE",
"261 1396 OFFCURVE",
"223 1282 CURVE",
"170 1117 OFFCURVE",
"214 879 OFFCURVE",
"275 798 CURVE",
"446 818 LINE",
"517 1145 LINE",
"744 1110 LINE",
"534 652 LINE",
"183 125 LINE",
"204 45 OFFCURVE",
"318 1 OFFCURVE",
"429 -3 CURVE SMOOTH"
);
}
);
width = 1019;
}
);
leftKerningGroup = KO_seven.lf;
rightKerningGroup = KO_seven.lf;
},
{
color = 4;
glyphname = onesuperior;
lastChange = "2022-07-29 03:42:50 +0000";
layers = (
{
layerId = "ED69ACE7-BE83-49AD-8DAF-057B7A1FF3CB";
paths = (
{
closed = 1;
nodes = (
"549 563 OFFCURVE",
"605 573 OFFCURVE",
"642 599 CURVE",
"645 739 OFFCURVE",
"622 855 OFFCURVE",
"613 905 CURVE",
"681 1095 OFFCURVE",
"745 1361 OFFCURVE",
"770 1506 CURVE",
"731 1546 OFFCURVE",
"692 1580 OFFCURVE",
"643 1613 CURVE {name = hr00;}",
"482 1577 OFFCURVE",
"304 1459 OFFCURVE",
"207 1354 CURVE",
"247 1223 LINE",
"413 1252 LINE",
"415 1074 LINE",
"285 599 LINE",
"316 574 OFFCURVE",
"436 563 OFFCURVE",
"497 563 CURVE SMOOTH"
);
}
);
width = 710;
}
);
leftKerningGroup = KO_onesuperior;
rightKerningGroup = KO_onesuperior;
unicode = 00B9;
userData = {
KernOnSpecialSpacing = {
L = superiors;
R = superiors;
};
};
},
{
color = 4;
glyphname = twosuperior;
lastChange = "2022-07-29 03:42:50 +0000";
layers = (
{
layerId = "ED69ACE7-BE83-49AD-8DAF-057B7A1FF3CB";
paths = (
{
closed = 1;
nodes = (
"519 711 LINE",
"618 872 LINE",
"593 881 LINE",
"594 896 LINE {name = hr01;}",
"695 952 OFFCURVE",
"939 1112 OFFCURVE",
"1032 1218 CURVE",
"1060 1312 OFFCURVE",
"1058 1390 OFFCURVE",
"1052 1447 CURVE",
"968 1554 OFFCURVE",
"773 1609 OFFCURVE",
"682 1615 CURVE",
"584 1615 OFFCURVE",
"383 1524 OFFCURVE",
"312 1461 CURVE",
"247 1368 OFFCURVE",
"286 1162 OFFCURVE",
"310 1091 CURVE",
"337 1083 OFFCURVE",
"361 1078 OFFCURVE",
"383 1078 CURVE SMOOTH",
"410 1078 OFFCURVE",
"440 1083 OFFCURVE",
"478 1096 CURVE",
"541 1333 LINE",
"568 1343 LINE",
"732 1279 LINE",
"729 1234 LINE",
"676 1166 OFFCURVE",
"503 991 OFFCURVE",
"418 918 CURVE",
"506 694 LINE"
);
},
{
closed = 1;
nodes = (
"826 566 OFFCURVE",
"887 592 OFFCURVE",
"937 651 CURVE SMOOTH",
"1022 750 OFFCURVE",
"1016 879 OFFCURVE",
"997 960 CURVE",
"878 984 LINE",
"787 862 LINE",
"506 900 LINE",
"446 928 LINE",
"403 972 OFFCURVE",
"371 992 OFFCURVE",
"338 1002 CURVE",
"289 987 OFFCURVE",
"243 960 OFFCURVE",
"202 927 CURVE",
"181 812 OFFCURVE",
"210 615 OFFCURVE",
"278 568 CURVE",
"351 571 OFFCURVE",
"414 607 OFFCURVE",
"466 672 CURVE SMOOTH",
"474 683 OFFCURVE",
"477 688 OFFCURVE",
"494 711 CURVE",
"544 649 OFFCURVE",
"671 566 OFFCURVE",
"772 566 CURVE SMOOTH {name = hr02;}"
);
}
);
width = 985;
}
);
leftKerningGroup = KO_twosuperior;
rightKerningGroup = KO_twosuperior;
unicode = 00B2;
userData = {
KernOnSpecialSpacing = {
L = superiors;
R = superiors;
};
};
},
{
color = 4;
glyphname = threesuperior;
lastChange = "2022-07-29 03:42:50 +0000";
layers = (
{
layerId = "ED69ACE7-BE83-49AD-8DAF-057B7A1FF3CB";
paths = (
{
closed = 1;
nodes = (
"511 1022 LINE",
"522 1027 OFFCURVE",
"537 1034 OFFCURVE",
"555 1040 CURVE",
"616 1057 LINE",
"731 1117 OFFCURVE",
"843 1188 OFFCURVE",
"942 1267 CURVE",
"946 1281 OFFCURVE",
"968 1353 OFFCURVE",
"968 1438 CURVE SMOOTH",
"968 1454 OFFCURVE",
"967 1476 OFFCURVE",
"964 1491 CURVE",
"912 1558 OFFCURVE",
"671 1614 OFFCURVE",
"609 1614 CURVE SMOOTH",
"593 1614 OFFCURVE",
"547 1603 OFFCURVE",
"503 1589 CURVE",
"431 1566 OFFCURVE",
"342 1530 OFFCURVE",
"297 1483 CURVE",
"285 1465 OFFCURVE",
"261 1426 OFFCURVE",
"261 1367 CURVE SMOOTH",
"261 1331 OFFCURVE",
"269 1302 OFFCURVE",
"275 1269 CURVE",
"275 1271 LINE",
"281 1239 LINE",
"314 1223 OFFCURVE",
"341 1217 OFFCURVE",
"369 1217 CURVE SMOOTH",
"398 1217 OFFCURVE",
"432 1224 OFFCURVE",
"469 1237 CURVE",
"479 1276 OFFCURVE",
"492 1315 OFFCURVE",
"503 1355 CURVE",
"507 1356 LINE",
"674 1300 LINE",
"621 1236 OFFCURVE",
"447 1071 OFFCURVE",
"355 992 CURVE"
);
},
{
closed = 1;
nodes = (
"594 522 OFFCURVE",
"692 541 OFFCURVE",
"753 575 CURVE SMOOTH",
"857 633 OFFCURVE",
"935 742 OFFCURVE",
"959 913 CURVE",
"972 991 OFFCURVE",
"844 1066 OFFCURVE",
"701 1084 CURVE",
"661 1084 OFFCURVE",
"546 1103 OFFCURVE",
"510 1093 CURVE",
"467 1081 LINE",
"427 1000 OFFCURVE",
"426 993 OFFCURVE",
"466 985 CURVE SMOOTH",
"469 984 OFFCURVE",
"474 983 OFFCURVE",
"480 979 CURVE",
"496 971 LINE",
"495 972 LINE",
"542 949 OFFCURVE",
"673 900 OFFCURVE",
"696 852 CURVE",
"689 823 OFFCURVE",
"673 783 OFFCURVE",
"657 753 CURVE",
"635 749 OFFCURVE",
"612 746 OFFCURVE",
"598 746 CURVE SMOOTH",
"506 748 OFFCURVE",
"340 773 OFFCURVE",
"260 817 CURVE",
"219 785 OFFCURVE",
"179 771 OFFCURVE",
"179 656 CURVE SMOOTH",
"179 654 OFFCURVE",
"179 652 OFFCURVE",
"179 651 CURVE",
"227 563 OFFCURVE",
"380 522 OFFCURVE",
"527 522 CURVE SMOOTH"
);
},
{
closed = 1;
nodes = (
"428 866 OFFCURVE",
"507 917 OFFCURVE",
"546 971 CURVE",
"558 981 OFFCURVE",
"565 989 OFFCURVE",
"565 997 CURVE SMOOTH",
"565 996 OFFCURVE",
"566 997 OFFCURVE",
"585 1015 CURVE",
"516 1119 LINE {name = hr00;}",
"408 1154 LINE",
"333 1126 LINE",
"316 1103 OFFCURVE",
"290 1060 OFFCURVE",
"290 1003 CURVE SMOOTH",
"290 928 OFFCURVE",
"333 867 OFFCURVE",
"377 856 CURVE"
);
}
);
width = 921;
}
);
leftKerningGroup = KO_threesuperior;
rightKerningGroup = KO_threesuperior;
unicode = 00B3;
userData = {
KernOnSpecialSpacing = {
L = superiors;
R = superiors;
};
};
},
{
color = 4;
glyphname = foursuperior;
lastChange = "2022-07-29 03:43:44 +0000";
layers = (
{
layerId = "ED69ACE7-BE83-49AD-8DAF-057B7A1FF3CB";
paths = (
{
closed = 1;
nodes = (
"854 950 LINE",
"489 977 LINE",
"764 1520 LINE {name = hr00;}",
"740 1559 OFFCURVE",
"659 1565 OFFCURVE",
"627 1565 CURVE SMOOTH",
"542 1565 OFFCURVE",
"452 1537 OFFCURVE",
"393 1470 CURVE",
"249 827 LINE",
"251 825 LINE",
"248 822 LINE",
"251 819 LINE",
"739 730 LINE"
);
},
{
closed = 1;
nodes = (
"300 720 OFFCURVE",
"388 778 OFFCURVE",
"427 838 CURVE",
"458 864 OFFCURVE",
"426 841 OFFCURVE",
"460 874 CURVE",
"391 981 LINE",
"200 1005 LINE",
"117 892 OFFCURVE",
"170 725 OFFCURVE",
"242 708 CURVE"
);
},
{
closed = 1;
nodes = (
"847 454 OFFCURVE",
"907 463 OFFCURVE",
"942 487 CURVE",
"944 614 OFFCURVE",
"933 807 OFFCURVE",
"925 854 CURVE",
"1008 1086 OFFCURVE",
"1063 1313 OFFCURVE",
"1064 1374 CURVE",
"1048 1382 OFFCURVE",
"1022 1383 OFFCURVE",
"1007 1386 CURVE SMOOTH",
"831 1416 OFFCURVE",
"728 1284 OFFCURVE",
"704 1246 CURVE",
"736 934 LINE",
"614 487 LINE",
"643 464 OFFCURVE",
"740 452 OFFCURVE",
"795 453 CURVE SMOOTH"
);
}
);
width = 992;
}
);
leftKerningGroup = KO_foursuperior;
leftMetricsKey = four;
rightKerningGroup = KO_foursuperior;
rightMetricsKey = four;
unicode = 2074;
userData = {
KernOnSpecialSpacing = {
L = superiors;
R = superiors;
};
};
},
{
color = 4;
glyphname = fraction;
lastChange = "2022-07-29 03:42:50 +0000";
layers = (
{
layerId = "ED69ACE7-BE83-49AD-8DAF-057B7A1FF3CB";
paths = (
{
closed = 1;
nodes = (
"1512 1412 LINE {name = hr00;}",
"1470 1487 OFFCURVE",
"1371 1572 OFFCURVE",
"1296 1576 CURVE",
"51 35 LINE",
"55 -31 OFFCURVE",
"117 -90 OFFCURVE",
"189 -112 CURVE"
);
}
);
width = 1346;
}
);
unicode = 2044;
userData = {
KernOnSpecialSpacing = {
L = fraction;
R = fraction;
};
};
},
{
glyphname = threequarters;
lastChange = "2022-07-29 02:30:28 +0000";
layers = (
{
background = {
paths = (
{
closed = 1;
nodes = (
"1986 477 LINE",
"1606 504 LINE",
"1814 1017 LINE {name = hr00;}",
"1783 1056 OFFCURVE",
"1699 1062 OFFCURVE",
"1665 1062 CURVE SMOOTH",
"1579 1062 OFFCURVE",
"1489 1034 OFFCURVE",
"1438 967 CURVE",
"1380 354 LINE",
"1382 352 LINE",
"1380 349 LINE",
"1383 346 LINE",
"1899 257 LINE"
);
},
{
closed = 1;
nodes = (
"1447 247 OFFCURVE",
"1529 305 OFFCURVE",
"1561 365 CURVE",
"1590 391 OFFCURVE",
"1560 368 OFFCURVE",
"1590 401 CURVE",
"1504 508 LINE",
"1304 532 LINE",
"1235 419 OFFCURVE",
"1312 252 OFFCURVE",
"1389 235 CURVE"
);
},
{
closed = 1;
nodes = (
"2048 -19 OFFCURVE",
"2109 -10 OFFCURVE",
"2142 14 CURVE",
"2125 146 OFFCURVE",
"2088 334 OFFCURVE",
"2073 381 CURVE",
"2120 609 OFFCURVE",
"2147 840 OFFCURVE",
"2143 901 CURVE",
"2124 909 OFFCURVE",
"2103 913 OFFCURVE",
"2082 913 CURVE SMOOTH",
"1897 913 OFFCURVE",
"1808 810 OFFCURVE",
"1790 773 CURVE",
"1867 461 LINE",
"1804 14 LINE",
"1837 -9 OFFCURVE",
"1938 -21 OFFCURVE",
"1996 -20 CURVE SMOOTH"
);
}
);
};
components = (
{
alignment = -1;
name = threesuperior;
},
{
name = fraction;
transform = "{1, 0, 0, 1, 382, 0}";
},
{
alignment = -1;
name = foursuperior;
transform = "{1, 0, 0, 1, 1277, -492}";
}
);
layerId = "ED69ACE7-BE83-49AD-8DAF-057B7A1FF3CB";
width = 2290;
}
);
unicode = 00BE;
userData = {
KernOnSpecialSpacing = {
L = NoKerning;
R = NoKerning;
};
};
},
{
color = 4;
glyphname = period;
lastChange = "2022-07-29 03:42:50 +0000";
layers = (
{
layerId = "ED69ACE7-BE83-49AD-8DAF-057B7A1FF3CB";
paths = (
{
closed = 1;
nodes = (
"345 -4 OFFCURVE",
"530 119 OFFCURVE",
"578 251 CURVE {name = hr00;}",
"518 358 OFFCURVE",
"425 442 OFFCURVE",
"315 475 CURVE",
"262 441 OFFCURVE",
"79 245 OFFCURVE",
"55 195 CURVE",
"78 83 OFFCURVE",
"160 11 OFFCURVE",
"254 -34 CURVE"
);
}
);
width = 587;
}
);
leftKerningGroup = KO_period;
rightKerningGroup = KO_period;
unicode = 002E;
userData = {
KernOnName = period;
KernOnSpecialSpacing = {
L = period;
R = period;
};
};
},
{
color = 4;
glyphname = comma;
lastChange = "2022-07-29 03:42:50 +0000";
layers = (
{
layerId = "ED69ACE7-BE83-49AD-8DAF-057B7A1FF3CB";
paths = (
{
closed = 1;
nodes = (
"150 -204 OFFCURVE",
"469 38 OFFCURVE",
"560 204 CURVE",
"555 256 OFFCURVE",
"512 448 OFFCURVE",
"243 451 CURVE {name = hr00;}",
"-35 -176 LINE",
"73 -244 LINE"
);
}
);
width = 631;
}
);
leftKerningGroup = KO_comma;
rightKerningGroup = KO_comma;
unicode = 002C;
userData = {
KernOnName = comma;
KernOnSpecialSpacing = {
L = period;
R = period;
};
};
},
{
color = 4;
glyphname = colon;
lastChange = "2022-07-29 03:42:50 +0000";
layers = (
{
layerId = "ED69ACE7-BE83-49AD-8DAF-057B7A1FF3CB";
paths = (
{
closed = 1;
nodes = (
"487 762 OFFCURVE",
"673 886 OFFCURVE",
"722 1018 CURVE {name = hr00;}",
"668 1113 OFFCURVE",
"578 1206 OFFCURVE",
"459 1242 CURVE",
"404 1208 OFFCURVE",
"221 1010 OFFCURVE",
"199 962 CURVE",
"221 850 OFFCURVE",
"303 778 OFFCURVE",
"398 733 CURVE"
);
},
{
closed = 1;
nodes = (
"384 -4 OFFCURVE",
"568 119 OFFCURVE",
"617 251 CURVE {name = hr00;}",
"557 358 OFFCURVE",
"464 442 OFFCURVE",
"354 475 CURVE",
"301 441 OFFCURVE",
"117 245 OFFCURVE",
"94 195 CURVE",
"116 83 OFFCURVE",
"199 11 OFFCURVE",
"293 -34 CURVE"
);
}
);
width = 670;
}
);
leftKerningGroup = KO_colon;
rightKerningGroup = KO_colon;
unicode = 003A;
userData = {
KernOnSpecialSpacing = {
L = "spaced-off";
R = "spaced-off";
};
};
},
{
color = 4;
glyphname = semicolon;
lastChange = "2022-07-29 03:42:50 +0000";
layers = (
{
layerId = "ED69ACE7-BE83-49AD-8DAF-057B7A1FF3CB";
paths = (
{
closed = 1;
nodes = (
"150 -204 OFFCURVE",
"469 38 OFFCURVE",
"560 204 CURVE",
"555 256 OFFCURVE",
"512 448 OFFCURVE",
"243 451 CURVE {name = hr00;}",
"-35 -176 LINE",
"73 -244 LINE"
);
},
{
closed = 1;
nodes = (
"467 763 OFFCURVE",
"651 886 OFFCURVE",
"699 1018 CURVE {name = hr00;}",
"646 1113 OFFCURVE",
"556 1206 OFFCURVE",
"437 1242 CURVE",
"380 1206 OFFCURVE",
"199 1010 OFFCURVE",
"177 962 CURVE",
"199 850 OFFCURVE",
"281 778 OFFCURVE",
"375 733 CURVE"
);
}
);
width = 670;
}
);
leftKerningGroup = KO_semicolon;
leftMetricsKey = comma;
widthMetricsKey = colon;
rightKerningGroup = KO_semicolon;
unicode = 003B;
userData = {
KernOnSpecialSpacing = {
L = "spaced-off";
R = "spaced-off";
};
};
},
{
color = 4;
glyphname = ellipsis;
lastChange = "2022-07-29 03:42:50 +0000";
layers = (
{
layerId = "ED69ACE7-BE83-49AD-8DAF-057B7A1FF3CB";
paths = (
{
closed = 1;
nodes = (
"1475 -4 OFFCURVE",
"1660 119 OFFCURVE",
"1708 251 CURVE",
"1648 358 OFFCURVE",
"1555 442 OFFCURVE",
"1445 475 CURVE",
"1392 441 OFFCURVE",
"1208 245 OFFCURVE",
"1185 195 CURVE",
"1208 83 OFFCURVE",
"1290 11 OFFCURVE",
"1384 -34 CURVE"
);
},
{
closed = 1;
nodes = (
"331 -4 OFFCURVE",
"515 119 OFFCURVE",
"564 251 CURVE {name = hr00;}",
"503 358 OFFCURVE",
"410 442 OFFCURVE",
"301 475 CURVE",
"247 441 OFFCURVE",
"64 245 OFFCURVE",
"41 195 CURVE",
"63 83 OFFCURVE",
"146 11 OFFCURVE",
"240 -34 CURVE"
);
},
{
closed = 1;
nodes = (
"903 -4 OFFCURVE",
"1087 119 OFFCURVE",
"1136 251 CURVE",
"1076 358 OFFCURVE",
"983 442 OFFCURVE",
"873 475 CURVE",
"820 441 OFFCURVE",
"636 245 OFFCURVE",
"613 195 CURVE",
"635 83 OFFCURVE",
"718 11 OFFCURVE",
"812 -34 CURVE"
);
}
);
width = 1717;
}
);
leftKerningGroup = KO_ellipsis;
rightKerningGroup = KO_ellipsis;
unicode = 2026;
},
{
color = 4;
glyphname = exclam;
lastChange = "2022-07-29 03:42:50 +0000";
layers = (
{
layerId = "ED69ACE7-BE83-49AD-8DAF-057B7A1FF3CB";
paths = (
{
closed = 1;
nodes = (
"316 550 OFFCURVE",
"547 599 OFFCURVE",
"598 687 CURVE",
"574 964 LINE",
"769 1566 LINE {name = hr00;}",
"738 1596 OFFCURVE",
"686 1615 OFFCURVE",
"630 1613 CURVE SMOOTH",
"499 1609 OFFCURVE",
"357 1553 OFFCURVE",
"282 1467 CURVE",
"279 1225 OFFCURVE",
"305 1172 OFFCURVE",
"335 913 CURVE",
"300 831 OFFCURVE",
"271 739 OFFCURVE",
"249 655 CURVE"
);
},
{
closed = 1;
nodes = (
"395 -4 OFFCURVE",
"579 119 OFFCURVE",
"628 251 CURVE",
"567 358 OFFCURVE",
"474 442 OFFCURVE",
"365 475 CURVE",
"311 441 OFFCURVE",
"128 245 OFFCURVE",
"105 195 CURVE",
"127 83 OFFCURVE",
"210 11 OFFCURVE",
"304 -34 CURVE"
);
}
);
width = 670;
}
);
leftKerningGroup = KO_exclam;
rightKerningGroup = KO_exclam;
unicode = 0021;
userData = {
KernOnSpecialSpacing = {
L = "spaced-off";
};
};
},
{
color = 4;
glyphname = exclamdown;
lastChange = "2022-07-29 03:42:50 +0000";
layers = (
{
layerId = "ED69ACE7-BE83-49AD-8DAF-057B7A1FF3CB";
paths = (
{
closed = 1;
nodes = (
"334 -432 OFFCURVE",
"475 -376 OFFCURVE",
"550 -290 CURVE",
"552 -46 OFFCURVE",
"521 65 OFFCURVE",
"498 264 CURVE",
"532 346 OFFCURVE",
"559 428 OFFCURVE",
"583 522 CURVE",
"516 627 OFFCURVE",
"284 578 OFFCURVE",
"234 490 CURVE",
"258 213 LINE",
"63 -389 LINE {name = hr00;}",
"94 -419 OFFCURVE",
"146 -438 OFFCURVE",
"203 -436 CURVE SMOOTH"
);
},
{
closed = 1;
nodes = (
"521 736 OFFCURVE",
"704 933 OFFCURVE",
"728 982 CURVE",
"704 1094 OFFCURVE",
"624 1165 OFFCURVE",
"529 1211 CURVE",
"436 1180 OFFCURVE",
"252 1058 OFFCURVE",
"205 926 CURVE",
"260 827 OFFCURVE",
"351 737 OFFCURVE",
"467 702 CURVE"
);
}
);
width = 670;
}
);
leftKerningGroup = KO_exclam;
rightKerningGroup = KO_exclamdown;
unicode = 00A1;
userData = {
KernOnSpecialSpacing = {
R = "spaced-off";
};
};
},
{
color = 4;
glyphname = question;
lastChange = "2022-07-29 03:42:50 +0000";
layers = (
{
layerId = "ED69ACE7-BE83-49AD-8DAF-057B7A1FF3CB";
paths = (
{
closed = 1;
nodes = (
"620 813 LINE",
"772 804 OFFCURVE",
"925 874 OFFCURVE",
"925 874 CURVE",
"992 1034 OFFCURVE",
"1017 1260 OFFCURVE",
"999 1377 CURVE",
"896 1569 OFFCURVE",
"604 1611 OFFCURVE",
"509 1611 CURVE",
"429 1577 OFFCURVE",
"319 1431 OFFCURVE",
"284 1306 CURVE",
"456 1267 OFFCURVE",
"651 1238 OFFCURVE",
"760 1170 CURVE",
"442 988 LINE SMOOTH",
"256 881 OFFCURVE",
"346 800 OFFCURVE",
"364 605 CURVE {name = hr00;}",
"543 595 LINE"
);
},
{
closed = 1;
nodes = (
"471 -4 OFFCURVE",
"656 119 OFFCURVE",
"704 251 CURVE",
"644 358 OFFCURVE",
"551 442 OFFCURVE",
"441 475 CURVE",
"388 441 OFFCURVE",
"205 245 OFFCURVE",
"181 195 CURVE",
"204 83 OFFCURVE",
"286 11 OFFCURVE",
"380 -34 CURVE"
);
}
);
userData = {
com.typemytype.robofont.guides = (
{
angle = 0;
isGlobal = 0;
x = 0;
y = 1677;
}
);
};
width = 926;
}
);
leftKerningGroup = KO_question;
rightKerningGroup = KO_question;
unicode = 003F;
userData = {
KernOnName = question;
KernOnSpecialSpacing = {
L = "spaced-off";
};
};
},
{
color = 4;
glyphname = questiondown;
lastChange = "2022-07-29 03:42:50 +0000";
layers = (
{
layerId = "ED69ACE7-BE83-49AD-8DAF-057B7A1FF3CB";
paths = (
{
closed = 1;
nodes = (
"659 -405 OFFCURVE",
"766 -258 OFFCURVE",
"801 -135 CURVE",
"620 -94 OFFCURVE",
"434 -66 OFFCURVE",
"325 1 CURVE",
"644 183 LINE SMOOTH",
"829 290 OFFCURVE",
"739 368 OFFCURVE",
"722 566 CURVE {name = hr00;}",
"542 576 LINE",
"466 358 LINE",
"314 367 OFFCURVE",
"160 297 OFFCURVE",
"160 297 CURVE",
"93 137 OFFCURVE",
"68 -88 OFFCURVE",
"86 -206 CURVE",
"189 -398 OFFCURVE",
"482 -440 OFFCURVE",
"576 -440 CURVE"
);
},
{
closed = 1;
nodes = (
"700 732 OFFCURVE",
"882 928 OFFCURVE",
"904 976 CURVE",
"882 1088 OFFCURVE",
"799 1160 OFFCURVE",
"705 1205 CURVE",
"614 1175 OFFCURVE",
"430 1052 OFFCURVE",
"381 920 CURVE",
"435 825 OFFCURVE",
"525 732 OFFCURVE",
"644 696 CURVE"
);
}
);
width = 926;
}
);
leftKerningGroup = KO_slash;
rightKerningGroup = KO_questiondown;
unicode = 00BF;
userData = {
KernOnSpecialSpacing = {
R = "spaced-off";
};
};
},
{
color = 4;
glyphname = periodcentered;
lastChange = "2022-07-29 03:42:50 +0000";
layers = (
{
layerId = "ED69ACE7-BE83-49AD-8DAF-057B7A1FF3CB";
paths = (
{
closed = 1;
nodes = (
"445 405 OFFCURVE",
"630 528 OFFCURVE",
"678 660 CURVE {name = hr00;}",
"618 767 OFFCURVE",
"525 851 OFFCURVE",
"415 884 CURVE",
"362 850 OFFCURVE",
"178 654 OFFCURVE",
"155 604 CURVE",
"178 492 OFFCURVE",
"260 420 OFFCURVE",
"354 375 CURVE"
);
}
);
width = 670;
}
);
unicode = 00B7;
userData = {
KernOnSpecialSpacing = {
L = NoKerning;
R = NoKerning;
};
};
},
{
color = 4;
glyphname = bullet;
lastChange = "2022-07-29 03:42:50 +0000";
layers = (
{
layerId = "ED69ACE7-BE83-49AD-8DAF-057B7A1FF3CB";
paths = (
{
closed = 1;
nodes = (
"478 367 OFFCURVE",
"693 512 OFFCURVE",
"749 664 CURVE {name = hr00;}",
"688 775 OFFCURVE",
"582 883 OFFCURVE",
"443 925 CURVE",
"383 888 OFFCURVE",
"167 657 OFFCURVE",
"141 599 CURVE",
"167 469 OFFCURVE",
"262 385 OFFCURVE",
"372 332 CURVE"
);
}
);
width = 755;
}
);
unicode = 2022;
userData = {
KernOnSpecialSpacing = {
L = NoKerning;
R = NoKerning;
};
};
},
{
color = 4;
glyphname = asterisk;
lastChange = "2022-07-29 03:42:50 +0000";
layers = (
{
layerId = "ED69ACE7-BE83-49AD-8DAF-057B7A1FF3CB";
paths = (
{
closed = 1;
nodes = (
"636 965 LINE",
"644 963 LINE {name = hr00;}",
"667 831 OFFCURVE",
"702 701 OFFCURVE",
"741 612 CURVE",
"860 627 OFFCURVE",
"969 686 OFFCURVE",
"1043 787 CURVE",
"777 1031 LINE",
"780 1036 OFFCURVE",
"782 1039 OFFCURVE",
"784 1041 CURVE",
"837 1033 OFFCURVE",
"917 1022 OFFCURVE",
"987 1022 CURVE SMOOTH",
"1031 1022 OFFCURVE",
"1086 1026 OFFCURVE",
"1136 1037 CURVE",
"1151 1071 OFFCURVE",
"1175 1139 OFFCURVE",
"1175 1216 CURVE SMOOTH",
"1175 1280 OFFCURVE",
"1159 1339 OFFCURVE",
"1126 1376 CURVE",
"788 1151 LINE",
"784 1155 OFFCURVE",
"783 1158 OFFCURVE",
"778 1162 CURVE",
"974 1618 LINE",
"934 1640 OFFCURVE",
"867 1649 OFFCURVE",
"825 1649 CURVE SMOOTH",
"750 1649 OFFCURVE",
"674 1619 OFFCURVE",
"616 1570 CURVE",
"610 1483 OFFCURVE",
"607 1266 OFFCURVE",
"632 1170 CURVE",
"627 1167 OFFCURVE",
"622 1164 OFFCURVE",
"619 1162 CURVE",
"384 1403 LINE",
"282 1338 OFFCURVE",
"208 1200 OFFCURVE",
"183 1080 CURVE",
"275 1049 OFFCURVE",
"399 1037 OFFCURVE",
"506 1037 CURVE SMOOTH",
"517 1037 OFFCURVE",
"543 1038 OFFCURVE",
"554 1038 CURVE",
"555 1027 LINE",
"434 961 OFFCURVE",
"322 878 OFFCURVE",
"220 770 CURVE",
"255 689 OFFCURVE",
"342 596 OFFCURVE",
"455 596 CURVE"
);
}
);
width = 1049;
}
);
leftKerningGroup = KO_asterisk;
rightKerningGroup = KO_asterisk;
unicode = 002A;
userData = {
KernOnSpecialSpacing = {
L = quotes;
R = quotes;
};
};
},
